<svg width="17" height="20" viewBox="0 0 17 20" fill="none" xmlns="http://www.w3.org/2000/svg">
<g clip-path="url(#clip0_666_152)">
<path d="M15.8 6.8C15.7 6.9 13.6 8 13.6 10.6C13.6 13.6 16.2 14.6 16.3 14.6C16.3 14.7 15.9 16 14.9 17.4C14 18.6 13.1 19.9 11.8 19.9C10.5 19.9 10.1 19.1 8.5 19.1C7 19.2 6.4 20 5.2 20C4 20 3.1 18.9 2.1 17.5C0.9 15.8 0 13.3 0 10.8C0 6.9 2.5 4.8 5 4.8C6.3 4.8 7.4 5.7 8.3 5.7C9.1 5.7 10.3 4.8 11.8 4.8C12.4 4.8 14.4 4.9 15.8 6.8ZM11.1 3.2C11.7 2.5 12.2 1.4 12.2 0.4C12.2 0.3 12.2 0.1 12.2 0C11.2 0 10 0.7 9.3 1.5C8.6 2.2 8.1 3.2 8.1 4.2C8.1 4.4 8.1 4.5 8.1 4.6C8.2 4.6 8.3 4.6 8.4 4.6C9.3 4.6 10.4 4 11.1 3.2Z" fill="white"/>
</g>
<defs>
<clipPath id="clip0_666_152">
<rect width="16.3" height="20" fill="white"/>
</clipPath>
</defs>
</svg>
