<svg width="123" height="25" viewBox="0 0 123 25" fill="none" xmlns="http://www.w3.org/2000/svg">
<g clip-path="url(#clip0_324_521)">
<path fill-rule="evenodd" clip-rule="evenodd" d="M31.419 10.8275H38.2379C38.7127 10.8275 38.799 11.3116 38.4537 11.9278L37.0727 14.2165C36.7274 14.8327 36.0369 15.3169 35.5621 15.3169H28.7432C28.2684 15.3169 28.1821 14.8327 28.5274 14.2165L29.9084 11.9278C30.2969 11.3116 30.9442 10.8275 31.419 10.8275Z" fill="#0083A5"/>
<path fill-rule="evenodd" clip-rule="evenodd" d="M64.0032 -2.05487e-05C66.5064 -0.220091 69.4843 1.76054 68.0169 4.40139C66.6359 6.77815 61.5432 7.39435 59.9895 7.2623C59.5148 7.21829 58.6948 6.91019 58.738 6.11794C58.738 5.54575 59.0832 3.60913 60.119 2.06864C61.2411 0.528149 62.838 0.0880076 64.0032 -2.05487e-05Z" fill="#0083A5"/>
<path fill-rule="evenodd" clip-rule="evenodd" d="M79.6263 5.10559C80.4032 4.75347 80.4895 5.63376 80.4463 5.85383V7.87847C80.4463 8.2746 80.7916 8.09854 80.9211 8.01052C83.2516 6.99819 85.6684 5.50171 88.6895 5.54573C91.3653 5.58974 92.1853 7.79045 92.1421 10.2552V20.8626C92.1421 21.7869 92.2284 22.007 92.6169 22.3591C92.7463 22.4471 93.48 22.4911 93.739 22.4911C94.0411 22.4911 94.0411 22.7112 93.9547 22.9313L93.3074 24.6038C93.1779 24.9119 92.8758 24.9559 92.66 24.9559H86.5747C84.46 24.8679 83.8126 23.2834 83.8558 22.4471V12.4119C83.8558 10.3433 80.5326 10.1672 80.5326 12.9841V21.4788C80.5758 21.875 80.4463 22.4031 81.4821 22.4911C82.1726 22.4911 82.6905 22.4031 82.3453 23.2834L81.8274 24.6038C81.6979 24.8679 81.3958 25 81.1369 25H71.0379C70.8221 25 70.6495 24.7359 70.6926 24.5598L71.4263 22.6672C71.4695 22.5792 71.5126 22.4471 71.6421 22.4471C71.9874 22.4471 72.2032 22.2711 72.2895 21.3028V10.2552C72.2895 9.33094 71.4695 9.46298 70.8653 9.46298C70.6063 9.46298 70.4337 9.37495 70.52 9.02284L71.0811 7.79045C71.1674 7.48235 71.2969 7.39432 71.5126 7.35031C74.879 6.86615 76.7779 6.60207 79.6263 5.10559Z" fill="#0083A5"/>
<path fill-rule="evenodd" clip-rule="evenodd" d="M119.72 1.58448V2.59681H120.065C120.454 2.59681 120.713 2.59681 120.842 2.55279C120.929 2.50878 121.015 2.46477 121.058 2.37674C121.101 2.28871 121.144 2.20068 121.144 2.11265C121.144 1.98061 121.101 1.84857 120.972 1.76054C120.885 1.67251 120.626 1.6285 120.195 1.6285H119.72V1.58448ZM119.375 1.27639H120.497C120.885 1.27639 121.188 1.36441 121.36 1.49646C121.533 1.6285 121.619 1.84857 121.619 2.06864C121.619 2.28871 121.533 2.50878 121.36 2.64082C121.231 2.77286 121.015 2.81688 120.799 2.86089C120.929 2.90491 121.015 2.94892 121.058 2.99293C121.101 3.03695 121.188 3.12498 121.274 3.25702C121.36 3.38906 121.446 3.5211 121.49 3.60913L121.792 4.1373H121.274L121.015 3.65315C120.799 3.30103 120.626 3.03695 120.54 2.99293C120.411 2.90491 120.238 2.86089 119.979 2.86089H119.763V4.1373H119.375V1.27639ZM122.698 2.81688C122.698 2.15667 122.482 1.58448 122.008 1.14434C121.533 0.660188 121.015 0.440118 120.368 0.440118C119.72 0.440118 119.159 0.660188 118.728 1.14434C118.253 1.6285 118.037 2.15667 118.037 2.81688C118.037 3.47709 118.253 4.04927 118.728 4.48941C119.202 4.97357 119.72 5.19364 120.368 5.19364C121.015 5.19364 121.576 4.97357 122.008 4.48941C122.439 4.04927 122.698 3.47709 122.698 2.81688ZM123 2.81688C123 3.56512 122.741 4.18131 122.223 4.70948C121.705 5.23765 121.101 5.50174 120.368 5.50174C119.634 5.50174 119.03 5.23765 118.512 4.70948C117.994 4.18131 117.735 3.56512 117.735 2.81688C117.735 2.06864 117.994 1.45244 118.512 0.924273C119.03 0.396104 119.634 0.132019 120.368 0.132019C121.101 0.132019 121.705 0.396104 122.223 0.924273C122.741 1.45244 123 2.06864 123 2.81688Z" fill="#0083A5"/>
<path fill-rule="evenodd" clip-rule="evenodd" d="M104.227 0.440097C104.788 0.352069 105.133 0.704182 105.133 1.36439V11.9278C105.219 12.5 105.608 12.1038 105.737 11.9718L109.319 7.35031C109.708 6.86615 110.614 6.77813 111.175 6.77813H118.771H118.987C119.116 6.77813 119.202 6.95418 119.073 7.13024L118.08 8.49467C117.994 8.62672 117.908 8.80277 117.433 8.80277H117.045C116.699 8.80277 116.613 8.93482 116.483 9.02284L112.47 13.6003C111.607 14.6126 111.822 15.0528 112.599 15.801L118.08 21.5669C119.289 22.4471 120.411 22.4912 121.706 22.5792C122.051 22.6232 121.965 22.8873 121.835 23.0193L120.411 24.6919C120.281 24.9119 119.634 25.044 119.289 25.044H113.851C113.16 25.044 111.866 24.8239 110.873 24.1637C108.888 22.4912 107.636 20.3785 105.694 18.5299C105.349 18.2218 105.09 18.3538 105.09 18.6619V21.0827C105.09 22.1831 105.521 22.4471 107.075 22.5352C107.679 22.5792 107.507 22.8873 107.377 23.2394L106.859 24.6038C106.73 24.9559 106.514 25.044 106.255 25.044H94.9477C94.6024 25.044 94.3866 24.9559 94.4298 24.7359L95.0772 23.0633C95.2066 22.7112 95.2929 22.6672 95.7677 22.6232C96.5445 22.5792 96.8466 22.3151 96.8466 21.1267V5.50172C96.8466 4.97355 96.7172 4.75348 96.3719 4.79749L94.9477 5.01756C94.5161 5.06158 94.4298 4.75348 94.6024 4.44538L95.4656 2.9489C95.6382 2.6408 95.9403 2.6408 96.2856 2.55277C99.1772 2.06862 102.069 1.23235 103.881 0.528125C104.011 0.484111 104.097 0.484111 104.227 0.440097Z" fill="#0083A5"/>
<path fill-rule="evenodd" clip-rule="evenodd" d="M67.8445 6.69014C68.1897 6.5581 68.6213 6.82218 68.535 7.61443V21.3028C68.7076 22.2711 69.0097 22.4912 69.8729 22.5792C69.8729 22.5792 70.4339 22.5792 70.3045 23.0194L69.7434 24.4718C69.5276 24.912 69.3981 24.956 68.8803 24.956H58.3497C58.0908 24.956 57.9613 24.7359 58.0476 24.4718L58.5655 23.1074C58.6518 22.9313 58.695 22.7553 59.0403 22.6672C60.1192 22.3592 60.1624 22.2271 60.1624 20.7746V12.588C60.1624 11.2236 59.9466 11.2676 58.3929 11.4437C58.0908 11.3556 58.1339 11.0915 58.1771 11.0035L58.9539 9.50704C59.1697 9.0669 59.4287 9.0669 59.4287 9.0669C62.4929 8.84683 65.4708 8.09859 67.8445 6.69014Z" fill="#0083A5"/>
<path fill-rule="evenodd" clip-rule="evenodd" d="M14.8033 25C17.0906 25.044 19.8527 25.132 22.3991 23.1074C24.2117 21.875 26.4127 16.9014 27.1896 14.8327C27.578 13.7764 27.7075 12.3239 27.1896 11.2676C25.8517 8.09857 23.8233 4.53343 22.4854 3.08097C20.5864 1.27639 18.8169 1.14435 15.8391 1.14435H3.15063C2.63274 1.14435 2.02853 1.27639 1.81274 1.67252L0.906422 3.34505C0.733791 4.09329 1.59695 4.13731 1.59695 4.13731H2.89169C3.23695 4.13731 3.32326 4.44541 3.32326 4.70949V20.7306C3.32326 21.4348 2.54642 21.875 1.89905 22.007C1.59695 22.0951 1.20853 22.1831 0.992738 22.4912L0.0864225 24.2958C-0.0430512 24.6479 0.215896 24.956 0.518001 24.956C5.48116 25 9.79695 25 14.8033 25ZM11.5664 22.007V4.79752C11.5664 4.35738 11.6527 4.13731 12.0412 4.09329H13.2927C13.7243 4.09329 14.3717 4.00526 14.7601 4.70949L19.0327 12.2799C19.378 13.0722 19.2917 13.3803 19.0327 13.9524L14.7169 21.3908C14.1991 22.1391 13.9401 21.963 13.2927 22.051L11.5664 22.007Z" fill="#0083A5"/>
<path fill-rule="evenodd" clip-rule="evenodd" d="M51.0125 1.27637C51.5736 1.27637 51.7462 1.62848 51.6599 1.84855L50.5378 3.96123C50.5378 3.96123 50.4083 4.40137 49.4157 4.40137H49.3294C48.682 4.40137 48.2073 4.40137 48.121 5.67778V20.9066C48.121 21.5669 48.3799 22.095 49.1568 22.139H50.7104C53.2136 22.095 53.1704 19.4542 53.7315 17.1655C53.861 16.8133 53.9473 16.5933 54.3789 16.3732L56.6231 15.5809C56.9252 15.5809 57.1841 15.5809 57.2704 16.0651V23.7236C57.3568 24.4278 56.7094 25.088 55.8462 25H36.641C35.9504 25 35.7778 24.7799 35.9504 24.3397L36.641 22.7552C36.641 22.7552 36.8568 22.3151 37.5041 22.3151C38.9283 22.2271 39.7915 22.2271 39.7915 20.0264V5.80982C39.7915 4.88552 39.5757 4.31334 38.6694 4.31334C38.3241 4.31334 37.9357 4.31334 37.5904 4.31334C36.8999 4.31334 36.5115 4.04925 36.6841 3.65313L37.6336 1.76052C37.8494 1.32038 38.0652 1.27637 38.4104 1.27637H51.0125Z" fill="#0083A5"/>
</g>
<defs>
<clipPath id="clip0_324_521">
<rect width="123" height="25" fill="white"/>
</clipPath>
</defs>
</svg>
