<svg width="150" height="28" viewBox="0 0 150 28" fill="none" xmlns="http://www.w3.org/2000/svg">
<path d="M18 16V24.4C17.4 25 16.7 25.5 15.9 25.9C15.2 26.3 14.4 26.6 13.5 26.9C12.6 27.2 11.5 27.4 10.4 27.4C9 27.4 7.7 27.1 6.5 26.6C5.3 26.1 4.2 25.3 3.2 24.4C2.2 23.5 1.5 22.4 0.9 21.1C0.3 19.8 0 18.5 0 17.1C0 15.8 0.3 14.5 0.8 13.2C1.5 12 2.2 11 3.1 10C4 9.00005 5.1 8.30005 6.4 7.70005C7.7 7.10005 9 6.80005 10.4 6.80005C12 6.80005 13.5 7.10005 14.7 7.70005C16 8.30005 17 9.20005 18 10.2C18 10.2 17.9 10.3 17.6 10.5C17.3 10.7 17 10.9 16.7 11.2C16.3 11.5 15.9 11.8 15.4 12.1C14.8 11.5 14.1 11 13.2 10.7C12.3 10.4 11.4 10.2 10.4 10.2C9.6 10.2 8.7 10.4 7.9 10.7C7.1 11.1 6.4 11.6 5.7 12.2C5.1 12.9 4.5 13.7 4.1 14.5C3.7 15.3 3.5 16.2 3.5 17.2C3.5 18.1 3.7 18.9 4 19.7C4.4 20.5 4.9 21.3 5.5 21.9C6.1 22.5 6.9 23.1 7.7 23.5C8.5 23.9 9.4 24.1 10.4 24.1C11.2 24.1 11.9 24 12.7 23.8C13.4 23.6 14.1 23.3 14.7 22.9V19.5H10.5V16H18Z" fill="white"/>
<path d="M77.8 6.80005H81.3V27.5L67.5 14.7V27.5H64V6.80005L77.8 19.6V6.80005Z" fill="white"/>
<path d="M100.2 24V27.5H86.4V6.80005H89.9V24H100.2Z" fill="white"/>
<path d="M108.8 6.8999H105.4V27.4999H108.8V6.8999Z" fill="white"/>
<path d="M127.7 6.80005H131.2V27.5L117.4 14.7V27.5H114V6.80005L127.7 19.6V6.80005Z" fill="white"/>
<path d="M136.3 6.8999H150.1V10.2999H136.3V6.8999ZM148.6 18.8999H136.4V15.4999H148.6V18.8999ZM136.3 23.9999H150.1V27.3999H136.3V23.9999Z" fill="white"/>
<path d="M61.5 16.5L45.4 0L41.9 22.8L45.9 21.5V21.4C46.8 19.7 48.6 18.1 51 17.4C53.4 16.6 55.8 16.8 57.5 17.7L61.5 16.5ZM49.9 14.1C48.7 14.5 47.6 15 46.6 15.7L47.7 7.3L53.5 13.5C52.4 13.5 51.1 13.7 49.9 14.1Z" fill="#2EFFBB"/>
<path d="M34.7 19C37.1 18.1 38.8 15.8 38.8 13.1C38.8 9.60005 36 6.80005 32.5 6.80005H23.1V10.2H26.5H27.5H32.4C34 10.2 35.3 11.5 35.3 13.1C35.3 14.7 34 16 32.4 16H27.5H26.5H23.1V19.3V19.5V27.5H26.5V19.5H30.9L35.3 27.5H39.2L34.7 19Z" fill="white"/>
<path d="M46.6 15.7C43.9 17.5 42.2 20.1 41.9 22.8L45.8 21.6C45.8 21.6 45.8 21.6 45.8 21.5L46.6 15.7Z" fill="#00FF64"/>
<path d="M57.6 17.8L61.5 16.6C59.7 14.6 56.8 13.5 53.6 13.6L57.6 17.8C57.5 17.7 57.6 17.8 57.6 17.8Z" fill="#00FF64"/>
</svg>
