<svg width="52" height="40" viewBox="0 0 52 40" fill="none" xmlns="http://www.w3.org/2000/svg">
<g clip-path="url(#clip0_330_1086)">
<path d="M51 34.9H1C0.4 34.9 0 34.5 0 33.9V1C0 0.4 0.4 0 1 0H51C51.6 0 52 0.4 52 1V17.9C52 18.5 51.6 18.9 51 18.9C50.4 18.9 50 18.5 50 17.9V2H2V32.9H50V21.6C50 21 50.4 20.6 51 20.6C51.6 20.6 52 21 52 21.6V33.9C52 34.5 51.6 34.9 51 34.9Z" fill="#0E334F"/>
<path d="M5.8 39.2998C5.6 39.2998 5.5 39.2998 5.3 39.1998C4.8 38.8998 4.6 38.2998 4.9 37.8998L7.1 33.5998C7.4 32.9998 8 32.7998 8.5 32.9998C9 33.2998 9.2 33.8998 8.9 34.2998L6.7 38.5998C6.6 39.0998 6.2 39.2998 5.8 39.2998Z" fill="#0E334F"/>
<path d="M46.2 39.2999C45.8 39.2999 45.5 39.0999 45.3 38.6999L43.1 34.3999C42.8 33.8999 43 33.2999 43.5 33.0999C44 32.7999 44.6 32.9999 44.8 33.4999L47 37.7999C47.3 38.2999 47.1 38.8999 46.6 39.0999C46.5 39.1999 46.3 39.2999 46.2 39.2999Z" fill="#0E334F"/>
<path d="M51 30.7998H4.10001C3.50001 30.7998 3.10001 30.3998 3.10001 29.7998C3.10001 29.1998 3.50001 28.7998 4.10001 28.7998H51C51.6 28.7998 52 29.1998 52 29.7998C52 30.3998 51.6 30.7998 51 30.7998Z" fill="#0E334F"/>
<path d="M18.6 22.8C18.3 22.8 18.1 22.7 17.9 22.5C17.5 22.1 17.5 21.5 17.9 21.1L31.8 7.3C32.2 6.9 32.8 6.9 33.2 7.3C33.6 7.7 33.6 8.3 33.2 8.7L19.3 22.5C19.1 22.7 18.8 22.8 18.6 22.8Z" fill="#0E334F"/>
<path d="M24.8 23.8002C24.5 23.8002 24.3 23.7002 24.1 23.5002C23.7 23.1002 23.7 22.5002 24.1 22.1002L32.7 13.5002C33.1 13.1002 33.7 13.1002 34.1 13.5002C34.5 13.9002 34.5 14.5002 34.1 14.9002L25.5 23.5002C25.3 23.7002 25 23.8002 24.8 23.8002Z" fill="#0E334F"/>
</g>
<defs>
<clipPath id="clip0_330_1086">
<rect width="52" height="39.3" fill="white"/>
</clipPath>
</defs>
</svg>
