<svg width="45" height="45" viewBox="0 0 45 45" fill="none" xmlns="http://www.w3.org/2000/svg">
<g clip-path="url(#clip0_330_1219)">
<path d="M36.3 24.1C36.2 24.4 35.9 24.4 35.7 24.2L37 21.1L37.5 21.3L36.3 24.1ZM19.5 22.7C22.2 23.9 24.8 25 27.3 26.1C29 26.9 31.1 27.1 32.6 25.9L34.5 26.7L35.1 25.3C35.6 25.5 35.9 25.6 36.4 25.4C36.8 25.3 37.1 25 37.3 24.6L38.5 21.9L39.4 22.3L44.7 18.2L2.5 0C1 3.5 -1.6 8 2 11.1L0.5 14.5C2.8 15.5 5.1 16.5 7.4 17.5L5.8 21.3C6.6 21.7 7.4 22.1 7.1 23.2C6.2 25.3 7 27.7 8.8 28.9V33.7H4V29.3H0V43.5H4V39.1H8.7V42.2C8.7 45.7 13.9 45.7 13.9 42.2V29C14.7 28.4 15.4 27.6 15.7 26.7C16.3 26 17 26.3 17.8 26.6L19.5 22.7ZM1.2 30.7H2.9V35H8.8V38H2.9V42.4H1.2V30.7ZM8.4 18L18.4 22.3L17.2 25.1C16.8 25 16.4 25.1 16.1 25.2C16.1 23.3 15 21.5 13.2 20.8C11.4 20 9.3 20.4 8 21.8C7.8 21.4 7.6 21.1 7.2 20.9L8.4 18ZM12.8 29.6V42.4C12.8 44.3 9.9 44.3 9.9 42.4V29.6C10.9 29.9 11.9 29.9 12.8 29.6ZM10.1 21.8C13.1 20.6 15.8 23.7 14.6 26.5C13.8 28.3 11.7 29.1 10 28.3C7.1 27.1 7.2 23 10.1 21.8ZM2 14L2.9 11.9C3.7 12.4 4.5 12.8 5.3 13.1C10.2 15.3 15.3 17.3 20.3 19.5C22.5 17.7 24.1 15.5 27.2 17C28.6 17.6 31 18.7 34.3 20L32.2 24.8C30.8 26 29.3 25.6 27.7 25C19.2 21.3 10.6 17.7 2 14ZM27.6 15.9C24 14.4 22.6 16.1 20.1 18.1C15.2 16 10.3 14 5.4 11.8C-0.3 9.2 1.2 6.1 3.2 1.6L42.4 18.4L39.3 20.8C35.4 19.2 31.5 17.5 27.6 15.9ZM35.9 20.7C35.3 22.2 34.6 23.7 34 25.2L33.4 25L35.3 20.5L35.9 20.7Z" fill="#0E334F"/>
</g>
<defs>
<clipPath id="clip0_330_1219">
<rect width="44.6" height="45" fill="white"/>
</clipPath>
</defs>
</svg>
