<svg width="17" height="13" viewBox="0 0 17 13" fill="none" xmlns="http://www.w3.org/2000/svg">
<path d="M14.2955 0C15.7636 0 17 1.21637 17 2.66082V10.3392C17 11.7836 15.8409 13 14.3727 13H2.70455C1.15909 12.924 0 11.7076 0 10.2632V2.66082C0 1.21637 1.23636 0 2.70455 0H14.2955ZM10.2773 7.22222L10.0455 7.37427C9.19545 8.21053 7.88182 8.28655 6.95455 7.45029L6.8 7.29825L2.16364 11.5556C2.31818 11.6316 2.39545 11.6316 2.55 11.6316H2.70455H14.2955C14.45 11.6316 14.6818 11.6316 14.8364 11.5556L10.2773 7.22222ZM1.39091 2.05263C1.31364 2.20468 1.23636 2.43275 1.23636 2.66082V10.3392C1.23636 10.4912 1.23636 10.5673 1.31364 10.6433L5.87273 6.38596L1.39091 2.05263ZM15.5318 2.05263L11.1273 6.38596L15.6091 10.6433C15.6091 10.5673 15.6091 10.4912 15.6864 10.4152V10.2632V2.5848C15.6864 2.43275 15.6091 2.20468 15.5318 2.05263ZM14.2955 1.21637H2.70455C2.62727 1.21637 2.55 1.21637 2.47273 1.21637L7.72727 6.53801C8.11364 6.91813 8.65455 6.91813 9.04091 6.61403L9.11818 6.53801L14.45 1.2924C14.45 1.2924 14.3727 1.21637 14.2955 1.21637Z" fill="#0063FA"/>
</svg>
