<svg width="20" height="30" viewBox="0 0 20 30" fill="none" xmlns="http://www.w3.org/2000/svg">
<g clip-path="url(#clip0_272_559)">
<path d="M7.79999 26.1C7.79999 25.9 7.89999 25.6 8.09999 25.5C8.29999 25.3 8.49999 25.2 8.69999 25.2H10.9C11.2 25.2 11.5 25.4 11.7 25.6C11.9 25.9 11.9 26.2 11.7 26.5C11.5 26.8 11.3 26.9 10.9 26.9H8.59999C8.39999 26.9 8.09999 26.8 7.99999 26.6C7.89999 26.5 7.79999 26.3 7.79999 26.1Z" fill="#0063FA"/>
<path d="M18.8 0.7C18.4 0.3 17.8 0 17.1 0H2.3C1.7 0 1.1 0.2 0.7 0.7C0.2 1.1 0 1.7 0 2.3V27.6C0 28.2 0.2 28.8 0.7 29.3C1.1 29.7 1.7 30 2.4 30H17.2C17.8 30 18.4 29.8 18.9 29.3C19.3 28.9 19.6 28.3 19.6 27.6V2.3C19.5 1.7 19.3 1.1 18.8 0.7ZM13.6 1.8L13.3 2.7H6.2L5.9 1.8H13.6ZM17.8 27.7C17.8 28 17.5 28.3 17.2 28.3H2.3C2 28.3 1.7 28 1.7 27.7V24.1H17.7V27.7H17.8ZM17.8 22.3H1.8V2.3C1.8 2 2 1.8 2.3 1.8H4L4.7 3.9C4.8 4 4.9 4.1 5 4.3C5.2 4.4 5.3 4.5 5.5 4.5H13.9C14.1 4.5 14.3 4.4 14.4 4.3C14.6 4.2 14.7 4 14.7 3.9L15.4 1.8H17.1C17.4 1.8 17.7 2.1 17.7 2.4V22.3H17.8Z" fill="#0063FA"/>
</g>
<defs>
<clipPath id="clip0_272_559">
<rect width="19.5" height="30" fill="white"/>
</clipPath>
</defs>
</svg>
