<svg width="14" height="20" viewBox="0 0 14 20" fill="none" xmlns="http://www.w3.org/2000/svg">
<g clip-path="url(#clip0_596_86)">
<path d="M5.19922 17.4C5.19922 17.3 5.29922 17.1 5.39922 17C5.49922 16.9 5.69922 16.8 5.79922 16.8H7.29922C7.49922 16.8 7.69922 16.9 7.79922 17.1C7.89922 17.3 7.89922 17.5 7.79922 17.7C7.69922 17.9 7.49922 18 7.29922 18H5.69922C5.59922 18 5.39922 17.9 5.29922 17.8C5.29922 17.7 5.19922 17.5 5.19922 17.4Z" fill="#0063FA"/>
<path d="M12.5 0.5C12.3 0.2 11.9 0 11.4 0H1.5C1.1 0 0.7 0.1 0.5 0.5C0.1 0.7 0 1.1 0 1.5V18.4C0 18.8 0.1 19.2 0.5 19.5C0.7 19.8 1.1 20 1.6 20H11.5C11.9 20 12.3 19.9 12.6 19.5C12.9 19.2 13.1 18.8 13.1 18.4V1.5C13 1.1 12.9 0.7 12.5 0.5ZM9.1 1.2L8.9 1.8H4.1L3.9 1.2H9.1ZM11.9 18.5C11.9 18.7 11.7 18.9 11.5 18.9H1.5C1.3 18.9 1.1 18.7 1.1 18.5V16.1H11.8L11.9 18.5ZM11.9 14.9H1.2V1.5C1.2 1.3 1.3 1.2 1.5 1.2H2.6L3.1 2.6C3.2 2.7 3.2 2.7 3.3 2.9C3.5 2.9 3.5 3 3.7 3H9.3C9.4 3 9.6 2.9 9.6 2.9C9.7 2.8 9.8 2.7 9.8 2.6L10.3 1.2H11.4C11.6 1.2 11.8 1.4 11.8 1.6L11.9 14.9Z" fill="#0063FA"/>
</g>
<defs>
<clipPath id="clip0_596_86">
<rect width="13.1" height="20" fill="white"/>
</clipPath>
</defs>
</svg>
