<svg width="20" height="12" viewBox="0 0 20 12" fill="none" xmlns="http://www.w3.org/2000/svg">
<g clip-path="url(#clip0_666_168)">
<path d="M14.6 7.39998C14.1 7.39998 13.8 6.99998 13.8 6.59998C13.8 6.09998 14.2 5.79998 14.6 5.79998C15 5.79998 15.4 6.19998 15.4 6.59998C15.4 6.99998 15.1 7.39998 14.6 7.39998ZM5.4 7.39998C4.9 7.39998 4.6 6.99998 4.6 6.59998C4.6 6.09998 5 5.79998 5.4 5.79998C5.8 5.79998 6.2 6.19998 6.2 6.59998C6.2 6.99998 5.9 7.39998 5.4 7.39998ZM14.9 2.39999L16.6 -0.500015C16.7 -0.700015 16.6 -0.900015 16.5 -1.00002C16.4 -1.10002 16.1 -1.00002 16 -0.800015L14.3 2.09998C13 1.49998 11.5 1.19999 10 1.19999C8.5 1.19999 7 1.49998 5.7 2.09998L4 -0.800015C3.9 -1.00002 3.7 -1.00002 3.6 -1.00002C3.4 -0.900015 3.3 -0.600015 3.4 -0.500015L5.1 2.39999C2.2 3.99999 0.3 6.89998 0 10.3H20C19.7 6.89998 17.8 3.99999 14.9 2.39999Z" fill="white"/>
</g>
<defs>
<clipPath id="clip0_666_168">
<rect width="20" height="11.3" fill="white"/>
</clipPath>
</defs>
</svg>
