<svg width="19" height="25" viewBox="0 0 19 25" fill="none" xmlns="http://www.w3.org/2000/svg">
<path fill-rule="evenodd" clip-rule="evenodd" d="M9.50635 1.5175L8.66859 0.749957V1.88617C8.66859 3.64727 8.25815 4.89754 7.64905 5.87906C7.03346 6.87104 6.19717 7.61896 5.28514 8.35567C5.11962 8.48937 4.95117 8.62276 4.78136 8.75723L4.78128 8.75729L4.78128 8.75729C3.10945 10.0811 1.30565 11.5095 0.873355 14.3652L0.873346 14.3652L0.872921 14.3681C0.310411 18.2386 3.2827 21.2339 6.47397 22.0149L7.41666 22.2456L7.05729 21.3441C6.93246 21.0309 6.79039 20.474 6.87651 19.8534C6.93639 19.4218 7.10795 18.9449 7.49758 18.4819C7.96114 19.9364 8.77327 20.9147 9.77652 21.5152C10.9457 22.215 12.3137 22.3656 13.5574 22.2486L13.7007 22.2351L13.815 22.1475C16.4349 20.1371 18.1318 16.9654 18.1318 13.4062C18.1318 11.2382 17.5131 9.29991 16.435 7.59993L15.8408 6.66298L15.5324 7.72874C15.0557 9.37642 14.005 10.7414 12.5941 11.6609C12.9579 10.7123 13.1275 9.71001 13.1275 8.68002C13.1275 5.74468 11.2445 3.11 9.50635 1.5175ZM8.49874 6.40635C9.06413 5.49527 9.4664 4.40763 9.61034 3.03861C10.9609 4.52681 12.1275 6.55305 12.1275 8.68002C12.1275 10.071 11.782 11.3779 11.0298 12.5444L10.1785 13.8645L11.6362 13.2794C13.6314 12.4786 15.2397 10.9899 16.1095 9.0523C16.7673 10.3674 17.1318 11.8172 17.1318 13.4062C17.1318 16.5888 15.6397 19.4317 13.3205 21.2651C12.2555 21.3443 11.1785 21.1889 10.2901 20.6571C9.37824 20.1114 8.60428 19.1332 8.26029 17.4419L8.10133 16.6603L7.46712 17.144C6.43851 17.9284 6.00465 18.8608 5.886 19.7159C5.83265 20.1003 5.84359 20.4631 5.88743 20.7843C3.41144 19.8282 1.44132 17.4155 1.86231 14.5134C2.23354 12.0645 3.728 10.875 5.41638 9.53124L5.41639 9.53124L5.41654 9.53111C5.58065 9.4005 5.74659 9.26842 5.91351 9.13359C6.84131 8.38414 7.78965 7.54899 8.49874 6.40635ZM12.113 23.8923H6.88792C6.59354 23.9662 6.29917 24.1877 6.37277 24.4093C6.37277 24.7046 6.59354 24.9262 6.88792 24.9262H12.0394H12.113C12.4074 24.9262 12.6282 24.7046 12.6282 24.4093C12.6282 24.1139 12.4074 23.8923 12.113 23.8923Z" fill="inherit"/>
</svg>
