<svg width="31" height="30" viewBox="0 0 31 30" fill="none" xmlns="http://www.w3.org/2000/svg">
<path d="M9.2327 25.3106V23.237V21.4227M9.2327 25.3106H16.3577C16.9006 25.3106 17.3756 24.857 17.3756 24.3386V13.3228C17.3756 12.8044 16.9006 12.3509 16.3577 12.3509H13.3041M9.2327 25.3106H6.17913C5.63627 25.3106 5.16127 24.857 5.16127 24.3386V13.3228C5.16127 12.8044 5.63627 12.3509 6.17913 12.3509H9.2327M9.2327 25.3106V25.3754M13.3041 25.181V22.589C13.3041 21.9411 12.7613 21.4227 12.0827 21.4227H9.2327M9.2327 21.4227V21.3579M9.2327 21.4227H5.36484M13.3041 12.3509V15.5908M13.3041 12.3509H9.2327M13.3041 12.3509V12.2213M13.3041 15.5908H9.2327M13.3041 15.5908H17.3756M13.3041 15.5908V15.7204M9.2327 15.5908V12.3509M9.2327 15.5908H5.36484M9.2327 15.5908V15.7204M9.2327 12.3509V12.2213M17.0363 0.687103H20.8363L29.3184 8.72213C29.522 8.91653 29.5898 9.17573 29.5898 9.43492V27.1249C29.5898 27.9025 28.9113 28.6153 28.0291 28.6153M18.3256 5.35261L13.4398 0.687103H2.65056C1.76842 0.687103 1.08984 1.39989 1.08984 2.17747V27.1897C1.08984 27.9673 1.83627 28.6153 2.65056 28.6153H20.5648C21.447 28.6153 22.1256 27.9025 22.1256 27.1249V19.7379V9.43492C22.1256 9.17573 21.9898 8.91653 21.8541 8.72213L18.2577 5.35261" stroke="#181818"/>
</svg>
