<svg width="27" height="24" viewBox="0 0 27 24" fill="none" xmlns="http://www.w3.org/2000/svg">
<g clip-path="url(#clip0_1503_803)" fill="inherit">
<path d="M25.1675 23.6014H1.83118H25.1675ZM19.7515 12.8372H7.24711H19.7515ZM12.3445 20.1728H11.2294H12.3445ZM12.1055 23.6014V16.1861H8.68074V23.6014H5.25596C4.93738 23.6014 4.69844 23.3622 4.69844 23.0432V12.5183V12.8372H0.955078L13.4595 0.558167L25.9639 12.8372H22.3002V12.5183V23.0432C22.3002 23.3622 22.0613 23.6014 21.7427 23.6014C21.7427 23.6014 12.1055 23.6014 12.1055 23.6014ZM15.4507 16.1861V20.1728H18.3179V16.1861H15.4507Z" stroke="inherit"/>
<path d="M15.4512 16.1861H18.3184V20.1728H15.4512V16.1861Z" fill="inherit"/>
</g>
<defs>
<clipPath id="clip0_1503_803">
<rect width="27" height="24" fill="inherit"/>
</clipPath>
</defs>
</svg>
