<svg width="56" height="39" viewBox="0 0 56 39" fill="none" xmlns="http://www.w3.org/2000/svg">
<g clip-path="url(#clip0_330_992)">
<path d="M52.1812 38.9998H3.7897C1.69079 38.9998 -0.0291443 37.3016 -0.0291443 35.2228V32.4998C-0.0291443 31.9143 0.466431 31.4165 1.04946 31.4165H20.2603C20.5518 31.4165 20.8433 31.5336 21.0474 31.7386L22.4466 33.2025H32.9995C33.6117 33.2025 34.0781 33.7003 34.0781 34.2859C34.0781 34.8715 33.5825 35.3692 32.9995 35.3692H22.0094C21.7179 35.3692 21.4263 35.2521 21.2223 35.0471L19.823 33.5832H2.15722V35.2521C2.15722 36.1305 2.886 36.8625 3.81885 36.8625H52.2103C53.114 36.8625 53.8719 36.1597 53.8719 35.2521V33.5832H35.7397C35.1275 33.5832 34.6611 33.0854 34.6611 32.4998C34.6611 31.9143 35.1567 31.4165 35.7397 31.4165H54.9505C55.5627 31.4165 56.0291 31.9143 56.0291 32.4998V35.2521C56 37.3309 54.3092 38.9998 52.1812 38.9998Z" fill="#0E334F"/>
<path d="M52.3852 33.5833C51.773 33.5833 51.3066 33.0856 51.3066 32.5V3.89414C51.3066 2.95721 50.5195 2.16667 49.5867 2.16667H6.41333C5.48048 2.16667 4.69339 2.95721 4.69339 3.89414V29.3671C4.69339 29.9527 4.19781 30.4505 3.61478 30.4505C3.03175 30.4505 2.53618 29.9527 2.53618 29.3671V3.89414C2.53618 1.75676 4.28527 0 6.41333 0H49.5867C51.7147 0 53.4638 1.75676 53.4638 3.89414V32.5C53.4638 33.1149 52.9974 33.5833 52.3852 33.5833Z" fill="#0E334F"/>
<path d="M49.0036 6.20719H3.61478C3.03175 6.20719 2.53618 5.70945 2.53618 5.12386C2.53618 4.53828 3.03175 4.04053 3.61478 4.04053H49.0036C49.6158 4.04053 50.0823 4.53828 50.0823 5.12386C50.1114 5.70945 49.6158 6.20719 49.0036 6.20719Z" fill="#0E334F"/>
<path d="M22.2426 23.8335C22.0385 23.8335 21.8345 23.7457 21.6596 23.5993C21.3389 23.2772 21.3389 22.7502 21.6596 22.4574L32.912 11.1556C33.2327 10.8335 33.7574 10.8335 34.0489 11.1556C34.3696 11.4777 34.3696 12.0047 34.0489 12.2975L22.8256 23.5993C22.6507 23.7457 22.4466 23.8335 22.2426 23.8335Z" fill="#0E334F"/>
<path d="M27.2566 24.5944C27.0526 24.5944 26.8485 24.5066 26.6736 24.3602C26.3529 24.0381 26.3529 23.5111 26.6736 23.2183L33.67 16.2206C33.9906 15.8985 34.5154 15.8985 34.8069 16.2206C35.1275 16.5426 35.1275 17.0697 34.8069 17.3624L27.8105 24.3602C27.6939 24.5066 27.4607 24.5944 27.2566 24.5944Z" fill="#0E334F"/>
</g>
<defs>
<clipPath id="clip0_330_992">
<rect width="56" height="39" fill="white"/>
</clipPath>
</defs>
</svg>
