<svg width="24" height="22" viewBox="0 0 24 22" fill="none" xmlns="http://www.w3.org/2000/svg">
<g clip-path="url(#clip0_330_1126)">
<path d="M19.3 17.1H4.7C3.4 17.1 2.1 16.5 1.2 15.5C0.300003 14.5 -0.0999971 13.1 0.100003 11.8L1.5 3.8C1.8 1.6 3.7 0 6 0H18C20.3 0 22.2 1.6 22.6 3.9L24 11.9C24.2 13.3 23.8 14.6 22.9 15.6C22 16.6 20.7 17.1 19.3 17.1ZM6 1.5C4.4 1.5 3.1 2.6 2.9 4.1L1.5 12.1C1.4 13 1.7 13.9 2.3 14.6C2.9 15.3 3.8 15.7 4.7 15.7H19.4C20.3 15.7 21.2 15.3 21.8 14.6C22.4 13.9 22.7 13 22.6 12.1L21.2 4.1C20.9 2.6 19.6 1.5 18.1 1.5H6V1.5Z" fill="#0063FA"/>
<path d="M19.3 21.9998H4.7C2.1 21.9998 0 19.9998 0 17.3998V12.4998C0 12.0998 0.3 11.7998 0.7 11.7998C1.1 11.7998 1.4 12.0998 1.4 12.4998V17.3998C1.4 19.1998 2.8 20.5998 4.6 20.5998H19.3C21.1 20.5998 22.5 19.1998 22.5 17.3998V12.4998C22.5 12.0998 22.8 11.7998 23.2 11.7998C23.6 11.7998 23.9 12.0998 23.9 12.4998V17.3998C24 19.9998 21.9 21.9998 19.3 21.9998Z" fill="#0063FA"/>
<path d="M8.59999 12.1999C8.19999 12.1999 7.89999 11.8999 7.89999 11.4999V5.5999C7.89999 5.1999 8.19999 4.8999 8.59999 4.8999C8.99999 4.8999 9.29999 5.1999 9.29999 5.5999V11.4999C9.29999 11.8999 8.99999 12.1999 8.59999 12.1999Z" fill="#0063FA"/>
<path d="M10.5 6.3999H6.59999C6.19999 6.3999 5.89999 5.9999 5.89999 5.5999C5.89999 5.1999 6.19999 4.8999 6.59999 4.8999H10.5C10.9 4.8999 11.2 5.1999 11.2 5.5999C11.3 5.9999 10.9 6.3999 10.5 6.3999Z" fill="#0063FA"/>
<path d="M14.9 12.2001C14.6 12.2001 14.3 12.0001 14.2 11.7001L11.8 5.80014C11.6 5.40014 11.8 5.00014 12.2 4.80014C12.6 4.60014 13 4.80014 13.2 5.20014L15 9.40014L16.8 5.20014C17 4.80014 17.4 4.60014 17.8 4.80014C18.2 5.00014 18.4 5.40014 18.2 5.80014L15.8 11.7001C15.5 12.1001 15.2 12.2001 14.9 12.2001Z" fill="#0063FA"/>
</g>
<defs>
<clipPath id="clip0_330_1126">
<rect width="24" height="22" fill="white"/>
</clipPath>
</defs>
</svg>
