<svg width="29" height="29" viewBox="0 0 29 29" fill="none" xmlns="http://www.w3.org/2000/svg">
<path d="M14.5002 0C14.3002 0 14.2002 0.2 14.2002 0.3V3C14.2002 3.2 14.4002 3.3 14.5002 3.3C17.3002 3.3 20.2002 4.4 22.4002 6.6C24.6002 8.8 25.7002 11.6 25.7002 14.5C25.7002 14.7 25.9002 14.8 26.0002 14.8H28.7002C28.9002 14.8 29.0002 14.6 29.0002 14.5C29.0002 10.8 27.6002 7.1 24.8002 4.2C21.9002 1.4 18.2002 0 14.5002 0ZM14.8002 0.7C18.2002 0.8 21.6002 2.1 24.2002 4.7C26.8002 7.3 28.2002 10.7 28.2002 14.1H26.2002C26.1002 11.2 25.0002 8.3 22.7002 6.1C20.5002 3.9 17.6002 2.7 14.7002 2.6L14.8002 0.7Z" fill="#8C94A8"/>
<path d="M14.5002 5.40002C14.3002 5.40002 14.2002 5.60002 14.2002 5.70002V8.40002C14.2002 8.60002 14.4002 8.70002 14.5002 8.70002C16.0002 8.70002 17.4002 9.30002 18.6002 10.4C19.7002 11.5 20.3002 13 20.3002 14.5C20.3002 14.7 20.5002 14.8 20.6002 14.8H23.2002C23.3002 14.8 23.4002 14.8 23.5002 14.7C23.6002 14.6 23.6002 14.5 23.6002 14.4C23.6002 12.1 22.7002 9.80002 20.9002 8.00002C19.2002 6.30002 16.8002 5.40002 14.5002 5.40002ZM14.8002 6.10002C16.9002 6.20002 18.9002 7.00002 20.4002 8.60002C22.0002 10.2 22.8002 12.2 22.9002 14.2H20.9002C20.8002 12.7 20.2002 11.2 19.0002 10C17.8002 8.80002 16.3002 8.20002 14.8002 8.10002V6.10002Z" fill="#8C94A8"/>
<path d="M4.50039 4.09998C4.40039 4.09998 4.30039 4.09998 4.30039 4.19998C-1.39961 9.89998 -1.39961 19 4.30039 24.7C10.0004 30.4 19.1004 30.4 24.8004 24.7C24.9004 24.6 24.9004 24.4 24.8004 24.2L17.4004 17C18.7004 15.5 18.6004 13.3 17.2004 11.8C15.8004 10.4 13.5004 10.3 12.0004 11.6L4.70039 4.19998C4.70039 4.19998 4.60039 4.09998 4.50039 4.09998ZM4.50039 4.99998L11.8004 12.3C11.9004 12.4 12.1004 12.4 12.3004 12.3C13.5004 11.1 15.5004 11.1 16.8004 12.3C18.0004 13.5 18.0004 15.5 16.8004 16.8C16.7004 16.9 16.7004 17.1 16.8004 17.3L24.1004 24.6C18.7004 29.8 10.1004 29.7 4.80039 24.4C-0.59961 19 -0.69961 10.4 4.50039 4.99998Z" fill="#8C94A8"/>
</svg>
