<svg width="28" height="47" viewBox="0 0 28 47" fill="none" xmlns="http://www.w3.org/2000/svg">
<g clip-path="url(#clip0_330_1150)">
<path d="M13.8 43.9999C12.4 43.9999 11.3 42.8999 11.3 41.4999C11.3 40.0999 12.4 38.8999 13.8 38.8999C14.3 38.8999 14.7 39.2999 14.7 39.7999C14.7 40.2999 14.3 40.6999 13.8 40.6999C13.4 40.6999 13.1 40.9999 13.1 41.3999C13.1 41.7999 13.4 42.0999 13.8 42.0999C14.2 42.0999 14.5 41.7999 14.5 41.3999C14.5 40.8999 14.9 40.4999 15.4 40.4999C15.9 40.4999 16.3 40.8999 16.3 41.3999C16.3 42.7999 15.2 43.9999 13.8 43.9999Z" fill="#0E334F"/>
<path d="M23.9 47H3.6C1.6 47 0 45.3 0 43.3V3.7C0 1.7 1.6 0 3.6 0H23.9C26 0 27.6 1.6 27.6 3.7V21.1C27.6 21.6 27.2 22 26.7 22C26.2 22 25.8 21.6 25.8 21.1V3.7C25.8 2.7 25 1.8 23.9 1.8H3.6C2.6 1.8 1.8 2.6 1.8 3.7V43.3C1.8 44.3 2.6 45.2 3.6 45.2H23.9C24.9 45.2 25.8 44.3 25.8 43.3V24.5C25.8 24 26.2 23.6 26.7 23.6C27.2 23.6 27.6 24 27.6 24.5V43.3C27.6 45.3 25.9 47 23.9 47Z" fill="#0E334F"/>
<path d="M17.6 4.8H10C9.50001 4.8 9.10001 4.4 9.10001 3.9C9.10001 3.4 9.50001 3 10 3H17.5C18 3 18.4 3.4 18.4 3.9C18.5 4.4 18.1 4.8 17.6 4.8Z" fill="#0E334F"/>
<path d="M23.8 37.7H3.79999C3.29999 37.7 2.89999 37.3 2.89999 36.8V6.9C2.89999 6.4 3.29999 6 3.79999 6H23.8C24.3 6 24.7 6.4 24.7 6.9V36.8C24.7 37.3 24.3 37.7 23.8 37.7ZM4.69999 35.9H22.9V7.8H4.69999V35.9Z" fill="#0E334F"/>
<path d="M9.5 24.1998C9.4 24.1998 9.2 24.0998 9.1 23.9998C8.9 23.7998 8.9 23.3998 9.1 23.1998L16.6 15.6998C16.8 15.4998 17.2 15.4998 17.4 15.6998C17.6 15.8998 17.6 16.2998 17.4 16.4998L9.9 23.9998C9.8 24.1998 9.7 24.1998 9.5 24.1998Z" fill="#0E334F"/>
<path d="M12.9 24.8002C12.8 24.8002 12.6 24.7002 12.5 24.6002C12.3 24.4002 12.3 24.0002 12.5 23.8002L17.2 19.1002C17.4 18.9002 17.8 18.9002 18 19.1002C18.2 19.3002 18.2 19.7002 18 19.9002L13.3 24.6002C13.2 24.7002 13 24.8002 12.9 24.8002Z" fill="#0E334F"/>
</g>
<defs>
<clipPath id="clip0_330_1150">
<rect width="27.6" height="47" fill="white"/>
</clipPath>
</defs>
</svg>
