<svg width="24" height="23" viewBox="0 0 24 23" fill="none" xmlns="http://www.w3.org/2000/svg">
<g clip-path="url(#clip0_1503_901)" fill="inherit">
<path d="M2.51133 20.4343C2.97644 20.8924 2.97644 21.6255 2.51133 22.1753C2.04621 22.6335 1.30203 22.6335 0.743886 22.1753C0.278769 21.7171 0.278769 20.8924 0.743886 20.4343C1.30203 19.9761 2.04621 19.9761 2.51133 20.4343ZM21.4881 20.4343C21.9532 19.9761 22.6974 19.9761 23.2555 20.4343C23.7206 20.8924 23.7206 21.6255 23.2555 22.1753C22.7904 22.6335 22.0462 22.6335 21.4881 22.1753C20.9299 21.7171 20.9299 20.8924 21.4881 20.4343ZM2.51133 2.56572C2.04621 3.02389 1.30203 3.02389 0.743886 2.56572C0.185746 2.10756 0.278769 1.37449 0.743886 0.824689C1.209 0.274888 1.95319 0.366521 2.51133 0.824689C3.06947 1.28286 3.06947 2.01592 2.51133 2.56572ZM21.4881 2.56572C21.023 2.10756 21.023 1.37449 21.4881 0.824689C21.9532 0.274888 22.6974 0.366521 23.2555 0.824689C23.7206 1.28286 23.7206 2.10756 23.2555 2.56572C22.6974 2.93226 21.9532 2.93226 21.4881 2.56572ZM5.67412 17.4103L2.60435 20.4343L5.67412 17.4103ZM18.3253 17.4103L21.395 20.4343L18.3253 17.4103ZM5.67412 5.58963L2.51133 2.56572L5.67412 5.58963ZM18.3253 5.58963L21.395 2.56572L18.3253 5.58963Z" stroke="inherit" fill="inherit"/>
<path d="M12.5589 6.59766C12.838 6.59766 13.1171 6.59766 13.3961 6.59766C13.5822 6.59766 13.8612 6.59766 14.0473 6.59766C14.3264 6.59766 14.6054 6.59766 14.8845 6.68929C15.1636 6.78092 15.3496 6.78092 15.6287 6.96419C15.8147 7.14746 16.0938 7.33072 16.1868 7.51399C16.3729 7.78889 16.4659 8.06379 16.4659 8.33869C16.4659 8.52196 16.5589 8.79686 16.5589 8.98013C16.5589 9.25503 16.5589 9.52993 16.6519 9.80483C16.6519 10.5379 16.6519 11.3626 16.6519 12.0957C16.6519 12.3706 16.6519 12.5538 16.6519 12.8287C16.6519 13.012 16.6519 13.1953 16.6519 13.3785C16.6519 13.6534 16.5589 14.02 16.4659 14.2949C16.3729 14.5698 16.1868 14.9363 16.0008 15.1196C15.8147 15.3028 15.6287 15.3945 15.4426 15.4861C15.1636 15.4861 14.8845 15.5777 14.6054 15.5777C14.3264 15.5777 14.1403 15.6694 13.8612 15.6694C13.6752 15.6694 13.4891 15.6694 13.2101 15.6694C13.024 15.6694 12.838 15.6694 12.5589 15.6694C11.6287 15.6694 10.7915 15.6694 9.86124 15.5777C9.48914 15.5777 9.21007 15.4861 8.93101 15.4861C8.74496 15.3945 8.46589 15.3945 8.27984 15.2112C8.00077 15.0279 7.81473 14.8447 7.62868 14.5698C7.53566 14.2949 7.44263 14.02 7.34961 13.7451C7.44263 13.6534 7.44263 13.3785 7.44263 13.1953C7.44263 12.8287 7.34961 12.3706 7.34961 12.004C7.34961 11.271 7.34961 10.4463 7.34961 9.71319C7.44263 9.34666 7.44263 9.16339 7.44263 8.88849C7.44263 8.61359 7.53566 8.33869 7.53566 8.06379C7.62868 7.78889 7.7217 7.60562 7.90775 7.33072C8.0938 7.14746 8.37287 6.96419 8.65194 6.87256C8.93101 6.78092 9.21007 6.68929 9.48914 6.68929C9.76821 6.68929 9.95426 6.68929 10.2333 6.59766C10.4194 6.59766 10.6984 6.59766 10.8845 6.59766C11.2566 6.59766 11.6287 6.59766 12.0008 6.59766C12.1868 6.59766 12.3729 6.59766 12.5589 6.59766Z" fill="inherit"/>
</g>
<defs>
<clipPath id="clip0_1503_901" fill="inherit">
<rect width="24" height="23" fill="inherit"/>
</clipPath>
</defs>
</svg>
