<svg width="17" height="25" viewBox="0 0 17 25" fill="none" xmlns="http://www.w3.org/2000/svg">
<g clip-path="url(#clip0_1503_859)" fill="inherit">
<path d="M6.81512 21.8567C6.81512 22.0029 6.97549 23.0994 8.41889 23.0994C9.86229 23.0994 10.1029 22.076 10.1029 21.8567M8.09814 10.5263V3.43565M8.09814 10.5263H14.433M8.09814 10.5263H2.48493M8.09814 10.5263V17.3976M16.5179 10.307C16.7585 14.1082 16.9991 24.5614 8.49908 24.5614C-0.000921249 24.6345 0.239645 14.1813 0.480211 10.307C0.800965 5.48244 2.64531 0.365479 8.49908 0.365479C14.3529 0.365479 16.2774 5.70174 16.5179 10.307Z" stroke="inherit"/>
<path d="M6.81593 7.82157C6.81593 8.47946 6.25461 8.99116 5.6131 8.99116C4.8914 8.99116 4.33008 8.47946 4.33008 7.89467V7.82157C4.33008 7.16367 4.8914 6.72508 5.6131 6.72508C6.25461 6.72508 6.73574 7.23677 6.81593 7.82157ZM12.0282 7.82157C12.0282 8.47946 11.4669 8.99116 10.7452 8.99116C10.0235 8.99116 9.46215 8.47946 9.46215 7.82157C9.46215 7.16367 10.0235 6.65198 10.7452 6.65198C11.4669 6.65198 12.0282 7.23677 12.0282 7.82157ZM6.81593 13.2309C6.81593 13.8888 6.25461 14.4005 5.6131 14.4005C4.8914 14.4005 4.33008 13.8888 4.33008 13.304V13.2309C4.33008 12.573 4.8914 12.1344 5.6131 12.1344C6.25461 12.1344 6.73574 12.6461 6.81593 13.2309ZM12.0282 13.2309C12.0282 13.8888 11.4669 14.4005 10.7452 14.4005C10.0235 14.4005 9.46215 13.8888 9.46215 13.2309C9.46215 12.573 10.0235 12.0613 10.7452 12.0613C11.4669 12.0613 12.0282 12.573 12.0282 13.2309Z" fill="inherit"/>
</g>
<defs>
<clipPath id="clip0_1503_859">
<rect width="17" height="25" fill="inherit"/>
</clipPath>
</defs>
</svg>
