<svg width="25" height="24" viewBox="0 0 25 24" fill="none" xmlns="http://www.w3.org/2000/svg">
<g clip-path="url(#clip0_1503_785)" fill="inherit">
<path d="M19.4519 18.3937C17.2698 18.6457 15.5242 18.6457 15.1501 18.7087M10.4743 18.6457C10.0379 18.6457 8.66632 18.6457 6.92069 18.5197L10.4743 18.6457ZM3.42941 12.4094C3.42941 12.0315 3.42941 11.4646 3.36707 11.0866C3.30473 9.95275 3.30473 8.75589 3.36707 7.62204C3.36707 7.24408 3.36707 6.86613 3.42941 6.42519C3.42941 5.92125 3.49176 5.4803 3.5541 4.97637C3.5541 4.40944 3.61645 3.9055 3.80348 3.33857C3.92817 2.83463 4.1152 2.3307 4.48926 1.88975C4.86333 1.38582 5.36208 1.07085 5.98552 0.818886C6.48428 0.62991 7.04537 0.503925 7.54413 0.440933C8.04288 0.377941 8.47929 0.377941 8.97804 0.314949C9.41445 0.314949 9.85086 0.251957 10.2873 0.251957C10.9731 0.251957 11.6588 0.188965 12.407 0.188965C12.781 0.188965 13.1551 0.188965 13.5292 0.188965C14.0903 0.188965 14.589 0.188965 15.1501 0.251957C15.5865 0.251957 16.0229 0.314949 16.4593 0.314949C17.0204 0.377941 17.5815 0.377941 18.205 0.503926C18.7037 0.62991 19.2025 0.755894 19.6389 1.00786C20.0753 1.25983 20.5117 1.63778 20.7611 2.07873C21.0728 2.58267 21.1975 3.0866 21.3222 3.65353C21.3845 4.09448 21.4469 4.53542 21.5092 4.97637C21.5716 5.4803 21.5716 6.04723 21.6339 6.55117C21.6962 7.68503 21.6962 8.81889 21.6962 9.95275C21.6962 10.3307 21.6962 10.7716 21.6962 11.1496C21.6962 11.6535 21.6962 12.2205 21.6339 12.7244L3.42941 12.4094Z" stroke="inherit"/>
<path d="M10.4746 9.95275V9.07086H14.4023V9.95275H10.4746Z" fill="inherit"/>
<path d="M3.61674 12.2205C1.74642 12.2205 0.3125 13.1653 0.3125 13.7953V21.1653C0.3125 23.1811 2.12048 23.622 3.61674 23.622C5.23769 23.622 6.85863 23.0551 6.85863 21.1653V13.7953C6.85863 13.1653 5.54941 12.2205 3.61674 12.2205Z" stroke="inherit"/>
<path d="M1.93266 19.9685C1.74563 19.9685 1.55859 19.7795 1.55859 19.5276V16.5039C1.55859 16.252 1.74563 16.063 1.93266 16.063H5.17455C5.36159 16.063 5.54862 16.252 5.54862 16.5039V19.5276C5.54862 19.7795 5.36159 19.9685 5.17455 19.9685H1.93266Z" stroke="inherit"/>
<path d="M23.9417 23.2441H22.8819C22.4455 23.2441 22.0714 22.9291 22.0714 22.5512V13.5433C22.0714 13.1024 22.4455 12.9134 22.8819 12.9134H23.9417C24.3782 12.9134 24.7522 13.1024 24.7522 13.5433V22.5512C24.6899 22.9291 24.3158 23.2441 23.9417 23.2441ZM21.2609 23.2441H20.2011C19.7647 23.2441 19.3906 22.9291 19.3906 22.5512V13.5433C19.3906 13.1024 19.7647 12.9134 20.2011 12.9134H21.2609C21.6974 12.9134 22.0714 13.1024 22.0714 13.5433V22.5512C22.0714 22.9291 21.6974 23.2441 21.2609 23.2441Z" stroke="inherit"/>
<path d="M14.9013 17.8898C14.9637 19.0866 15.026 22.2992 12.6569 22.2992C10.2879 22.2992 10.3502 19.0866 10.4125 17.8898C10.4749 16.378 11.036 14.8032 12.6569 14.8032C14.2779 14.8032 14.839 16.441 14.9013 17.8898Z" stroke="inherit"/>
<path d="M12.6569 15.748V17.9528H14.0285H12.6569V15.748ZM11.3477 17.9528H12.7192V20.0945V17.9528H11.3477Z" stroke="inherit"/>
</g>
<defs>
<clipPath id="clip0_1503_785">
<rect width="25" height="24" fill="inherit"/>
</clipPath>
</defs>
</svg>
