<svg width="24" height="24" viewBox="0 0 24 24" fill="none" xmlns="http://www.w3.org/2000/svg">
<path d="M12 3.2002C7.1 3.2002 3.2 7.1002 3.2 12.0002C3.2 16.9002 7.1 20.8002 12 20.8002C16.9 20.8002 20.8 16.9002 20.8 12.0002C20.8 7.1002 16.9 3.2002 12 3.2002ZM12 4.8002C16 4.8002 19.2 8.0002 19.2 12.0002C19.2 16.0002 16 19.2002 12 19.2002C8 19.2002 4.8 16.0002 4.8 12.0002C4.8 8.0002 8 4.8002 12 4.8002Z" fill="#0063FA"/>
<path d="M11.2 7.1999V11.9999C11.2 12.3999 11.6 12.7999 12 12.7999H16.8C17.2 12.7999 17.6 12.3999 17.6 11.9999C17.6 11.5999 17.2 11.1999 16.8 11.1999H12.8V7.1999C12.8 6.7999 12.4 6.3999 12 6.3999C11.6 6.3999 11.2 6.7999 11.2 7.1999Z" fill="#0063FA"/>
<path d="M24 12.0002C24 12.4002 23.6 12.8002 23.2 12.8002C22.8 12.8002 22.4 12.4002 22.4 12.0002C22.4 11.6002 22.8 11.2002 23.2 11.2002C23.6 11.2002 24 11.6002 24 12.0002Z" fill="#0063FA"/>
<path d="M23.6 15.0999C23.5 15.4999 23 15.7999 22.6 15.6999C22.2 15.5999 21.9 15.0999 22 14.6999C22.1 14.2999 22.6 13.9999 23 14.0999C23.5 14.1999 23.7 14.6999 23.6 15.0999Z" fill="#0063FA"/>
<path d="M22.4 17.9998C22.2 18.3998 21.7 18.4998 21.3 18.2998C20.9 18.0998 20.8 17.5998 21 17.1998C21.2 16.7998 21.7 16.6998 22.1 16.8998C22.5 17.0998 22.6 17.5998 22.4 17.9998Z" fill="#0063FA"/>
<path d="M20.5 20.4998C20.2 20.7998 19.7 20.7998 19.4 20.4998C19.1 20.1998 19.1 19.6998 19.4 19.3998C19.7 19.0998 20.2 19.0998 20.5 19.3998C20.8 19.6998 20.8 20.1998 20.5 20.4998Z" fill="#0063FA"/>
<path d="M18 22.3999C17.6 22.5999 17.1 22.4999 16.9 22.0999C16.7 21.6999 16.8 21.1999 17.2 20.9999C17.6 20.7999 18.1 20.8999 18.3 21.2999C18.5 21.6999 18.4 22.1999 18 22.3999Z" fill="#0063FA"/>
<path d="M15.1 23.6001C14.7 23.7001 14.2 23.5001 14.1 23.0001C14 22.6001 14.2 22.1001 14.7 22.0001C15.1 21.9001 15.6 22.1001 15.7 22.6001C15.8 23.0001 15.5 23.5001 15.1 23.6001Z" fill="#0063FA"/>
<path d="M12 23.9999C11.6 23.9999 11.2 23.5999 11.2 23.1999C11.2 22.7999 11.6 22.3999 12 22.3999C12.4 22.3999 12.8 22.7999 12.8 23.1999C12.8 23.5999 12.4 23.9999 12 23.9999Z" fill="#0063FA"/>
<path d="M8.90001 23.5999C8.50001 23.4999 8.20001 22.9999 8.30001 22.5999C8.40001 22.1999 8.90001 21.8999 9.30001 21.9999C9.70001 22.0999 10 22.5999 9.90001 22.9999C9.80001 23.4999 9.30001 23.6999 8.90001 23.5999Z" fill="#0063FA"/>
<path d="M21 6.8001C20.8 6.4001 20.9 5.9001 21.3 5.7001C21.7 5.5001 22.2 5.6001 22.4 6.0001C22.6 6.4001 22.5 6.9001 22.1 7.1001C21.7 7.3001 21.2 7.2001 21 6.8001Z" fill="#0063FA"/>
<path d="M22 9.2999C21.9 8.8999 22.1 8.3999 22.6 8.2999C23 8.1999 23.5 8.3999 23.6 8.8999C23.7 9.2999 23.5 9.7999 23 9.8999C22.6 9.9999 22.2 9.6999 22 9.2999Z" fill="#0063FA"/>
<path d="M9.3 22C4.9 20.8 1.6 16.8 1.6 12C1.6 6.3 6.3 1.6 12 1.6C14.9 1.6 17.5 2.8 19.4 4.7C19.7 5 20 5 20.3 4.9C20.6 4.8 20.8 4.5 20.8 4.2V0.8C20.8 0.4 20.4 0 20 0C19.6 0 19.2 0.4 19.2 0.8V2.4C17.2 0.9 14.7 0 12 0C5.4 0 0 5.4 0 12C0 17.5 3.8 22.2 8.9 23.6C9.3 23.7 9.8 23.5 9.9 23C10 22.6 9.7 22.2 9.3 22Z" fill="#0063FA"/>
</svg>
