<svg width="27" height="16" viewBox="0 0 27 16" fill="none" xmlns="http://www.w3.org/2000/svg">
<path d="M13.1444 15.2003H14.7444C14.7444 15.2003 15.2444 15.2003 15.4444 14.9003C15.6444 14.6003 15.5444 14.2003 15.5444 14.2003C15.5444 14.2003 15.5444 12.0003 16.4444 11.8003C17.3444 11.5003 18.7444 14.0003 20.1444 14.8003C21.0444 15.5003 21.9444 15.3003 21.9444 15.3003H25.6444C25.6444 15.3003 27.4444 15.2003 26.5444 13.7003C26.5444 13.6003 26.0444 12.6003 23.9444 10.6003C21.6444 8.40034 22.0444 8.80034 24.7444 5.20034C26.3444 3.00034 27.0444 1.70034 26.9444 1.10034C26.8444 0.500342 25.4444 0.800342 25.4444 0.800342H21.3444C21.3444 0.800342 21.0444 0.800342 20.8444 0.900342C20.7444 1.00034 20.5444 1.40034 20.5444 1.40034C20.5444 1.40034 19.8444 3.00034 19.0444 4.50034C17.2444 7.60034 16.6444 7.70034 16.3444 7.50034C15.6444 7.00034 15.8444 5.70034 15.8444 4.80034C15.8444 1.80034 16.3444 0.600342 15.0444 0.200342C14.5444 0.100342 14.2444 0.100342 13.1444 0.100342C11.6444 0.100342 10.5444 0.100342 9.94444 0.400342C9.24444 0.700342 9.04444 1.20034 9.14444 1.20034C9.44444 1.20034 9.94444 1.30034 10.2444 1.90034C10.5444 2.40034 10.5444 3.70034 10.5444 3.70034C10.5444 3.70034 10.8444 7.10034 10.0444 7.60034C9.54444 7.90034 8.94444 7.30034 7.34444 4.50034C6.54444 3.00034 5.84444 1.50034 5.84444 1.50034C5.84444 1.50034 5.44444 1.10034 5.24444 0.800342C5.14444 0.700342 4.64444 0.700342 4.64444 0.700342H0.844444C0.844444 0.700342 0.144444 0.700342 0.0444444 1.00034C-0.0555556 1.10034 0.0444444 1.70034 0.0444444 1.70034C0.0444444 1.70034 3.04444 8.70034 6.44444 12.3003C9.44444 15.3003 13.1444 15.2003 13.1444 15.2003Z" fill="white"/>
</svg>
