<svg xmlns="http://www.w3.org/2000/svg"><defs><clipPath id="a"><path fill="#fff" d="M0 0h134.9v40H0z"/></clipPath><clipPath id="a"><path fill="#fff" d="M0 0h44.6v45H0z"/></clipPath><clipPath id="a"><path fill="#fff" d="M0 0h24v22H0z"/></clipPath><clipPath id="a"><path fill="#fff" d="M0 0h56v39H0z"/></clipPath><clipPath id="a"><path fill="#fff" d="M0 0h23.8v26H0z"/></clipPath><clipPath id="a"><path fill="#fff" d="M0 0h27.6v47H0z"/></clipPath><clipPath id="a"><path fill="#fff" d="M0 0h52v39.3H0z"/></clipPath><clipPath id="a"><path fill="#fff" d="M0 0h24v22H0z"/></clipPath><clipPath id="a"><path fill="#fff" d="M0 0h19.5v30H0z"/></clipPath></defs><symbol id="apple" viewBox="0 0 135 40"><g clip-path="url(#a)"><path d="M130.2 0H4.7C2.1 0 0 2.1 0 4.7v30.5C0 37.9 2.1 40 4.7 40h125.5c2.6 0 4.7-2.1 4.7-4.7V4.7c0-2.6-2.1-4.7-4.7-4.7zm0 39.1H4.7c-2.1 0-3.8-1.7-3.8-3.8V4.7C.9 2.6 2.6.9 4.7.9h125.5c2.1 0 3.8 1.7 3.8 3.8v30.5c0 2.2-1.7 3.9-3.8 3.9z" fill="#fff"/><path d="M30.1 19.8c0-3.2 2.6-4.8 2.8-4.9-1.5-2.2-3.9-2.5-4.7-2.5-2-.2-3.9 1.2-4.9 1.2-1 0-2.6-1.2-4.2-1.1-2.1 0-4.1 1.3-5.2 3.2-2.3 3.9-.6 9.7 1.6 12.9 1.1 1.6 2.4 3.3 4 3.2 1.6-.1 2.2-1 4.2-1 1.9 0 2.5 1 4.2 1 1.7 0 2.8-1.6 3.9-3.1 1.3-1.8 1.8-3.5 1.8-3.6-.1-.2-3.4-1.5-3.5-5.3zM26.9 10.3c.9-1.1 1.5-2.6 1.3-4.1-1.3.1-2.8.9-3.8 1.9-.8.9-1.5 2.5-1.3 3.9 1.5.2 2.9-.6 3.8-1.7z" stroke="#fff" stroke-miterlimit="10"/><path d="M53.7 31.5h-2.3l-1.2-3.9h-4.3l-1.2 3.9h-2.2l4.3-13.3h2.6l4.3 13.3zM49.8 26l-1.1-3.5c-.1-.4-.3-1.2-.7-2.5-.1.6-.3 1.4-.6 2.5L46.2 26h3.6zM64.7 26.6c0 1.6-.4 2.9-1.3 3.9-.8.8-1.8 1.3-3 1.3-1.3 0-2.2-.5-2.7-1.4v5h-2.1V25.1c0-1 0-2.1-.1-3.2h1.9l.1 1.5c.7-1.1 1.8-1.7 3.2-1.7 1.1 0 2.1.4 2.8 1.3.8.9 1.2 2.1 1.2 3.6zm-2.2.1c0-.9-.2-1.7-.6-2.3-.5-.6-1.1-.9-1.9-.9-.5 0-1 .2-1.4.5-.4.4-.7.8-.8 1.4-.1.3-.1.5-.1.6v1.6c0 .7.2 1.3.6 1.8.4.5 1 .7 1.7.7.8 0 1.4-.3 1.9-.9.4-.7.6-1.5.6-2.5zM75.7 26.6c0 1.6-.4 2.9-1.3 3.9-.8.8-1.8 1.3-3 1.3-1.3 0-2.2-.5-2.7-1.4v5h-2.1V25.1c0-1 0-2.1-.1-3.2h1.9l.1 1.5c.7-1.1 1.8-1.7 3.2-1.7 1.1 0 2.1.4 2.8 1.3.8.9 1.2 2.1 1.2 3.6zm-2.2.1c0-.9-.2-1.7-.6-2.3-.5-.6-1.1-.9-1.9-.9-.5 0-1 .2-1.4.5-.4.4-.7.8-.8 1.4-.1.3-.1.5-.1.6v1.6c0 .7.2 1.3.6 1.8.4.5 1 .7 1.7.7.8 0 1.4-.3 1.9-.9.4-.7.6-1.5.6-2.5zM88 27.8c0 1.1-.4 2.1-1.2 2.8-.9.8-2.1 1.2-3.6 1.2-1.4 0-2.6-.3-3.4-.8l.5-1.8c.9.6 2 .8 3.1.8.8 0 1.4-.2 1.9-.5.4-.4.7-.8.7-1.5 0-.5-.2-1-.6-1.4-.4-.4-1-.7-1.8-1-2.3-.9-3.5-2.1-3.5-3.8 0-1.1.4-2 1.2-2.7.8-.7 1.9-1 3.3-1 1.2 0 2.2.2 3 .6l-.6 1.7c-.8-.4-1.6-.6-2.6-.6-.8 0-1.3.2-1.8.6-.4.3-.5.7-.5 1.2s.2 1 .6 1.3c.4.3 1 .7 1.9 1 1.1.5 2 1 2.5 1.6.7.6.9 1.4.9 2.3zM95.1 23.5h-2.3v4.7c0 1.2.4 1.8 1.2 1.8.4 0 .7 0 .9-.1l.1 1.6c-.4.2-1 .2-1.7.2-.8 0-1.5-.3-2-.8s-.7-1.4-.7-2.6v-4.8h-1.4v-1.6h1.4v-1.8l2.1-.6v2.4H95l.1 1.6zM105.7 26.6c0 1.5-.4 2.7-1.3 3.6-.9 1-2.1 1.5-3.5 1.5s-2.5-.5-3.4-1.4c-.8-.9-1.3-2.1-1.3-3.5 0-1.5.4-2.7 1.3-3.7.9-.9 2-1.4 3.5-1.4 1.4 0 2.5.5 3.4 1.4.9.9 1.3 2.1 1.3 3.5zm-2.2.1c0-.9-.2-1.6-.6-2.3-.4-.8-1.1-1.1-1.9-1.1-.9 0-1.5.4-2 1.1-.4.6-.6 1.4-.6 2.3 0 .9.2 1.6.6 2.3.5.8 1.1 1.1 1.9 1.1.8 0 1.5-.4 1.9-1.2.5-.6.7-1.3.7-2.2zM112.6 23.8c-.2 0-.4-.1-.7-.1-.8 0-1.3.3-1.7.9-.4.5-.5 1.1-.5 1.9v5h-2.1v-6.6c0-1.1 0-2.1-.1-3h1.9l.1 1.8h.1c.2-.6.6-1.1 1.1-1.5.5-.3 1-.5 1.5-.5h.5l-.1 2.1zM122.2 26.3c0 .4 0 .7-.1 1h-6.4c0 .9.3 1.7.9 2.2.5.4 1.2.7 2.1.7.9 0 1.8-.1 2.6-.5l.3 1.5c-.9.4-2 .6-3.2.6-1.5 0-2.7-.4-3.5-1.3-.8-.9-1.3-2.1-1.3-3.5s.4-2.7 1.2-3.6c.8-1 1.9-1.5 3.4-1.5 1.4 0 2.4.5 3.1 1.5.6.6.9 1.7.9 2.9zm-2.1-.6c0-.6-.1-1.2-.4-1.6-.4-.6-.9-.9-1.7-.9-.7 0-1.3.3-1.7.9-.4.5-.6 1-.6 1.7l4.4-.1zM43.4 7.3c.4-.3 1.1-.5 1.9-.5 1.3 0 2.1.7 2.1 1.6 0 .8-.6 1.4-1.3 1.6.9.1 1.6.7 1.6 1.6 0 1.4-1.3 1.9-2.5 1.9-.6 0-1.3-.1-1.9-.4l.3-.9c.3.2 1 .4 1.5.4.8 0 1.3-.4 1.3-1 0-.8-.8-1-1.6-1h-.5v-1h.5c.8 0 1.3-.4 1.3-1 0-.5-.4-.9-1.1-.9-.5 0-1 .2-1.4.4l-.2-.8zM52.9 12.3c0 .4 0 .8.1 1.1h-1.1l-.1-.5c-.3.4-.8.6-1.4.6-1 0-1.5-.7-1.5-1.4 0-1.2 1.1-1.8 2.8-1.8v-.1c0-.3-.1-.8-1-.8-.5 0-1 .1-1.3.4l-.2-.8c.3-.2 1-.4 1.7-.4 1.5 0 2 1 2 2v1.7zm-1.2-1.2c-.8 0-1.7.2-1.7.9 0 .5.3.7.7.7.5 0 .8-.3.9-.6v-1h.1zM57.8 8.7v.9h-1.9v3.8h-1.2V8.7h3.1zM59.1 10.3V8.7h1l.1.7c.3-.5.9-.8 1.6-.8 1.1 0 2 .9 2 2.4 0 1.7-1.1 2.5-2.2 2.5-.6 0-1.1-.3-1.3-.6v2.4h-1.2v-5zm1.2 1.2v.3c.1.5.5.8 1.1.8.8 0 1.2-.6 1.2-1.6 0-.8-.4-1.5-1.2-1.5-.5 0-1 .4-1.1.9v1.1zM66.1 8.7l.8 2.5.3.9.3-.9.7-2.5h1.3l-1.2 3.2c-.7 1.8-1.1 2.6-1.6 3-.5.4-1 .6-1.3.6l-.3-1c.2 0 .4-.2.7-.3.2-.1.5-.4.7-.7 0-.1.1-.2.1-.2s0-.1-.1-.2l-1.7-4.3 1.3-.1zM71.2 10.6h.6c.7 0 1-.3 1-.6s-.3-.6-.9-.6c-.4 0-.8.1-1.2.3l-.3-.7c.5-.3 1.2-.5 1.8-.5.8 0 1.8.3 1.8 1.3 0 .6-.6 1-1 1.1.6.1 1.3.4 1.3 1.1 0 1.1-1.2 1.4-2.2 1.4-.6 0-1.2-.1-1.7-.4l.3-.8c.3.2.8.3 1.3.3.7 0 1-.3 1-.6 0-.5-.5-.7-1.2-.7h-.6v-.6zM76.9 8.7v1.7c0 .7 0 1.3-.1 1.9.3-.6.4-.9.6-1.4l1.2-2.2H80v4.7h-1v-1.7c0-.8 0-1.1.1-2-.2.6-.4.9-.6 1.4-.4.7-.8 1.6-1.2 2.3h-1.4V8.7h1zM85.4 8.7v.9H84v3.8h-1.2V9.6h-1.4v-.9h4zM87.5 11.4c0 .9.7 1.2 1.5 1.2.6 0 .9-.1 1.3-.2l.2.8c-.4.2-1 .3-1.7.3-1.5 0-2.4-.9-2.4-2.4 0-1.3.8-2.5 2.3-2.5 1.5 0 2 1.3 2 2.3v.5h-3.2zm2.1-.8c0-.4-.2-1.2-1-1.2-.7 0-1.1.7-1.1 1.2h2.1zM94.8 8.8c.4-.1 1.1-.1 1.7-.1.8 0 2.2.1 2.2 1.2 0 .6-.5.9-1 1 .7.1 1.2.5 1.2 1.2 0 1.3-1.7 1.4-2.6 1.4-.6 0-1.2 0-1.5-.1V8.8zm1.1 3.9h.6c.5 0 1.2-.1 1.2-.7 0-.5-.5-.7-1.3-.7h-.5v1.4zm.1-2.1h.5c.6 0 1.1-.2 1.1-.6 0-.4-.3-.6-1-.6H96v1.2z" fill="#fff"/></g></symbol><symbol id="arrow" viewBox="0 0 14 14"><path d="M.1 11.1c0 .1 0 .1 0 0 0 .1 0 .1 0 0V14l14-7.1L0 0v2.8c1 1 1.6 2.5 1.6 4.2 0 .7-.1 1.4-.3 2.1-.3.8-.7 1.5-1.2 2zm0-8.2c-.1-.1-.1-.1 0 0-.1-.1-.1-.1 0 0z" fill="#08FF8A"/></symbol><symbol id="footer_logo" viewBox="0 0 150 28"><path d="M18 16v8.4c-.6.6-1.3 1.1-2.1 1.5-.7.4-1.5.7-2.4 1-.9.3-2 .5-3.1.5-1.4 0-2.7-.3-3.9-.8-1.2-.5-2.3-1.3-3.3-2.2-1-.9-1.7-2-2.3-3.3-.6-1.3-.9-2.6-.9-4 0-1.3.3-2.6.8-3.9C1.5 12 2.2 11 3.1 10c.9-1 2-1.7 3.3-2.3 1.3-.6 2.6-.9 4-.9 1.6 0 3.1.3 4.3.9 1.3.6 2.3 1.5 3.3 2.5 0 0-.1.1-.4.3-.3.2-.6.4-.9.7-.4.3-.8.6-1.3.9-.6-.6-1.3-1.1-2.2-1.4-.9-.3-1.8-.5-2.8-.5-.8 0-1.7.2-2.5.5-.8.4-1.5.9-2.2 1.5-.6.7-1.2 1.5-1.6 2.3-.4.8-.6 1.7-.6 2.7 0 .9.2 1.7.5 2.5.4.8.9 1.6 1.5 2.2.6.6 1.4 1.2 2.2 1.6.8.4 1.7.6 2.7.6.8 0 1.5-.1 2.3-.3.7-.2 1.4-.5 2-.9v-3.4h-4.2V16H18zM77.8 6.8h3.5v20.7L67.5 14.7v12.8H64V6.8l13.8 12.8V6.8zM100.2 24v3.5H86.4V6.8h3.5V24h10.3zM108.8 6.9h-3.4v20.6h3.4V6.9zM127.7 6.8h3.5v20.7l-13.8-12.8v12.8H114V6.8l13.7 12.8V6.8zM136.3 6.9h13.8v3.4h-13.8V6.9zm12.3 12h-12.2v-3.4h12.2v3.4zM136.3 24h13.8v3.4h-13.8V24z" fill="#fff"/><path d="M61.5 16.5L45.4 0l-3.5 22.8 4-1.3v-.1c.9-1.7 2.7-3.3 5.1-4 2.4-.8 4.8-.6 6.5.3l4-1.2zm-11.6-2.4c-1.2.4-2.3.9-3.3 1.6l1.1-8.4 5.8 6.2c-1.1 0-2.4.2-3.6.6z" fill="#2EFFBB"/><path d="M34.7 19a6.3 6.3 0 0 0 4.1-5.9c0-3.5-2.8-6.3-6.3-6.3h-9.4v3.4h9.3c1.6 0 2.9 1.3 2.9 2.9 0 1.6-1.3 2.9-2.9 2.9h-9.3v11.5h3.4v-8h4.4l4.4 8h3.9L34.7 19z" fill="#fff"/><path d="M46.6 15.7c-2.7 1.8-4.4 4.4-4.7 7.1l3.9-1.2v-.1l.8-5.8zM57.6 17.8l3.9-1.2c-1.8-2-4.7-3.1-7.9-3l4 4.2c-.1-.1 0 0 0 0z" fill="#00FF64"/></symbol><symbol id="google" viewBox="0 0 135 40"><path d="M130 .8c2.3 0 4.2 1.9 4.2 4.2v30c0 2.3-1.9 4.2-4.2 4.2H5C2.7 39.2.8 37.3.8 35V5C.8 2.7 2.7.8 5 .8h125zm0-.8H5C2.3 0 0 2.3 0 5v30c0 2.8 2.3 5 5 5h125c2.8 0 5-2.3 5-5V5c0-2.7-2.2-5-5-5z" fill="#fff"/><path d="M68.1 21.8c-2.4 0-4.3 1.8-4.3 4.3 0 2.4 1.9 4.3 4.3 4.3s4.3-1.8 4.3-4.3c0-2.6-1.9-4.3-4.3-4.3zm0 6.8c-1.3 0-2.4-1.1-2.4-2.6s1.1-2.6 2.4-2.6c1.3 0 2.4 1 2.4 2.6 0 1.5-1.1 2.6-2.4 2.6zm-9.3-6.8c-2.4 0-4.3 1.8-4.3 4.3 0 2.4 1.9 4.3 4.3 4.3s4.3-1.8 4.3-4.3c0-2.6-1.9-4.3-4.3-4.3zm0 6.8c-1.3 0-2.4-1.1-2.4-2.6s1.1-2.6 2.4-2.6c1.3 0 2.4 1 2.4 2.6 0 1.5-1.1 2.6-2.4 2.6zm-11.1-5.5v1.8H52c-.1 1-.5 1.8-1 2.3-.6.6-1.6 1.3-3.3 1.3-2.7 0-4.7-2.1-4.7-4.8 0-2.7 2.1-4.8 4.7-4.8 1.4 0 2.5.6 3.3 1.3l1.3-1.3c-1.1-1-2.5-1.8-4.5-1.8-3.6 0-6.7 3-6.7 6.6 0 3.6 3.1 6.6 6.7 6.6 2 0 3.4-.6 4.6-1.9 1.2-1.2 1.6-2.9 1.6-4.2 0-.4 0-.8-.1-1.1h-6.2zm45.4 1.4c-.4-1-1.4-2.7-3.6-2.7s-4 1.7-4 4.3c0 2.4 1.8 4.3 4.2 4.3 1.9 0 3.1-1.2 3.5-1.9l-1.4-1c-.5.7-1.1 1.2-2.1 1.2s-1.6-.4-2.1-1.3l5.7-2.4-.2-.5zm-5.8 1.4c0-1.6 1.3-2.5 2.2-2.5.7 0 1.4.4 1.6.9l-3.8 1.6zM82.6 30h1.9V17.5h-1.9V30zm-3-7.3c-.5-.5-1.3-1-2.3-1-2.1 0-4.1 1.9-4.1 4.3s1.9 4.2 4.1 4.2c1 0 1.8-.5 2.2-1h.1v.6c0 1.6-.9 2.5-2.3 2.5-1.1 0-1.9-.8-2.1-1.5l-1.6.7c.5 1.1 1.7 2.5 3.8 2.5 2.2 0 4-1.3 4-4.4V22h-1.8v.7zm-2.2 5.9c-1.3 0-2.4-1.1-2.4-2.6s1.1-2.6 2.4-2.6c1.3 0 2.3 1.1 2.3 2.6s-1 2.6-2.3 2.6zm24.4-11.1h-4.5V30h1.9v-4.7h2.6c2.1 0 4.1-1.5 4.1-3.9s-2-3.9-4.1-3.9zm.1 6h-2.7v-4.3h2.7c1.4 0 2.2 1.2 2.2 2.1-.1 1.1-.9 2.2-2.2 2.2zm11.5-1.8c-1.4 0-2.8.6-3.3 1.9l1.7.7c.4-.7 1-.9 1.7-.9 1 0 1.9.6 2 1.6v.1c-.3-.2-1.1-.5-1.9-.5-1.8 0-3.6 1-3.6 2.8 0 1.7 1.5 2.8 3.1 2.8 1.3 0 1.9-.6 2.4-1.2h.1v1h1.8v-4.8c-.2-2.2-1.9-3.5-4-3.5zm-.2 6.9c-.6 0-1.5-.3-1.5-1.1 0-1 1.1-1.3 2-1.3.8 0 1.2.2 1.7.4-.2 1.2-1.2 2-2.2 2zm10.5-6.6l-2.1 5.4h-.1l-2.2-5.4h-2l3.3 7.6-1.9 4.2h1.9l5.1-11.8h-2zm-16.8 8h1.9V17.5h-1.9V30z" fill="#fff"/><path d="M10.4 7.5c-.3.3-.4.8-.4 1.4V31c0 .6.2 1.1.5 1.4l.1.1L23 20.1v-.2L10.4 7.5z" stroke="#fff" stroke-miterlimit="10"/><path d="M27 24.3l-4.1-4.1V19.9l4.1-4.1.1.1 4.9 2.8c1.4.8 1.4 2.1 0 2.9l-5 2.7z" stroke="#fff" stroke-miterlimit="10"/><path d="M27.1 24.2L22.9 20 10.4 32.5c.5.5 1.2.5 2.1.1l14.6-8.4zM27.1 15.8L12.5 7.5c-.9-.5-1.6-.4-2.1.1L22.9 20l4.2-4.2z" stroke="#fff" stroke-miterlimit="10"/><path opacity=".12" d="M32 21.3l-5 2.8.1.1 4.9-2.8c.7-.4 1-.9 1-1.4 0 .5-.4.9-1 1.3z" fill="#000" stroke="#fff" stroke-miterlimit="10"/><path d="M42.1 14.3h-.7v-2h.6c.5-.4.8-1.2.8-2.3V7h4v5.3h.7v2h-.7V13h-4.6v1.3h-.1zm1.4-4.3c0 .9-.2 1.7-.6 2.3h3V7.7h-2.5V10h.1zM53.4 12.2c-.6.6-1.3.9-2.2.9-.9 0-1.6-.3-2.2-.9-.6-.6-.9-1.3-.9-2.2 0-.9.3-1.6.9-2.2.6-.6 1.3-.9 2.2-.9.9 0 1.6.3 2.2.9.6.6.9 1.3.9 2.2 0 .9-.3 1.6-.9 2.2zm-3.8-.5c.4.4 1 .7 1.6.7.6 0 1.2-.2 1.6-.7.4-.4.7-1 .7-1.7s-.2-1.3-.7-1.7c-.4-.4-1-.7-1.6-.7-.6 0-1.2.2-1.6.7-.4.4-.7 1-.7 1.7s.2 1.3.7 1.7zM58.2 13.1c-.9 0-1.6-.3-2.2-.9-.6-.6-.9-1.3-.9-2.2 0-.9.3-1.6.9-2.2.6-.6 1.3-.9 2.2-.9.9 0 1.6.3 2.2 1l-.5.5c-.4-.5-1-.8-1.7-.8s-1.2.2-1.7.7c-.5.4-.7 1-.7 1.7s.2 1.3.7 1.7c.4.4 1 .7 1.7.7s1.3-.3 1.8-.9l.5.5c-.3.3-.6.6-1 .8-.4.2-.8.3-1.3.3zM63.7 13h-.8V7.7h-1.7V7h4.1v.7h-1.7V13h.1zM70.6 7l-2.3 5.1c-.3.7-.8 1.1-1.4 1.1-.2 0-.4 0-.6-.1l.2-.7c.1.1.3.1.4.1.2 0 .3 0 .4-.1.1-.1.2-.2.3-.4l.2-.5-2-4.4h.9l1.5 3.4L69.7 7h.9zM71.5 13V7h4.3v6H75V7.7h-2.8V13h-.7zM77.2 13V7h.8v2.6h3V7h.8v6H81v-2.7h-3V13h-.8zM88.1 12.2c-.6.6-1.3.9-2.2.9-.9 0-1.6-.3-2.2-.9-.6-.6-.9-1.3-.9-2.2 0-.9.3-1.6.9-2.2.6-.6 1.3-.9 2.2-.9.9 0 1.6.3 2.2.9.6.6.9 1.3.9 2.2-.1.9-.4 1.6-.9 2.2zm-3.9-.5c.4.4 1 .7 1.6.7.6 0 1.2-.2 1.6-.7.4-.4.7-1 .7-1.7s-.2-1.3-.7-1.7c-.4-.4-1-.7-1.6-.7-.6 0-1.2.2-1.6.7a2.413 2.413 0 0 0 0 3.4zM92.1 13V7h2.2c.5 0 .9.2 1.2.5.3.3.5.7.5 1.1 0 .3-.1.5-.2.8-.1.2-.3.4-.6.5.3.1.5.3.7.5.2.2.3.5.3.9 0 .5-.2.9-.5 1.2-.4.3-.8.5-1.3.5h-2.3zm.8-3.4h1.4c.3 0 .5-.1.7-.3.2-.2.3-.4.3-.6 0-.2-.2-.5-.3-.7-.2-.2-.4-.3-.7-.3h-1.4v1.9zm0 2.7h1.6c.3 0 .5-.1.7-.3.2-.2.3-.4.3-.7 0-.2-.1-.5-.3-.7-.2-.2-.4-.3-.7-.3H93v2h-.1z" fill="#fff"/></symbol><symbol id="icon1" viewBox="0 0 30 27"><path d="M20.213 25.83c-.183 0-.274-.09-.366-.27L15.548 13.5H13.72L9.42 25.65c-.091.18-.274.27-.457.18-.183-.09-.274-.27-.183-.45l4.39-12.42c.092-.18.183-.27.366-.27h2.378c.183 0 .275.09.366.27l4.39 12.42c.092.18 0 .36-.183.45h-.274z"/><path d="M16.646 16.11h-4.024c-.183 0-.366-.18-.366-.36s.183-.36.366-.36h4.024c.183 0 .366.18.366.36s-.183.36-.366.36zM17.378 18.54h-5.58c-.182 0-.365-.18-.365-.36s.183-.36.366-.36h5.579c.183 0 .366.18.366.36s-.092.36-.366.36zM18.476 20.97h-7.683c-.183 0-.366-.18-.366-.36s.183-.36.366-.36h7.683c.183 0 .365.18.365.36s-.183.36-.366.36zM19.299 23.4h-9.238c-.183 0-.366-.18-.366-.36s.183-.36.366-.36h9.33c.182 0 .365.18.365.36-.091.27-.274.36-.457.36zM20.305 27H9.147c-.732 0-1.28-.45-1.28-.9 0-.54.548-.9 1.28-.9h11.158c.732 0 1.28.45 1.28.9s-.548.9-1.28.9zM9.147 25.83c-.366 0-.55.18-.55.27 0 .09.184.27.55.27h11.158c.366 0 .549-.18.549-.27 0-.09-.183-.27-.549-.27H9.147zM9.787 11.97c-.092 0-.183 0-.274-.09L2.104 4.5c-.183-.18-.183-.36 0-.54.183-.18.366-.18.549 0l7.408 7.29c.183.18.183.36 0 .54-.091.09-.183.18-.274.18zM15.915 11.97c-.092 0-.183 0-.275-.09L8.232 4.5c-.092-.09-.092-.36 0-.45.183-.18.366-.18.548 0l7.409 7.29c.183.18.183.36 0 .54-.091 0-.183.09-.274.09zM22.043 11.97c-.091 0-.183 0-.274-.09L14.452 4.5c-.183-.18-.183-.36 0-.54.183-.18.366-.18.548 0l7.409 7.29c.183.18.183.36 0 .54-.183.09-.274.18-.366.18zM28.628 11.97c-.092 0-.183 0-.275-.09L20.945 4.5c-.183-.18-.183-.36 0-.54.183-.18.366-.18.549 0l7.408 7.29c.183.18.183.36 0 .54-.091.09-.183.18-.274.18zM4.756 26.73H2.012c-.183 0-.366-.18-.366-.36V11.79c0-.18.183-.36.366-.36s.366.18.366.36v14.22H4.39V11.7c0-.18.183-.36.366-.36s.366.18.366.36v14.58c0 .27-.183.45-.366.45z"/><path d="M2.012 4.59c-.183 0-.366-.18-.366-.36V.36c0-.18.183-.36.366-.36h2.653c.183 0 .366.18.366.36v3.87c.091.18-.092.27-.275.27-.183 0-.366-.09-.366-.27V.72H2.378v3.51c0 .18-.091.36-.366.36zM27.714 26.73H25.06c-.183 0-.366-.18-.366-.36V11.79c0-.18.183-.36.366-.36s.366.18.366.36v14.22h2.012V11.79c0-.18.183-.36.366-.36s.366.18.366.36v14.58c-.091.18-.274.36-.457.36zM25.061 4.59c-.183 0-.366-.18-.366-.36V.36c0-.18.183-.36.366-.36h2.653c.183 0 .366.18.366.36v3.87c0 .18-.183.36-.366.36s-.366-.18-.366-.36V.72h-2.012v3.51c.091.18-.092.36-.275.36z"/><path d="M29.634 11.97H.366c-.183 0-.366-.18-.366-.36V4.32c0-.18.183-.36.366-.36h29.268c.183 0 .366.18.366.36v7.29c0 .18-.183.36-.366.36zM.732 11.25h28.536V4.68H.732v6.57z"/></symbol><symbol id="icon2" viewBox="0 0 29 29"><path d="M14.5 0c-.2 0-.3.2-.3.3V3c0 .2.2.3.3.3 2.8 0 5.7 1.1 7.9 3.3 2.2 2.2 3.3 5 3.3 7.9 0 .2.2.3.3.3h2.7c.2 0 .3-.2.3-.3 0-3.7-1.4-7.4-4.2-10.3C21.9 1.4 18.2 0 14.5 0zm.3.7c3.4.1 6.8 1.4 9.4 4 2.6 2.6 4 6 4 9.4h-2c-.1-2.9-1.2-5.8-3.5-8-2.2-2.2-5.1-3.4-8-3.5l.1-1.9z" fill="#8C94A8"/><path d="M14.5 5.4c-.2 0-.3.2-.3.3v2.7c0 .2.2.3.3.3 1.5 0 2.9.6 4.1 1.7 1.1 1.1 1.7 2.6 1.7 4.1 0 .2.2.3.3.3h2.6c.1 0 .2 0 .3-.1.1-.1.1-.2.1-.3 0-2.3-.9-4.6-2.7-6.4-1.7-1.7-4.1-2.6-6.4-2.6zm.3.7c2.1.1 4.1.9 5.6 2.5 1.6 1.6 2.4 3.6 2.5 5.6h-2c-.1-1.5-.7-3-1.9-4.2-1.2-1.2-2.7-1.8-4.2-1.9v-2zM4.5 4.1c-.1 0-.2 0-.2.1-5.7 5.7-5.7 14.8 0 20.5 5.7 5.7 14.8 5.7 20.5 0 .1-.1.1-.3 0-.5L17.4 17c1.3-1.5 1.2-3.7-.2-5.2-1.4-1.4-3.7-1.5-5.2-.2L4.7 4.2s-.1-.1-.2-.1zm0 .9l7.3 7.3c.1.1.3.1.5 0 1.2-1.2 3.2-1.2 4.5 0 1.2 1.2 1.2 3.2 0 4.5-.1.1-.1.3 0 .5l7.3 7.3c-5.4 5.2-14 5.1-19.3-.2C-.6 19-.7 10.4 4.5 5z" fill="#8C94A8"/></symbol><symbol id="icon_cctv2" viewBox="0 0 45 45"><g clip-path="url(#a)"><path d="M36.3 24.1c-.1.3-.4.3-.6.1l1.3-3.1.5.2-1.2 2.8zm-16.8-1.4c2.7 1.2 5.3 2.3 7.8 3.4 1.7.8 3.8 1 5.3-.2l1.9.8.6-1.4c.5.2.8.3 1.3.1.4-.1.7-.4.9-.8l1.2-2.7.9.4 5.3-4.1L2.5 0C1 3.5-1.6 8 2 11.1L.5 14.5l6.9 3-1.6 3.8c.8.4 1.6.8 1.3 1.9-.9 2.1-.1 4.5 1.7 5.7v4.8H4v-4.4H0v14.2h4v-4.4h4.7v3.1c0 3.5 5.2 3.5 5.2 0V29c.8-.6 1.5-1.4 1.8-2.3.6-.7 1.3-.4 2.1-.1l1.7-3.9zm-18.3 8h1.7V35h5.9v3H2.9v4.4H1.2V30.7zM8.4 18l10 4.3-1.2 2.8c-.4-.1-.8 0-1.1.1 0-1.9-1.1-3.7-2.9-4.4-1.8-.8-3.9-.4-5.2 1-.2-.4-.4-.7-.8-.9L8.4 18zm4.4 11.6v12.8c0 1.9-2.9 1.9-2.9 0V29.6c1 .3 2 .3 2.9 0zm-2.7-7.8c3-1.2 5.7 1.9 4.5 4.7-.8 1.8-2.9 2.6-4.6 1.8-2.9-1.2-2.8-5.3.1-6.5zM2 14l.9-2.1c.8.5 1.6.9 2.4 1.2 4.9 2.2 10 4.2 15 6.4 2.2-1.8 3.8-4 6.9-2.5 1.4.6 3.8 1.7 7.1 3l-2.1 4.8c-1.4 1.2-2.9.8-4.5.2-8.5-3.7-17.1-7.3-25.7-11zm25.6 1.9c-3.6-1.5-5 .2-7.5 2.2-4.9-2.1-9.8-4.1-14.7-6.3C-.3 9.2 1.2 6.1 3.2 1.6l39.2 16.8-3.1 2.4c-3.9-1.6-7.8-3.3-11.7-4.9zm8.3 4.8c-.6 1.5-1.3 3-1.9 4.5l-.6-.2 1.9-4.5.6.2z" fill="#0E334F"/></g></symbol><symbol id="icon_channels 1" viewBox="0 0 24 22"><g clip-path="url(#a)" fill="#0063FA"><path d="M19.3 17.1H4.7c-1.3 0-2.6-.6-3.5-1.6-.9-1-1.3-2.4-1.1-3.7l1.4-8C1.8 1.6 3.7 0 6 0h12c2.3 0 4.2 1.6 4.6 3.9l1.4 8c.2 1.4-.2 2.7-1.1 3.7-.9 1-2.2 1.5-3.6 1.5zM6 1.5c-1.6 0-2.9 1.1-3.1 2.6l-1.4 8c-.1.9.2 1.8.8 2.5.6.7 1.5 1.1 2.4 1.1h14.7c.9 0 1.8-.4 2.4-1.1.6-.7.9-1.6.8-2.5l-1.4-8c-.3-1.5-1.6-2.6-3.1-2.6H6z"/><path d="M19.3 22H4.7C2.1 22 0 20 0 17.4v-4.9c0-.4.3-.7.7-.7.4 0 .7.3.7.7v4.9c0 1.8 1.4 3.2 3.2 3.2h14.7c1.8 0 3.2-1.4 3.2-3.2v-4.9c0-.4.3-.7.7-.7.4 0 .7.3.7.7v4.9c.1 2.6-2 4.6-4.6 4.6z"/><path d="M8.6 12.2c-.4 0-.7-.3-.7-.7V5.6c0-.4.3-.7.7-.7.4 0 .7.3.7.7v5.9c0 .4-.3.7-.7.7z"/><path d="M10.5 6.4H6.6c-.4 0-.7-.4-.7-.8s.3-.7.7-.7h3.9c.4 0 .7.3.7.7.1.4-.3.8-.7.8zM14.9 12.2c-.3 0-.6-.2-.7-.5l-2.4-5.9c-.2-.4 0-.8.4-1 .4-.2.8 0 1 .4L15 9.4l1.8-4.2c.2-.4.6-.6 1-.4.4.2.6.6.4 1l-2.4 5.9c-.3.4-.6.5-.9.5z"/></g></symbol><symbol id="icon_internet" viewBox="0 0 56 39"><g clip-path="url(#a)" fill="#0E334F"><path d="M52.181 39H3.79c-2.1 0-3.82-1.698-3.82-3.777V32.5c0-.586.496-1.084 1.08-1.084h19.21c.292 0 .583.118.787.323l1.4 1.463h10.552c.613 0 1.08.498 1.08 1.084 0 .585-.496 1.083-1.08 1.083H22.01c-.291 0-.583-.117-.787-.322l-1.399-1.464H2.157v1.67c0 .877.729 1.61 1.662 1.61H52.21c.904 0 1.662-.703 1.662-1.61v-1.67H35.74A1.079 1.079 0 0 1 34.66 32.5c0-.586.496-1.084 1.079-1.084h19.21c.613 0 1.08.498 1.08 1.084v2.752C56 37.331 54.31 39 52.18 39z"/><path d="M52.385 33.583a1.078 1.078 0 0 1-1.078-1.083V3.894c0-.937-.788-1.727-1.72-1.727H6.413c-.933 0-1.72.79-1.72 1.727v25.473c0 .586-.495 1.084-1.078 1.084a1.098 1.098 0 0 1-1.079-1.084V3.894C2.536 1.757 4.286 0 6.413 0h43.174c2.128 0 3.877 1.757 3.877 3.894V32.5a1.06 1.06 0 0 1-1.079 1.083z"/><path d="M49.004 6.207H3.614a1.098 1.098 0 0 1-1.078-1.083c0-.586.496-1.083 1.079-1.083h45.389c.612 0 1.078.497 1.078 1.083.03.585-.466 1.083-1.078 1.083zM22.243 23.834a.923.923 0 0 1-.583-.235c-.321-.322-.321-.849 0-1.142l11.252-11.301c.32-.322.845-.322 1.137 0 .32.322.32.849 0 1.141L22.826 23.6a.924.924 0 0 1-.583.235zM27.257 24.594a.924.924 0 0 1-.583-.234c-.321-.322-.321-.849 0-1.142l6.996-6.997c.32-.322.845-.322 1.137 0 .32.322.32.849 0 1.141L27.81 24.36c-.116.147-.35.234-.553.234z"/></g></symbol><symbol id="icon_products1" viewBox="0 0 24 26"><g clip-path="url(#a)"><path d="M11.9 0L0 4.5v16.3L11.9 26l11.9-5.2V4.5L11.9 0zm-.7 24.2l-9.8-4.3V6l9.8 3.7v14.5zM2.7 4.9l9.2-3.5 9.2 3.5-9.2 3.5-9.2-3.5zm19.7 15l-9.8 4.3V9.6L22.4 6v13.9z" fill="#0063FA"/></g></symbol><symbol id="icon_tel" viewBox="0 0 28 47"><g clip-path="url(#a)" fill="#0E334F"><path d="M13.8 44c-1.4 0-2.5-1.1-2.5-2.5s1.1-2.6 2.5-2.6c.5 0 .9.4.9.9s-.4.9-.9.9c-.4 0-.7.3-.7.7 0 .4.3.7.7.7.4 0 .7-.3.7-.7 0-.5.4-.9.9-.9s.9.4.9.9c0 1.4-1.1 2.6-2.5 2.6z"/><path d="M23.9 47H3.6c-2 0-3.6-1.7-3.6-3.7V3.7C0 1.7 1.6 0 3.6 0h20.3c2.1 0 3.7 1.6 3.7 3.7v17.4c0 .5-.4.9-.9.9s-.9-.4-.9-.9V3.7c0-1-.8-1.9-1.9-1.9H3.6c-1 0-1.8.8-1.8 1.9v39.6c0 1 .8 1.9 1.8 1.9h20.3c1 0 1.9-.9 1.9-1.9V24.5c0-.5.4-.9.9-.9s.9.4.9.9v18.8c0 2-1.7 3.7-3.7 3.7z"/><path d="M17.6 4.8H10c-.5 0-.9-.4-.9-.9s.4-.9.9-.9h7.5c.5 0 .9.4.9.9.1.5-.3.9-.8.9zM23.8 37.7h-20c-.5 0-.9-.4-.9-.9V6.9c0-.5.4-.9.9-.9h20c.5 0 .9.4.9.9v29.9c0 .5-.4.9-.9.9zM4.7 35.9h18.2V7.8H4.7v28.1z"/><path d="M9.5 24.2c-.1 0-.3-.1-.4-.2-.2-.2-.2-.6 0-.8l7.5-7.5c.2-.2.6-.2.8 0 .2.2.2.6 0 .8L9.9 24c-.1.2-.2.2-.4.2zM12.9 24.8c-.1 0-.3-.1-.4-.2-.2-.2-.2-.6 0-.8l4.7-4.7c.2-.2.6-.2.8 0 .2.2.2.6 0 .8l-4.7 4.7c-.1.1-.3.2-.4.2z"/></g></symbol><symbol id="icon_tv" viewBox="0 0 52 40"><g clip-path="url(#a)" fill="#0E334F"><path d="M51 34.9H1c-.6 0-1-.4-1-1V1c0-.6.4-1 1-1h50c.6 0 1 .4 1 1v16.9c0 .6-.4 1-1 1s-1-.4-1-1V2H2v30.9h48V21.6c0-.6.4-1 1-1s1 .4 1 1v12.3c0 .6-.4 1-1 1z"/><path d="M5.8 39.3c-.2 0-.3 0-.5-.1-.5-.3-.7-.9-.4-1.3l2.2-4.3c.3-.6.9-.8 1.4-.6.5.3.7.9.4 1.3l-2.2 4.3c-.1.5-.5.7-.9.7zM46.2 39.3c-.4 0-.7-.2-.9-.6l-2.2-4.3c-.3-.5-.1-1.1.4-1.3.5-.3 1.1-.1 1.3.4l2.2 4.3c.3.5.1 1.1-.4 1.3-.1.1-.3.2-.4.2zM51 30.8H4.1c-.6 0-1-.4-1-1s.4-1 1-1H51c.6 0 1 .4 1 1s-.4 1-1 1zM18.6 22.8c-.3 0-.5-.1-.7-.3-.4-.4-.4-1 0-1.4L31.8 7.3c.4-.4 1-.4 1.4 0 .4.4.4 1 0 1.4L19.3 22.5c-.2.2-.5.3-.7.3zM24.8 23.8c-.3 0-.5-.1-.7-.3-.4-.4-.4-1 0-1.4l8.6-8.6c.4-.4 1-.4 1.4 0 .4.4.4 1 0 1.4l-8.6 8.6c-.2.2-.5.3-.7.3z"/></g></symbol><symbol id="left" viewBox="0 0 10 18"><path d="M11.2 16.93L10.036 18 .4 9.176 10.036.353 11.2 1.417l-8.466 7.76L11.2 16.93z" fill="#0063FA"/></symbol><symbol id="lk" viewBox="0 0 24 22"><g clip-path="url(#a)" fill="#0968FA"><path d="M12.048 14.824a.518.518 0 0 0-.287.472c0 .189.096.378.191.472a.735.735 0 0 0 .478.19.527.527 0 0 0 .478-.284l4.494-4.438c.287-.283.287-.66 0-.85L12.908 5.95c-.095-.095-.287-.19-.478-.284a.735.735 0 0 0-.478.19.717.717 0 0 0-.191.471c0 .19.096.378.287.472l3.346 3.4H.67a.65.65 0 0 0-.669.66.65.65 0 0 0 .67.661h14.724l-3.346 3.305z"/><path d="M23.713 2.077c-.191-.377-.382-.755-.765-1.133A3.442 3.442 0 0 0 21.801.19C21.418.094 21.036 0 20.558 0h-10.9c-.479 0-.861.094-1.34.283-.382.19-.764.378-1.051.756-.383.283-.574.66-.765 1.038-.191.472-.287.85-.287 1.322v3.116a.65.65 0 0 0 .67.661.65.65 0 0 0 .669-.661V3.399c0-.566.191-1.038.573-1.416.383-.378.957-.567 1.435-.567h10.9c.574 0 1.052.19 1.434.567.383.378.574.944.574 1.416v15.107c0 .567-.191 1.04-.574 1.417-.382.377-.956.566-1.434.566H9.657c-.573 0-1.051-.189-1.434-.566-.382-.378-.574-.944-.574-1.417v-3.304a.65.65 0 0 0-.669-.661.65.65 0 0 0-.67.66v3.305c0 .473.096.85.288 1.322.19.378.382.756.764 1.133.287.284.67.567 1.148.756.382.189.86.283 1.339.283h10.9c.478 0 .86-.094 1.339-.283.382-.19.764-.378 1.147-.756.287-.283.574-.66.765-1.133.191-.377.287-.85.287-1.322V3.4c-.287-.472-.383-.85-.574-1.322z"/></g></symbol><symbol id="logo" viewBox="0 0 143 26"><path d="M17.065 15.127v7.942a7.634 7.634 0 0 1-2.002 1.418c-.668.379-1.43.662-2.288.946a9.67 9.67 0 0 1-2.956.473 9.665 9.665 0 0 1-3.718-.757c-1.144-.473-2.192-1.229-3.146-2.08-.953-.85-1.62-1.89-2.192-3.12-.572-1.229-.858-2.458-.858-3.782 0-1.229.286-2.458.762-3.687.668-1.135 1.335-2.08 2.193-3.025.858-.946 1.907-1.608 3.146-2.175 1.24-.567 2.479-.85 3.813-.85 1.526 0 2.956.283 4.1.85 1.239.567 2.192 1.418 3.146 2.364 0 0-.096.094-.382.283-.286.19-.572.379-.858.662-.381.284-.762.567-1.239.851-.572-.567-1.24-1.04-2.097-1.324-.858-.283-1.716-.472-2.67-.472-.762 0-1.62.189-2.383.472-.763.379-1.43.851-2.097 1.418-.572.662-1.144 1.419-1.526 2.175-.381.757-.572 1.607-.572 2.553 0 .85.191 1.607.477 2.363.381.757.858 1.513 1.43 2.08a8.465 8.465 0 0 0 2.097 1.513c.763.378 1.621.567 2.574.567.763 0 1.43-.094 2.193-.283a6.91 6.91 0 0 0 1.907-.851v-3.215H9.915v-3.309h7.15zM74.074 6.43h3.337V26L64.255 13.898V26h-3.337V6.43l13.156 12.1V6.43zM95.429 22.69V26H82.273V6.43h3.336v16.26h9.82zM103.627 6.524h-3.241V26h3.241V6.524zM121.645 6.43h3.337V26l-13.156-12.102V26h-3.241V6.43l13.06 12.1V6.43zM129.844 6.524H143v3.214h-13.156V6.524zm11.726 11.345h-11.631v-3.214h11.631v3.214zm-11.726 4.822H143v3.215h-13.156V22.69z" fill="#0064FA"/><path d="M58.535 15.6L43.186 0l-3.337 21.556 3.814-1.229v-.094c.858-1.608 2.574-3.12 4.862-3.782 2.288-.757 4.576-.567 6.196.284l3.814-1.135zm-11.059-2.27c-1.144.38-2.193.852-3.146 1.514l1.049-7.942 5.529 5.862c-1.049 0-2.288.189-3.432.567z" fill="#2EFFBB"/><path d="M32.985 17.964c2.288-.851 3.909-3.026 3.909-5.578 0-3.31-2.67-5.957-6.006-5.957h-8.961v3.215h8.866c1.525 0 2.764 1.229 2.764 2.742 0 1.512-1.239 2.741-2.764 2.741h-8.866V26h3.241v-7.564h4.195L33.557 26h3.718l-4.29-8.036z" fill="#0064FA"/><path d="M44.33 14.844c-2.574 1.702-4.195 4.16-4.48 6.712l3.717-1.134v-.095l.763-5.483zM54.817 16.83l3.718-1.135c-1.716-1.891-4.481-2.931-7.532-2.837l3.814 3.971c-.096-.095 0 0 0 0z" fill="#00FF64"/></symbol><symbol id="phone" viewBox="0 0 20 30"><g clip-path="url(#a)" fill="#0063FA"><path d="M7.8 26.1c0-.2.1-.5.3-.6.2-.2.4-.3.6-.3h2.2c.3 0 .6.2.8.4.2.3.2.6 0 .9-.2.3-.4.4-.8.4H8.6c-.2 0-.5-.1-.6-.3-.1-.1-.2-.3-.2-.5z"/><path d="M18.8.7c-.4-.4-1-.7-1.7-.7H2.3C1.7 0 1.1.2.7.7c-.5.4-.7 1-.7 1.6v25.3c0 .6.2 1.2.7 1.7.4.4 1 .7 1.7.7h14.8c.6 0 1.2-.2 1.7-.7.4-.4.7-1 .7-1.7V2.3c-.1-.6-.3-1.2-.8-1.6zm-5.2 1.1l-.3.9H6.2l-.3-.9h7.7zm4.2 25.9c0 .3-.3.6-.6.6H2.3c-.3 0-.6-.3-.6-.6v-3.6h16v3.6h.1zm0-5.4h-16v-20c0-.3.2-.5.5-.5H4l.7 2.1c.1.1.2.2.3.4.2.1.3.2.5.2h8.4c.2 0 .4-.1.5-.2.2-.1.3-.3.3-.4l.7-2.1h1.7c.3 0 .6.3.6.6v19.9h.1z"/></g></symbol><symbol id="time" viewBox="0 0 24 24"><path d="M12 3.2c-4.9 0-8.8 3.9-8.8 8.8s3.9 8.8 8.8 8.8 8.8-3.9 8.8-8.8-3.9-8.8-8.8-8.8zm0 1.6c4 0 7.2 3.2 7.2 7.2S16 19.2 12 19.2 4.8 16 4.8 12 8 4.8 12 4.8z" fill="#0063FA"/><path d="M11.2 7.2V12c0 .4.4.8.8.8h4.8c.4 0 .8-.4.8-.8s-.4-.8-.8-.8h-4v-4c0-.4-.4-.8-.8-.8s-.8.4-.8.8zM24 12c0 .4-.4.8-.8.8s-.8-.4-.8-.8.4-.8.8-.8.8.4.8.8zM23.6 15.1c-.1.4-.6.7-1 .6-.4-.1-.7-.6-.6-1 .1-.4.6-.7 1-.6.5.1.7.6.6 1zM22.4 18c-.2.4-.7.5-1.1.3-.4-.2-.5-.7-.3-1.1.2-.4.7-.5 1.1-.3.4.2.5.7.3 1.1zM20.5 20.5c-.3.3-.8.3-1.1 0-.3-.3-.3-.8 0-1.1.3-.3.8-.3 1.1 0 .3.3.3.8 0 1.1zM18 22.4c-.4.2-.9.1-1.1-.3-.2-.4-.1-.9.3-1.1.4-.2.9-.1 1.1.3.2.4.1.9-.3 1.1zM15.1 23.6c-.4.1-.9-.1-1-.6-.1-.4.1-.9.6-1 .4-.1.9.1 1 .6.1.4-.2.9-.6 1zM12 24c-.4 0-.8-.4-.8-.8s.4-.8.8-.8.8.4.8.8-.4.8-.8.8zM8.9 23.6c-.4-.1-.7-.6-.6-1 .1-.4.6-.7 1-.6.4.1.7.6.6 1-.1.5-.6.7-1 .6zM21 6.8c-.2-.4-.1-.9.3-1.1.4-.2.9-.1 1.1.3.2.4.1.9-.3 1.1-.4.2-.9.1-1.1-.3zM22 9.3c-.1-.4.1-.9.6-1 .4-.1.9.1 1 .6.1.4-.1.9-.6 1-.4.1-.8-.2-1-.6z" fill="#0063FA"/><path d="M9.3 22c-4.4-1.2-7.7-5.2-7.7-10C1.6 6.3 6.3 1.6 12 1.6c2.9 0 5.5 1.2 7.4 3.1.3.3.6.3.9.2.3-.1.5-.4.5-.7V.8c0-.4-.4-.8-.8-.8s-.8.4-.8.8v1.6C17.2.9 14.7 0 12 0 5.4 0 0 5.4 0 12c0 5.5 3.8 10.2 8.9 11.6.4.1.9-.1 1-.6.1-.4-.2-.8-.6-1z" fill="#0063FA"/></symbol><symbol id="vk" viewBox="0 0 27 16"><path d="M13.144 15.2h1.6s.5 0 .7-.3c.2-.3.1-.7.1-.7s0-2.2.9-2.4c.9-.3 2.3 2.2 3.7 3 .9.7 1.8.5 1.8.5h3.7s1.8-.1.9-1.6c0-.1-.5-1.1-2.6-3.1-2.3-2.2-1.9-1.8.8-5.4 1.6-2.2 2.3-3.5 2.2-4.1-.1-.6-1.5-.3-1.5-.3h-4.1s-.3 0-.5.1c-.1.1-.3.5-.3.5s-.7 1.6-1.5 3.1c-1.8 3.1-2.4 3.2-2.7 3-.7-.5-.5-1.8-.5-2.7 0-3 .5-4.2-.8-4.6-.5-.1-.8-.1-1.9-.1-1.5 0-2.6 0-3.2.3-.7.3-.9.8-.8.8.3 0 .8.1 1.1.7.3.5.3 1.8.3 1.8s.3 3.4-.5 3.9c-.5.3-1.1-.3-2.7-3.1-.8-1.5-1.5-3-1.5-3s-.4-.4-.6-.7c-.1-.1-.6-.1-.6-.1h-3.8s-.7 0-.8.3c-.1.1 0 .7 0 .7s3 7 6.4 10.6c3 3 6.7 2.9 6.7 2.9z" fill="#fff"/></symbol></svg>