<svg xmlns="http://www.w3.org/2000/svg"><defs><clipPath id="a"><path fill="#fff" d="M0 0h20v11.3H0z"/></clipPath><clipPath id="a"><path fill="#fff" d="M0 0h134.9v40H0z"/></clipPath><clipPath id="a"><path fill="#fff" d="M0 0h16.3v20H0z"/></clipPath><clipPath id="a"><path fill="inherit" d="M0 0h23v23H0z"/></clipPath><clipPath id="a"><path fill="inherit" d="M0 0h25v24H0z"/></clipPath><clipPath id="a"><path fill="inherit" d="M0 0h24v24H0z"/></clipPath><clipPath id="a"><path fill="#fff" d="M0 0h11.1v7.9H0z"/></clipPath><clipPath id="a"><path fill="#fff" d="M0 0h123v25H0z"/></clipPath><clipPath id="a"><path fill="#fff" d="M0 0h20.6v24H0z"/></clipPath><clipPath id="a"><path fill="inherit" d="M0 0h27v24H0z"/></clipPath><clipPath id="a"><path fill="#fff" d="M0 0h44.6v45H0z"/></clipPath><clipPath id="a"><path fill="#fff" d="M0 0h24v22H0z"/></clipPath><clipPath id="a"><path fill="#fff" d="M0 0h56v39H0z"/></clipPath><clipPath id="a"><path fill="#fff" d="M0 0h23.8v26H0z"/></clipPath><clipPath id="a"><path fill="#fff" d="M0 0h27.6v47H0z"/></clipPath><clipPath id="a"><path fill="#fff" d="M0 0h52v39.3H0z"/></clipPath><clipPath id="a"><path fill="#fff" d="M0 0h24v22H0z"/></clipPath><clipPath id="a" fill="inherit"><path d="M0 0h24v23H0z"/></clipPath><clipPath id="a"><path fill="#fff" d="M0 0h19.5v30H0z"/></clipPath><clipPath id="a"><path fill="inherit" d="M0 0h17v25H0z"/></clipPath><clipPath id="a"><path fill="inherit" d="M0 0h25v24H0z"/></clipPath><clipPath id="a"><path fill="inherit" d="M0 0h24v22H0z"/></clipPath><clipPath id="a"><path fill="#fff" d="M0 0h13.1v20H0z"/></clipPath><linearGradient id="a" x1="19.243" y1="35.967" x2="12.932" y2="-9.765" gradientUnits="userSpaceOnUse"><stop stop-color="#00FF64"/><stop offset=".232" stop-color="#00FF64"/><stop offset=".737" stop-color="#00FF64"/><stop offset=".999" stop-color="#00FF64"/></linearGradient><linearGradient id="b" x1="26.631" y1="34.948" x2="20.32" y2="-10.784" gradientUnits="userSpaceOnUse"><stop stop-color="#00FF64"/><stop offset=".232" stop-color="#00FF64"/><stop offset=".737" stop-color="#00FF64"/><stop offset=".999" stop-color="#00FF64"/></linearGradient><linearGradient id="c" x1="15.228" y1="36.521" x2="8.917" y2="-9.211" gradientUnits="userSpaceOnUse"><stop stop-color="#00FF64"/><stop offset=".232" stop-color="#00FF64"/><stop offset=".737" stop-color="#00FF64"/><stop offset=".999" stop-color="#00FF64"/></linearGradient><linearGradient id="d" x1="19.074" y1="28.176" x2="5.284" y2="-11.206" gradientUnits="userSpaceOnUse"><stop stop-color="#00FF64"/><stop offset=".639" stop-color="#00FF64"/><stop offset=".999" stop-color="#00FF64"/></linearGradient><radialGradient id="e" cx="0" cy="0" r="1" gradientUnits="userSpaceOnUse" gradientTransform="translate(24.977 -3.873) scale(18.3764)"><stop offset=".001" stop-color="#FFED1C" stop-opacity=".6"/><stop offset=".948" stop-color="#FFED1C" stop-opacity=".026"/><stop offset=".991" stop-color="#FFED1C" stop-opacity="0"/></radialGradient><linearGradient id="f" x1="13.715" y1="1.898" x2="18.701" y2="29.867" gradientUnits="userSpaceOnUse"><stop stop-color="#00FF64"/><stop offset=".023" stop-color="#00FF64" stop-opacity=".98"/><stop offset=".666" stop-color="#00FF64" stop-opacity=".33"/><stop offset="1" stop-color="#00FF64" stop-opacity="0"/></linearGradient><linearGradient id="g" x1="17.585" y1="32.12" x2="18.663" y2="12.482" gradientUnits="userSpaceOnUse"><stop stop-color="#00FF64"/><stop offset=".187" stop-color="#00FF64" stop-opacity=".81"/><stop offset=".722" stop-color="#00FF64" stop-opacity=".28"/><stop offset="1" stop-color="#00FF64" stop-opacity="0"/></linearGradient><radialGradient id="h" cx="0" cy="0" r="1" gradientUnits="userSpaceOnUse" gradientTransform="matrix(14.2151 0 0 11.5399 17.32 26.82)"><stop offset=".001" stop-color="#FFBC47"/><stop offset=".294" stop-color="#FFBF4B" stop-opacity=".707"/><stop offset=".562" stop-color="#FEC656" stop-opacity=".438"/><stop offset=".82" stop-color="#FCD368" stop-opacity=".18"/><stop offset="1" stop-color="#FBE07A" stop-opacity="0"/></radialGradient><radialGradient id="i" cx="0" cy="0" r="1" gradientUnits="userSpaceOnUse" gradientTransform="matrix(13.7772 0 0 11.1843 17.32 26.236)"><stop offset=".001" stop-color="#fff"/><stop offset="1" stop-color="#fff" stop-opacity="0"/></radialGradient><radialGradient id="j" cx="0" cy="0" r="1" gradientUnits="userSpaceOnUse" gradientTransform="matrix(16.9242 0 0 19.7048 11.28 28.778)"><stop offset=".001" stop-color="#FFED1C" stop-opacity=".6"/><stop offset=".948" stop-color="#FFED1C" stop-opacity=".026"/><stop offset=".991" stop-color="#FFED1C" stop-opacity="0"/></radialGradient><radialGradient id="k" cx="0" cy="0" r="1" gradientUnits="userSpaceOnUse" gradientTransform="matrix(-.2695 5.34217 -4.33639 -.21876 17.319 26.235)"><stop offset=".001" stop-color="#fff"/><stop offset="1" stop-color="#fff" stop-opacity="0"/></radialGradient><radialGradient id="l" cx="0" cy="0" r="1" gradientUnits="userSpaceOnUse" gradientTransform="translate(20.277 3.057) scale(6.07142)"><stop offset=".001" stop-color="#FFED1C"/><stop offset=".2" stop-color="#FFEE2B" stop-opacity=".801"/><stop offset=".584" stop-color="#FFF254" stop-opacity=".417"/><stop offset="1" stop-color="#FFF686" stop-opacity="0"/></radialGradient><radialGradient id="m" cx="0" cy="0" r="1" gradientUnits="userSpaceOnUse" gradientTransform="matrix(2.72081 -4.0968 .93045 .61794 10.264 5.979)"><stop offset=".001" stop-color="#FFED1C" stop-opacity=".6"/><stop offset=".948" stop-color="#FFED1C" stop-opacity=".026"/><stop offset=".991" stop-color="#FFED1C" stop-opacity="0"/></radialGradient><radialGradient id="n" cx="0" cy="0" r="1" gradientUnits="userSpaceOnUse" gradientTransform="rotate(95.056 4.65 6.207) scale(4.41898 1.77816)"><stop offset=".001" stop-color="#FFED1C"/><stop offset=".2" stop-color="#FFEE2B" stop-opacity=".801"/><stop offset=".584" stop-color="#FFF254" stop-opacity=".417"/><stop offset="1" stop-color="#FFF686" stop-opacity="0"/></radialGradient><radialGradient id="o" cx="0" cy="0" r="1" gradientUnits="userSpaceOnUse" gradientTransform="translate(18.928 2.28) scale(18.9446)"><stop offset=".001" stop-color="#00FF64"/><stop offset=".135" stop-color="#00FF64" stop-opacity=".87"/><stop offset=".394" stop-color="#00FF64" stop-opacity=".61"/><stop offset=".749" stop-color="#00FF64" stop-opacity=".25"/><stop offset="1" stop-color="#FFF686" stop-opacity="0"/></radialGradient><radialGradient id="p" cx="0" cy="0" r="1" gradientUnits="userSpaceOnUse" gradientTransform="translate(27.545 17.627) scale(10.0554)"><stop offset=".001" stop-color="#FFED1C"/><stop offset=".2" stop-color="#FFEE2B" stop-opacity=".801"/><stop offset=".584" stop-color="#FFF254" stop-opacity=".417"/><stop offset="1" stop-color="#FFF686" stop-opacity="0"/></radialGradient><radialGradient id="q" cx="0" cy="0" r="1" gradientUnits="userSpaceOnUse" gradientTransform="translate(6.961 21.21) scale(10.7178)"><stop offset=".001" stop-color="#FFED1C"/><stop offset=".2" stop-color="#FFEE2B" stop-opacity=".801"/><stop offset=".584" stop-color="#FFF254" stop-opacity=".417"/><stop offset="1" stop-color="#FFF686" stop-opacity="0"/></radialGradient><radialGradient id="r" cx="0" cy="0" r="1" gradientUnits="userSpaceOnUse" gradientTransform="matrix(1.2454 18.31661 -11.1345 .75706 17.159 19.042)"><stop stop-color="#00FF64" stop-opacity="0"/><stop offset=".987" stop-color="#00FF64" stop-opacity=".99"/><stop offset=".988" stop-color="#00FF64"/></radialGradient><clipPath id="a"><path fill="inherit" d="M0 0h16v24H0z"/></clipPath></defs><symbol id="adress_icon" viewBox="0 0 15 20"><path d="M7.4 0C3.3 0 0 3.3 0 7.4 0 8.9.4 9.9 1.1 11L7 19.8c.1.1.3.2.4.2.2 0 .3-.1.4-.2l5.9-8.7c.8-1.1 1.1-2.2 1.1-3.6.1-4.2-3.3-7.5-7.4-7.5zm0 1c3.5 0 6.4 2.9 6.4 6.4 0 1.3-.3 2-.9 3l-5.5 8.1-5.4-8c-.7-1-1-1.8-1-3.1C1 3.9 3.9 1 7.4 1zm0 2.6c-2 0-3.6 1.6-3.6 3.6s1.6 3.6 3.6 3.6S11 9.2 11 7.2 9.4 3.6 7.4 3.6zm0 1c1.4 0 2.6 1.1 2.6 2.6S8.9 9.7 7.4 9.7 4.9 8.6 4.9 7.2 6 4.6 7.4 4.6z" fill="#0063FA"/></symbol><symbol id="ajax-icon" viewBox="0 0 19 14"><path d="M9.5 0L7.927 2.272 15.856 14H19L9.5 0zM5.5 5.937h3.071L3.143 14H0l5.5-8.063z" fill="inherit"/></symbol><symbol id="alarm-icon" viewBox="0 0 30 20"><path d="M24.594 5.75a8.912 8.912 0 0 1 0 8.016m2.688-9.723a12.98 12.98 0 0 1 0 11.504M5.405 13.766a8.912 8.912 0 0 1 0-8.016m-2.688 9.723C.925 11.91.925 7.68 2.642 4.043m7.765 11.95H7.794v-.669l1.792-1.781v-4.75c0-2.746 1.643-4.898 4.256-5.492v-.594c0-.668.597-1.336 1.344-1.336.747 0 1.344.594 1.344 1.336v.594c1.717.37 2.987 1.484 3.733 2.894.374.817.598 1.707.598 2.598v4.75l1.792 1.781v.668H10.407z" stroke="inherit" fill="inherit"/><mask id="a" style="mask-type:alpha" maskUnits="userSpaceOnUse" x="13" y="17" width="5" height="3"><path d="M13.127 17.773h4.405v2.226h-4.405v-2.226z" fill="inherit"/></mask><g mask="url(#a)" fill="inherit"><path d="M13.127 18.07c0 1.187.97 2.003 2.24 2.003 1.195 0 2.165-.816 2.165-2.003v-.223h-4.405v.223z"/></g></symbol><symbol id="alarm-sound-icon" viewBox="0 0 28 28"><path d="M10.78 23.03l.42-.77c.21-.28.49-.49.84-.49h4.34c.35 0 .7.21.84.49l.42.77M14.21 1.47V0m0 28v-1.47m12.32-12.81H28m-28 0h1.47M25.2 3.78l1.26-1.26M3.5 3.78L2.24 2.52m24.22 22.75l-1.26-1.26m-21.7 0l-1.26 1.26" stroke="inherit"/><path d="M14.42 14c0 .28-.21.49-.49.49s-.49-.21-.49-.49v-.07c0-.28.21-.49.49-.49.28.07.49.28.49.56zm3.01 0c0 .28-.21.49-.49.49s-.49-.21-.49-.49v-.07c0-.28.21-.49.49-.49.28.07.49.28.49.56zm-6.02 0c0 .28-.21.49-.49.49s-.42-.21-.42-.49v-.07c0-.28.21-.49.49-.49.21.07.42.28.42.56zm9.03 0c0 .28-.21.49-.49.49s-.49-.21-.49-.49.21-.49.49-.49.49.21.49.49zM8.47 14c0 .28-.21.49-.49.49s-.49-.21-.49-.49.21-.49.49-.49.49.21.49.49zm7.49-2.03c0 .28-.21.49-.49.49s-.49-.21-.49-.49v-.07c0-.28.21-.49.49-.49.28.14.49.35.49.56zm3.01 0c0 .28-.21.49-.49.49s-.49-.21-.49-.49.21-.49.49-.49.49.21.49.49zm2.94 0c0 .28-.21.49-.49.49s-.49-.21-.49-.49v-.07c0-.28.21-.49.49-.49.28.14.49.35.49.56zm-8.96 0c0 .28-.21.49-.49.49s-.49-.21-.49-.49v-.07c0-.28.21-.49.49-.49.28.14.49.35.49.56zm-3.01 0c0 .28-.21.49-.49.49s-.49-.21-.49-.49.21-.49.49-.49.49.21.49.49zm-3.01 0c0 .28-.21.49-.49.49s-.49-.21-.49-.49v-.07c0-.28.21-.49.49-.49.28.14.49.35.49.56zm10.5-1.96c0 .28-.21.49-.49.49s-.49-.21-.49-.49v-.07c0-.28.21-.49.49-.49.28.07.49.28.49.56zm3.01 0c0 .28-.21.49-.49.49s-.49-.21-.49-.49.21-.49.49-.49.49.21.49.49zm-6.02 0c0 .28-.21.49-.49.49s-.49-.21-.49-.49v-.07c0-.28.21-.49.49-.49.28.07.49.28.49.56zm-3.01 0c0 .28-.21.49-.49.49s-.49-.21-.49-.49v-.07c0-.28.21-.49.49-.49.28.07.49.28.49.56zm-2.94 0c0 .28-.21.49-.49.49s-.49-.21-.49-.49.21-.49.49-.49.49.21.49.49zm7.49-2.03c0 .28-.21.49-.49.49s-.49-.21-.49-.49v-.07c0-.28.21-.49.49-.49.28.14.49.28.49.56zm3.01 0c0 .28-.21.49-.49.49s-.49-.21-.49-.49.21-.49.49-.49.49.21.49.49zm-6.02 0c0 .28-.21.49-.49.49s-.49-.21-.49-.49v-.07c0-.28.21-.49.49-.49.28.14.49.28.49.56zm-3.01 0c0 .28-.21.49-.49.49s-.49-.21-.49-.49.21-.49.49-.49.49.21.49.49zm6.02 7.98c0 .28-.21.49-.49.49s-.49-.21-.49-.49v-.07c0-.28.21-.49.49-.49.28.14.49.35.49.56zm3.01 0c0 .28-.21.49-.49.49s-.49-.21-.49-.49.21-.49.49-.49.49.28.49.49zm2.94 0c0 .28-.21.49-.49.49s-.42-.21-.42-.49.21-.49.49-.49l.42.49zm-8.96 0c0 .28-.21.49-.49.49s-.49-.21-.49-.49v-.07c0-.28.21-.49.49-.49.28.14.49.35.49.56zm-3.01 0c0 .28-.21.49-.49.49s-.49-.21-.49-.49.21-.49.49-.49.49.28.49.49zm-3.01 0c0 .28-.21.49-.49.49s-.49-.21-.49-.49v-.07c0-.28.21-.49.49-.49.28.14.49.35.49.56zm10.5 2.03c0 .28-.21.49-.49.49s-.49-.21-.49-.49v-.07c0-.28.21-.49.49-.49.28.07.49.28.49.56zm3.01 0c0 .28-.21.49-.49.49s-.49-.21-.49-.49.21-.49.49-.49.49.21.49.49zm-6.02 0c0 .28-.21.49-.49.49s-.49-.21-.49-.49v-.07c0-.28.21-.49.49-.49.28.07.49.28.49.56zm-3.01 0c0 .28-.21.49-.49.49s-.42-.21-.42-.49v-.07c0-.28.21-.49.49-.49.21.07.42.28.42.56zm-2.94 0c0 .28-.21.49-.49.49s-.49-.21-.49-.49.21-.49.49-.49.49.21.49.49zm10.5 1.96c0 .28-.21.49-.49.49s-.49-.21-.49-.49.21-.49.49-.49c.28.07.49.28.49.49zm-9.03 0c0 .28-.21.49-.49.49s-.49-.21-.49-.49.21-.49.49-.49.49.28.49.49z" fill="inherit"/><path d="M23.87 10.08c0-.42 0-.49-.07-.91-.07-.7-.14-1.33-.35-2.03-.21-.7-.56-1.33-1.05-1.82-.35-.28-.77-.56-1.19-.7-.49-.21-1.05-.28-1.61-.35h-.21c-.35-.07-.7-.07-1.05-.07-.49 0-.98-.07-1.4-.07-.56 0-1.19-.07-1.75-.07h-1.26c-.77 0-1.54 0-2.31.07-.49 0-.98.07-1.47.07-.56-.07-1.05 0-1.61 0-.56.07-1.19.21-1.75.35-.63.28-1.19.63-1.61 1.19-.35.49-.56.98-.77 1.54A8.07 8.07 0 0 0 4.2 9.1c-.07.56-.07 1.05-.14 1.61-.07.84-.07 1.75-.07 2.59v2.45c0 .42 0 .77.07 1.19 0 .49.07.98.07 1.47s.07.98.14 1.47c.07.63.28 1.19.56 1.75.28.63.77 1.12 1.4 1.47.42.21.91.42 1.4.49.7.14 1.4.21 2.1.28.49 0 .98.07 1.47.07.56 0 1.12.07 1.68.07h2.59c.42 0 .84 0 1.33-.07.42 0 .91-.07 1.33-.07.56 0 1.05-.07 1.61-.14s1.12-.21 1.61-.35c.42-.14.84-.42 1.19-.7.56-.49.84-1.12 1.05-1.82.21-.63.28-1.33.35-2.03 0-.42.07-.84.07-1.26 0-.56.07-1.05.07-1.61V14.7l-.21-4.62z" stroke="inherit" fill="inherit"/></symbol><symbol id="android" viewBox="0 0 20 12"><g clip-path="url(#a)"><path d="M14.6 7.4c-.5 0-.8-.4-.8-.8 0-.5.4-.8.8-.8s.8.4.8.8-.3.8-.8.8zm-9.2 0c-.5 0-.8-.4-.8-.8 0-.5.4-.8.8-.8s.8.4.8.8-.3.8-.8.8zm9.5-5l1.7-2.9c.1-.2 0-.4-.1-.5-.1-.1-.4 0-.5.2l-1.7 2.9c-1.3-.6-2.8-.9-4.3-.9s-3 .3-4.3.9L4-.8C3.9-1 3.7-1 3.6-1c-.2.1-.3.4-.2.5l1.7 2.9C2.2 4 .3 6.9 0 10.3h20c-.3-3.4-2.2-6.3-5.1-7.9z" fill="#fff"/></g></symbol><symbol id="apple" viewBox="0 0 135 40"><g clip-path="url(#a)"><path d="M130.2 0H4.7C2.1 0 0 2.1 0 4.7v30.5C0 37.9 2.1 40 4.7 40h125.5c2.6 0 4.7-2.1 4.7-4.7V4.7c0-2.6-2.1-4.7-4.7-4.7zm0 39.1H4.7c-2.1 0-3.8-1.7-3.8-3.8V4.7C.9 2.6 2.6.9 4.7.9h125.5c2.1 0 3.8 1.7 3.8 3.8v30.5c0 2.2-1.7 3.9-3.8 3.9z" fill="#fff"/><path d="M30.1 19.8c0-3.2 2.6-4.8 2.8-4.9-1.5-2.2-3.9-2.5-4.7-2.5-2-.2-3.9 1.2-4.9 1.2-1 0-2.6-1.2-4.2-1.1-2.1 0-4.1 1.3-5.2 3.2-2.3 3.9-.6 9.7 1.6 12.9 1.1 1.6 2.4 3.3 4 3.2 1.6-.1 2.2-1 4.2-1 1.9 0 2.5 1 4.2 1 1.7 0 2.8-1.6 3.9-3.1 1.3-1.8 1.8-3.5 1.8-3.6-.1-.2-3.4-1.5-3.5-5.3zM26.9 10.3c.9-1.1 1.5-2.6 1.3-4.1-1.3.1-2.8.9-3.8 1.9-.8.9-1.5 2.5-1.3 3.9 1.5.2 2.9-.6 3.8-1.7z" stroke="#fff" stroke-miterlimit="10"/><path d="M53.7 31.5h-2.3l-1.2-3.9h-4.3l-1.2 3.9h-2.2l4.3-13.3h2.6l4.3 13.3zM49.8 26l-1.1-3.5c-.1-.4-.3-1.2-.7-2.5-.1.6-.3 1.4-.6 2.5L46.2 26h3.6zM64.7 26.6c0 1.6-.4 2.9-1.3 3.9-.8.8-1.8 1.3-3 1.3-1.3 0-2.2-.5-2.7-1.4v5h-2.1V25.1c0-1 0-2.1-.1-3.2h1.9l.1 1.5c.7-1.1 1.8-1.7 3.2-1.7 1.1 0 2.1.4 2.8 1.3.8.9 1.2 2.1 1.2 3.6zm-2.2.1c0-.9-.2-1.7-.6-2.3-.5-.6-1.1-.9-1.9-.9-.5 0-1 .2-1.4.5-.4.4-.7.8-.8 1.4-.1.3-.1.5-.1.6v1.6c0 .7.2 1.3.6 1.8.4.5 1 .7 1.7.7.8 0 1.4-.3 1.9-.9.4-.7.6-1.5.6-2.5zM75.7 26.6c0 1.6-.4 2.9-1.3 3.9-.8.8-1.8 1.3-3 1.3-1.3 0-2.2-.5-2.7-1.4v5h-2.1V25.1c0-1 0-2.1-.1-3.2h1.9l.1 1.5c.7-1.1 1.8-1.7 3.2-1.7 1.1 0 2.1.4 2.8 1.3.8.9 1.2 2.1 1.2 3.6zm-2.2.1c0-.9-.2-1.7-.6-2.3-.5-.6-1.1-.9-1.9-.9-.5 0-1 .2-1.4.5-.4.4-.7.8-.8 1.4-.1.3-.1.5-.1.6v1.6c0 .7.2 1.3.6 1.8.4.5 1 .7 1.7.7.8 0 1.4-.3 1.9-.9.4-.7.6-1.5.6-2.5zM88 27.8c0 1.1-.4 2.1-1.2 2.8-.9.8-2.1 1.2-3.6 1.2-1.4 0-2.6-.3-3.4-.8l.5-1.8c.9.6 2 .8 3.1.8.8 0 1.4-.2 1.9-.5.4-.4.7-.8.7-1.5 0-.5-.2-1-.6-1.4-.4-.4-1-.7-1.8-1-2.3-.9-3.5-2.1-3.5-3.8 0-1.1.4-2 1.2-2.7.8-.7 1.9-1 3.3-1 1.2 0 2.2.2 3 .6l-.6 1.7c-.8-.4-1.6-.6-2.6-.6-.8 0-1.3.2-1.8.6-.4.3-.5.7-.5 1.2s.2 1 .6 1.3c.4.3 1 .7 1.9 1 1.1.5 2 1 2.5 1.6.7.6.9 1.4.9 2.3zM95.1 23.5h-2.3v4.7c0 1.2.4 1.8 1.2 1.8.4 0 .7 0 .9-.1l.1 1.6c-.4.2-1 .2-1.7.2-.8 0-1.5-.3-2-.8s-.7-1.4-.7-2.6v-4.8h-1.4v-1.6h1.4v-1.8l2.1-.6v2.4H95l.1 1.6zM105.7 26.6c0 1.5-.4 2.7-1.3 3.6-.9 1-2.1 1.5-3.5 1.5s-2.5-.5-3.4-1.4c-.8-.9-1.3-2.1-1.3-3.5 0-1.5.4-2.7 1.3-3.7.9-.9 2-1.4 3.5-1.4 1.4 0 2.5.5 3.4 1.4.9.9 1.3 2.1 1.3 3.5zm-2.2.1c0-.9-.2-1.6-.6-2.3-.4-.8-1.1-1.1-1.9-1.1-.9 0-1.5.4-2 1.1-.4.6-.6 1.4-.6 2.3 0 .9.2 1.6.6 2.3.5.8 1.1 1.1 1.9 1.1.8 0 1.5-.4 1.9-1.2.5-.6.7-1.3.7-2.2zM112.6 23.8c-.2 0-.4-.1-.7-.1-.8 0-1.3.3-1.7.9-.4.5-.5 1.1-.5 1.9v5h-2.1v-6.6c0-1.1 0-2.1-.1-3h1.9l.1 1.8h.1c.2-.6.6-1.1 1.1-1.5.5-.3 1-.5 1.5-.5h.5l-.1 2.1zM122.2 26.3c0 .4 0 .7-.1 1h-6.4c0 .9.3 1.7.9 2.2.5.4 1.2.7 2.1.7.9 0 1.8-.1 2.6-.5l.3 1.5c-.9.4-2 .6-3.2.6-1.5 0-2.7-.4-3.5-1.3-.8-.9-1.3-2.1-1.3-3.5s.4-2.7 1.2-3.6c.8-1 1.9-1.5 3.4-1.5 1.4 0 2.4.5 3.1 1.5.6.6.9 1.7.9 2.9zm-2.1-.6c0-.6-.1-1.2-.4-1.6-.4-.6-.9-.9-1.7-.9-.7 0-1.3.3-1.7.9-.4.5-.6 1-.6 1.7l4.4-.1zM43.4 7.3c.4-.3 1.1-.5 1.9-.5 1.3 0 2.1.7 2.1 1.6 0 .8-.6 1.4-1.3 1.6.9.1 1.6.7 1.6 1.6 0 1.4-1.3 1.9-2.5 1.9-.6 0-1.3-.1-1.9-.4l.3-.9c.3.2 1 .4 1.5.4.8 0 1.3-.4 1.3-1 0-.8-.8-1-1.6-1h-.5v-1h.5c.8 0 1.3-.4 1.3-1 0-.5-.4-.9-1.1-.9-.5 0-1 .2-1.4.4l-.2-.8zM52.9 12.3c0 .4 0 .8.1 1.1h-1.1l-.1-.5c-.3.4-.8.6-1.4.6-1 0-1.5-.7-1.5-1.4 0-1.2 1.1-1.8 2.8-1.8v-.1c0-.3-.1-.8-1-.8-.5 0-1 .1-1.3.4l-.2-.8c.3-.2 1-.4 1.7-.4 1.5 0 2 1 2 2v1.7zm-1.2-1.2c-.8 0-1.7.2-1.7.9 0 .5.3.7.7.7.5 0 .8-.3.9-.6v-1h.1zM57.8 8.7v.9h-1.9v3.8h-1.2V8.7h3.1zM59.1 10.3V8.7h1l.1.7c.3-.5.9-.8 1.6-.8 1.1 0 2 .9 2 2.4 0 1.7-1.1 2.5-2.2 2.5-.6 0-1.1-.3-1.3-.6v2.4h-1.2v-5zm1.2 1.2v.3c.1.5.5.8 1.1.8.8 0 1.2-.6 1.2-1.6 0-.8-.4-1.5-1.2-1.5-.5 0-1 .4-1.1.9v1.1zM66.1 8.7l.8 2.5.3.9.3-.9.7-2.5h1.3l-1.2 3.2c-.7 1.8-1.1 2.6-1.6 3-.5.4-1 .6-1.3.6l-.3-1c.2 0 .4-.2.7-.3.2-.1.5-.4.7-.7 0-.1.1-.2.1-.2s0-.1-.1-.2l-1.7-4.3 1.3-.1zM71.2 10.6h.6c.7 0 1-.3 1-.6s-.3-.6-.9-.6c-.4 0-.8.1-1.2.3l-.3-.7c.5-.3 1.2-.5 1.8-.5.8 0 1.8.3 1.8 1.3 0 .6-.6 1-1 1.1.6.1 1.3.4 1.3 1.1 0 1.1-1.2 1.4-2.2 1.4-.6 0-1.2-.1-1.7-.4l.3-.8c.3.2.8.3 1.3.3.7 0 1-.3 1-.6 0-.5-.5-.7-1.2-.7h-.6v-.6zM76.9 8.7v1.7c0 .7 0 1.3-.1 1.9.3-.6.4-.9.6-1.4l1.2-2.2H80v4.7h-1v-1.7c0-.8 0-1.1.1-2-.2.6-.4.9-.6 1.4-.4.7-.8 1.6-1.2 2.3h-1.4V8.7h1zM85.4 8.7v.9H84v3.8h-1.2V9.6h-1.4v-.9h4zM87.5 11.4c0 .9.7 1.2 1.5 1.2.6 0 .9-.1 1.3-.2l.2.8c-.4.2-1 .3-1.7.3-1.5 0-2.4-.9-2.4-2.4 0-1.3.8-2.5 2.3-2.5 1.5 0 2 1.3 2 2.3v.5h-3.2zm2.1-.8c0-.4-.2-1.2-1-1.2-.7 0-1.1.7-1.1 1.2h2.1zM94.8 8.8c.4-.1 1.1-.1 1.7-.1.8 0 2.2.1 2.2 1.2 0 .6-.5.9-1 1 .7.1 1.2.5 1.2 1.2 0 1.3-1.7 1.4-2.6 1.4-.6 0-1.2 0-1.5-.1V8.8zm1.1 3.9h.6c.5 0 1.2-.1 1.2-.7 0-.5-.5-.7-1.3-.7h-.5v1.4zm.1-2.1h.5c.6 0 1.1-.2 1.1-.6 0-.4-.3-.6-1-.6H96v1.2z" fill="#fff"/></g></symbol><symbol id="apple_" viewBox="0 0 17 20"><g clip-path="url(#a)"><path d="M15.8 6.8c-.1.1-2.2 1.2-2.2 3.8 0 3 2.6 4 2.7 4 0 .1-.4 1.4-1.4 2.8-.9 1.2-1.8 2.5-3.1 2.5s-1.7-.8-3.3-.8c-1.5.1-2.1.9-3.3.9-1.2 0-2.1-1.1-3.1-2.5C.9 15.8 0 13.3 0 10.8c0-3.9 2.5-6 5-6 1.3 0 2.4.9 3.3.9.8 0 2-.9 3.5-.9.6 0 2.6.1 4 2zm-4.7-3.6c.6-.7 1.1-1.8 1.1-2.8V0c-1 0-2.2.7-2.9 1.5-.7.7-1.2 1.7-1.2 2.7v.4h.3c.9 0 2-.6 2.7-1.4z" fill="#fff"/></g></symbol><symbol id="arrow-left" viewBox="0 0 10 16"><path d="M10 15.03L8.922 16 0 8l8.922-8L10 .965 2.161 8 10 15.03z" fill="#fff"/></symbol><symbol id="arrow" viewBox="0 0 14 14"><path d="M.1 11.1c0 .1 0 .1 0 0 0 .1 0 .1 0 0V14l14-7.1L0 0v2.8c1 1 1.6 2.5 1.6 4.2 0 .7-.1 1.4-.3 2.1-.3.8-.7 1.5-1.2 2zm0-8.2c-.1-.1-.1-.1 0 0-.1-.1-.1-.1 0 0z" fill="#08FF8A"/></symbol><symbol id="arrow_down" viewBox="0 0 18 11"><path d="M16.909 0L18 1.186 9 11 0 1.186 1.086 0 9 8.622 16.909 0z" fill="#fff"/></symbol><symbol id="automation-icon" viewBox="0 0 23 23"><g clip-path="url(#a)" fill="inherit"><path d="M11.422 23c-1.878 0-3.755-.235-5.555-.626-1.095-.313-2.034-.704-2.738-1.252-.939-.704-1.643-1.642-2.112-2.894-.47-1.174-.626-2.425-.782-3.442A31.842 31.842 0 0 1 0 10.874c.078-2.112.313-3.99.86-5.71.392-1.174.94-2.113 1.722-2.817.625-.626 1.33-1.017 2.268-1.33C5.946.626 7.04.469 7.98.313 9.466 0 10.952-.078 12.439 0a20.97 20.97 0 0 1 5.241.86c1.878.548 3.208 1.643 3.99 3.208.47.939.704 1.878.86 2.738.392 1.878.548 3.755.47 5.633-.078 1.956-.313 3.598-.782 5.163-.392 1.408-1.096 2.503-2.034 3.286-.783.626-1.643 1.095-2.738 1.33-1.252.313-2.504.547-3.99.626-.626.078-1.252.078-1.721.078-.157.078-.235.078-.313.078zm0-22.218c-1.096 0-2.19.079-3.286.235-.939.156-2.034.313-3.051.704a6.84 6.84 0 0 0-1.956 1.174c-.704.625-1.173 1.486-1.486 2.503a22.948 22.948 0 0 0-.86 5.476c-.079 1.252 0 2.504.234 3.755.156 1.017.313 2.19.782 3.286.391 1.095 1.017 1.878 1.8 2.503.704.47 1.486.86 2.503 1.096 1.8.469 3.677.626 5.554.626.47 0 1.018 0 1.643-.079a18.688 18.688 0 0 0 3.834-.626c1.017-.234 1.799-.625 2.503-1.173.86-.704 1.408-1.643 1.8-2.895.469-1.486.704-3.129.782-5.006.078-1.8-.078-3.677-.392-5.477a11.439 11.439 0 0 0-.782-2.503c-.704-1.408-1.8-2.347-3.442-2.816-1.486-.47-3.13-.704-5.085-.783h-1.095zm.078 20.262c-5.242 0-9.466-4.224-9.466-9.544S6.258 2.034 11.5 2.034c5.241 0 9.544 4.303 9.544 9.544 0 5.242-4.303 9.466-9.544 9.466zm0-18.228a8.748 8.748 0 0 0-8.762 8.762A8.748 8.748 0 0 0 11.5 20.34a8.748 8.748 0 0 0 8.762-8.762A8.748 8.748 0 0 0 11.5 2.816zm1.565 16.742h-.783v-.548a.784.784 0 0 0-.782-.782.784.784 0 0 0-.782.782v.548h-.783v-.548c0-.86.704-1.564 1.565-1.564.86 0 1.565.704 1.565 1.564v.548zM11.5 5.633a1.57 1.57 0 0 1-1.565-1.565v-.47h.783v.548c0 .391.313.783.782.783a.784.784 0 0 0 .782-.783V3.6h.783v.547c0 .783-.704 1.487-1.565 1.487z"/><path d="M16.116 12.986a1.402 1.402 0 0 1-1.409-1.408c0-.782.626-1.408 1.409-1.408.782 0 1.408.626 1.408 1.408 0 .704-.626 1.408-1.408 1.408zm-8.997 0a1.402 1.402 0 0 1-1.408-1.408c0-.782.626-1.408 1.408-1.408.782 0 1.408.626 1.408 1.408 0 .704-.626 1.408-1.408 1.408z"/></g></symbol><symbol id="block-icon" viewBox="0 0 25 24"><g clip-path="url(#a)" fill="inherit"><path d="M0 10.19h4.006H0zm0-7.495h4.006H0zm4.08 9.768h4.822c1.484 0 3.116-2.105 3.116-4.21V4.716C12.018 2.61 10.386.42 8.902.42H4.08v12.042z" stroke="inherit"/><path d="M5.787 6.568h1.929l-1.261 3.2 3.56-3.958H8.088l.89-2.61-3.19 3.368z"/><path d="M12.092 6.147c8.383.169 12.537 2.864 12.537 8 0 3.2-2.373 7.832-12.982 7.58H9.273m-4.228-1.685h4.228v3.537H5.045v-3.537z" stroke="inherit"/><path d="M5.044 22.4h-2.67v-1.179h2.67"/></g></symbol><symbol id="centr-icon" viewBox="0 0 24 24"><g clip-path="url(#a)" fill="inherit"><path d="M13.405.327c.654 0 1.374.065 2.028.065.523 0 1.111.066 1.634.066.72.065 1.505.13 2.224.261.654.131 1.242.327 1.831.654s1.112.785 1.439 1.374c.392.588.588 1.307.72 2.027.13.588.195 1.112.195 1.7.066.654.066 1.308.131 2.027.065 1.439.065 2.878.065 4.316v1.505c0 .654-.065 1.242-.065 1.896 0 .458-.065.98-.065 1.439-.066.784-.131 1.57-.393 2.354-.261.785-.588 1.504-1.242 2.093-.393.392-.85.654-1.373.85-.59.261-1.243.392-1.897.457-.588.066-1.242.131-1.896.197-.524 0-1.047.065-1.57.065-.523 0-1.046.065-1.504.065h-3.008c-.654 0-1.308 0-1.962-.065-.589 0-1.112-.065-1.7-.065-.85-.066-1.635-.131-2.42-.327a10.238 10.238 0 0 1-1.7-.654c-.654-.393-1.243-.981-1.57-1.7a5.563 5.563 0 0 1-.588-2.028l-.196-1.765c-.066-.59-.066-1.178-.131-1.766 0-.458-.066-.916-.066-1.373a48.95 48.95 0 0 1 0-4.382c0-.523.066-.98.066-1.504.065-.589.065-1.243.13-1.831.066-.72.131-1.373.328-2.027A6.65 6.65 0 0 1 1.7 2.42c.523-.654 1.177-1.047 1.896-1.308C4.25.85 4.904.785 5.623.654c.589-.065 1.243-.13 1.831-.13.589 0 1.178-.066 1.7-.066.916-.066 1.766-.066 2.682-.066.588-.065 1.046-.065 1.57-.065z" stroke="inherit"/><path d="M9.482 12.425v-.85h5.036v.85H9.482z"/></g></symbol><symbol id="checkbox" viewBox="0 0 12 8"><g clip-path="url(#a)"><path d="M.8 3.9l3.1 3.2L10.3.8" stroke="#fff" stroke-width="1.5" stroke-miterlimit="10" stroke-linecap="round" stroke-linejoin="round"/></g></symbol><symbol id="dlink-logo" viewBox="0 0 123 25"><g clip-path="url(#a)" fill-rule="evenodd" clip-rule="evenodd" fill="#0083A5"><path d="M31.419 10.828h6.819c.475 0 .561.484.216 1.1l-1.381 2.288c-.346.617-1.036 1.1-1.51 1.1h-6.82c-.475 0-.56-.483-.216-1.1l1.381-2.288c.389-.616 1.036-1.1 1.511-1.1zM64.003 0c2.503-.22 5.481 1.76 4.014 4.401-1.381 2.377-6.474 2.993-8.027 2.861-.475-.044-1.295-.352-1.252-1.144 0-.572.345-2.509 1.381-4.05C61.241.529 62.838.089 64.003 0zM79.626 5.106c.777-.353.864.528.82.748v2.024c0 .397.346.22.475.133 2.33-1.013 4.747-2.51 7.768-2.465 2.676.044 3.496 2.244 3.453 4.71v10.607c0 .924.086 1.144.475 1.496.13.088.863.132 1.122.132.302 0 .302.22.216.44l-.648 1.673c-.13.308-.431.352-.647.352h-6.085c-2.115-.088-2.762-1.673-2.72-2.509V12.412c0-2.069-3.322-2.245-3.322.572v8.495c.043.396-.087.924.95 1.012.69 0 1.207-.088.862.792l-.518 1.32c-.13.265-.431.397-.69.397h-10.1c-.215 0-.388-.264-.344-.44l.733-1.893c.043-.088.087-.22.216-.22.345 0 .561-.176.648-1.144V10.255c0-.924-.82-.792-1.425-.792-.259 0-.431-.088-.345-.44l.561-1.233c.086-.308.216-.396.432-.44 3.366-.484 5.265-.748 8.113-2.244zM119.72 1.584v1.013h.345c.389 0 .648 0 .777-.044.087-.044.173-.088.216-.176.043-.088.086-.176.086-.264a.404.404 0 0 0-.172-.352c-.087-.088-.346-.132-.777-.132h-.475v-.045zm-.345-.308h1.122c.388 0 .691.088.863.22a.714.714 0 0 1 .259.573c0 .22-.086.44-.259.572-.129.132-.345.176-.561.22.13.044.216.088.259.132.043.044.13.132.216.264s.172.264.216.352l.302.528h-.518l-.259-.484c-.216-.352-.389-.616-.475-.66-.129-.088-.302-.132-.561-.132h-.216v1.276h-.388v-2.86zm3.323 1.54c0-.66-.216-1.232-.69-1.672-.475-.484-.993-.704-1.64-.704-.648 0-1.209.22-1.64.704-.475.485-.691 1.013-.691 1.673 0 .66.216 1.232.691 1.672.474.485.992.705 1.64.705.647 0 1.208-.22 1.64-.705.431-.44.69-1.012.69-1.672zm.302 0c0 .75-.259 1.365-.777 1.893-.518.529-1.122.793-1.855.793-.734 0-1.338-.264-1.856-.793a2.585 2.585 0 0 1-.777-1.892c0-.748.259-1.365.777-1.893s1.122-.792 1.856-.792c.733 0 1.337.264 1.855.792S123 2.07 123 2.817zM104.227.44c.561-.088.906.264.906.924v10.564c.086.572.475.176.604.044l3.582-4.622c.389-.484 1.295-.572 1.856-.572h7.812c.129 0 .215.176.086.352l-.993 1.365c-.086.132-.172.308-.647.308h-.388c-.346 0-.432.132-.562.22L112.47 13.6c-.863 1.013-.648 1.453.129 2.201l5.481 5.766c1.209.88 2.331.924 3.626 1.012.345.044.259.308.129.44l-1.424 1.673c-.13.22-.777.352-1.122.352h-5.438c-.691 0-1.985-.22-2.978-.88-1.985-1.673-3.237-3.786-5.179-5.634-.345-.308-.604-.176-.604.132v2.42c0 1.101.431 1.365 1.985 1.453.604.044.432.352.302.704l-.518 1.365c-.129.352-.345.44-.604.44H94.948c-.346 0-.561-.088-.518-.308l.647-1.673c.13-.352.216-.396.69-.44.778-.044 1.08-.308 1.08-1.496V5.502c0-.528-.13-.749-.475-.705l-1.424.22c-.432.045-.518-.264-.346-.572l.864-1.496c.172-.308.474-.308.82-.396 2.891-.484 5.783-1.32 7.595-2.025.13-.044.216-.044.346-.088zM67.844 6.69c.346-.132.777.132.691.924v13.689c.173.968.475 1.188 1.338 1.276 0 0 .56 0 .431.44l-.56 1.453c-.216.44-.346.484-.864.484H58.35c-.26 0-.389-.22-.302-.484l.517-1.365c.087-.176.13-.352.475-.44 1.08-.308 1.122-.44 1.122-1.892v-8.187c0-1.364-.215-1.32-1.77-1.144-.301-.088-.258-.353-.215-.44l.777-1.497c.216-.44.475-.44.475-.44 3.064-.22 6.042-.968 8.415-2.377zM14.803 25c2.288.044 5.05.132 7.596-1.893 1.813-1.232 4.014-6.206 4.79-8.274.389-1.057.518-2.51 0-3.565-1.337-3.17-3.366-6.735-4.704-8.187-1.899-1.805-3.668-1.937-6.646-1.937H3.151c-.518 0-1.122.132-1.338.529L.906 3.345c-.172.748.691.792.691.792h1.295c.345 0 .431.308.431.572v16.022c0 .704-.777 1.144-1.424 1.276-.302.088-.69.176-.906.484l-.907 1.805c-.13.352.13.66.432.66C5.481 25 9.797 25 14.803 25zm-3.237-2.993V4.797c0-.44.087-.66.475-.704h1.252c.431 0 1.079-.088 1.467.616l4.273 7.57c.345.793.259 1.101 0 1.673l-4.316 7.439c-.518.748-.777.572-1.424.66l-1.727-.044z"/><path d="M51.013 1.276c.56 0 .733.352.647.573L50.538 3.96s-.13.44-1.122.44h-.087c-.647 0-1.122 0-1.208 1.277v15.229c0 .66.259 1.188 1.036 1.232h1.553c2.504-.044 2.46-2.685 3.021-4.973.13-.353.216-.573.648-.793l2.244-.792c.302 0 .561 0 .647.484v7.659c.087.704-.56 1.364-1.424 1.276H36.641c-.69 0-.863-.22-.69-.66l.69-1.585s.216-.44.863-.44c1.424-.088 2.288-.088 2.288-2.289V5.81c0-.924-.216-1.497-1.123-1.497H37.59c-.69 0-1.079-.264-.906-.66l.95-1.892c.215-.44.431-.485.776-.485h12.603z"/></g></symbol><symbol id="ethernet" viewBox="0 0 38 37"><path d="M20.022 25.54h2.036V21.35v4.188h2.035v-4.188 4.188h1.561c.814 0 1.154-.58 1.154-1.224v-10.18c0-.257-.204-.45-.475-.45h-2.511c-.204 0-.407-.194-.407-.387v-2.577c0-.386-.407-.709-.882-.709h-7.057c-.475 0-.883.322-.883.709v2.577c0 .193-.203.387-.407.387h-2.51c-.272 0-.475.193-.475.45v10.18c0 .709.678 1.224 1.492 1.224h1.222v-4.188 4.188h2.036v-4.188 4.188h2.035v-4.188 4.188h2.036zm0 0V21.35v4.188zM29.929 5.63c1.29 0 2.307.967 2.307 2.19v20.746c0 1.224-1.018 2.19-2.307 2.19H8.147c-1.29 0-2.307-.966-2.307-2.19V7.822c0-1.224 1.018-2.19 2.307-2.19h21.782zM20.022 25.54v.322-.322zm-2.036 0v.322-.322zm-2.035 0v.322-.322zm-2.036 0v.322-.322zm10.178 0v.322-.322zm-2.035 0v.322-.322z" stroke="#181818"/></symbol><symbol id="fire-icon" viewBox="0 0 19 25"><path fill-rule="evenodd" clip-rule="evenodd" d="M9.506 1.518L8.67.75v1.136c0 1.761-.41 3.012-1.02 3.993-.616.992-1.452 1.74-2.364 2.477-.165.133-.334.267-.504.401C3.11 10.081 1.306 11.51.873 14.365v.003c-.563 3.87 2.41 6.866 5.601 7.647l.943.23-.36-.9a3.039 3.039 0 0 1-.18-1.492c.06-.431.23-.908.62-1.371.464 1.454 1.276 2.433 2.28 3.033 1.169.7 2.537.85 3.78.734l.144-.014.114-.087a11.005 11.005 0 0 0 4.317-8.742c0-2.168-.619-4.106-1.697-5.806l-.594-.937-.309 1.066c-.476 1.647-1.527 3.012-2.938 3.932.364-.949.534-1.951.534-2.981 0-2.935-1.883-5.57-3.622-7.162zM8.5 6.405c.565-.91.967-1.998 1.111-3.367 1.35 1.488 2.518 3.514 2.518 5.641 0 1.391-.346 2.698-1.098 3.864l-.851 1.32 1.457-.585c1.995-.8 3.604-2.29 4.474-4.227a9.612 9.612 0 0 1 1.022 4.354c0 3.183-1.492 6.026-3.812 7.86-1.065.078-2.142-.077-3.03-.609-.912-.546-1.686-1.524-2.03-3.215l-.159-.782-.634.484c-1.028.784-1.462 1.717-1.581 2.572-.053.384-.042.747.001 1.068-2.476-.956-4.446-3.368-4.025-6.27.372-2.45 1.866-3.639 3.554-4.983.165-.13.33-.263.498-.397.927-.75 1.876-1.585 2.585-2.728zm3.614 17.486H6.888c-.294.074-.589.296-.515.517 0 .296.22.517.515.517h5.225a.504.504 0 0 0 .515-.517.504.504 0 0 0-.515-.517z" fill="inherit"/></symbol><symbol id="footer_logo" viewBox="0 0 150 28"><path d="M18 16v8.4c-.6.6-1.3 1.1-2.1 1.5-.7.4-1.5.7-2.4 1-.9.3-2 .5-3.1.5-1.4 0-2.7-.3-3.9-.8-1.2-.5-2.3-1.3-3.3-2.2-1-.9-1.7-2-2.3-3.3-.6-1.3-.9-2.6-.9-4 0-1.3.3-2.6.8-3.9C1.5 12 2.2 11 3.1 10c.9-1 2-1.7 3.3-2.3 1.3-.6 2.6-.9 4-.9 1.6 0 3.1.3 4.3.9 1.3.6 2.3 1.5 3.3 2.5 0 0-.1.1-.4.3-.3.2-.6.4-.9.7-.4.3-.8.6-1.3.9-.6-.6-1.3-1.1-2.2-1.4-.9-.3-1.8-.5-2.8-.5-.8 0-1.7.2-2.5.5-.8.4-1.5.9-2.2 1.5-.6.7-1.2 1.5-1.6 2.3-.4.8-.6 1.7-.6 2.7 0 .9.2 1.7.5 2.5.4.8.9 1.6 1.5 2.2.6.6 1.4 1.2 2.2 1.6.8.4 1.7.6 2.7.6.8 0 1.5-.1 2.3-.3.7-.2 1.4-.5 2-.9v-3.4h-4.2V16H18zM77.8 6.8h3.5v20.7L67.5 14.7v12.8H64V6.8l13.8 12.8V6.8zM100.2 24v3.5H86.4V6.8h3.5V24h10.3zM108.8 6.9h-3.4v20.6h3.4V6.9zM127.7 6.8h3.5v20.7l-13.8-12.8v12.8H114V6.8l13.7 12.8V6.8zM136.3 6.9h13.8v3.4h-13.8V6.9zm12.3 12h-12.2v-3.4h12.2v3.4zM136.3 24h13.8v3.4h-13.8V24z" fill="#fff"/><path d="M61.5 16.5L45.4 0l-3.5 22.8 4-1.3v-.1c.9-1.7 2.7-3.3 5.1-4 2.4-.8 4.8-.6 6.5.3l4-1.2zm-11.6-2.4c-1.2.4-2.3.9-3.3 1.6l1.1-8.4 5.8 6.2c-1.1 0-2.4.2-3.6.6z" fill="#2EFFBB"/><path d="M34.7 19a6.3 6.3 0 0 0 4.1-5.9c0-3.5-2.8-6.3-6.3-6.3h-9.4v3.4h9.3c1.6 0 2.9 1.3 2.9 2.9 0 1.6-1.3 2.9-2.9 2.9h-9.3v11.5h3.4v-8h4.4l4.4 8h3.9L34.7 19z" fill="#fff"/><path d="M46.6 15.7c-2.7 1.8-4.4 4.4-4.7 7.1l3.9-1.2v-.1l.8-5.8zM57.6 17.8l3.9-1.2c-1.8-2-4.7-3.1-7.9-3l4 4.2c-.1-.1 0 0 0 0z" fill="#00FF64"/></symbol><symbol id="gift" viewBox="0 0 21 24"><g clip-path="url(#a)"><path d="M19.3 5.3h-5.5c.6-.2 1.1-.4 1.6-.8.5-.5.8-1.1.8-1.8S16 1.3 15.5.8C15 .3 14.3 0 13.7 0c-.7 0-1.4.2-1.9.7-.7 1-1.2 2.1-1.5 3.4C10 2.8 9.4 1.7 8.7.7 8 .1 7.1-.2 6.2.1c-.9.3-1.6 1-1.8 1.9-.2.9.1 1.9.8 2.5.5.4 1 .6 1.6.8H1.3c-.3 0-.7.1-.9.4-.3.2-.4.5-.4.9v1.8c0 .3.1.7.4.9.2.3.6.4.9.4v13c0 .3.1.7.4.9.2.3.6.4.9.4h16.1c.3 0 .7-.1.9-.4.2-.2.4-.6.4-.9V9.5c.4-.2.6-.6.6-1.1V6.6c0-.3-.1-.7-.4-.9-.2-.3-.5-.4-.9-.4zm-7 .9v2.6H7.9V6.2h4.4zm7.4.4v1.8c0 .2-.2.4-.4.4h-6.1V6.2h6.1c.2 0 .4.2.4.4zm-7.3-5.2c.3-.3.7-.5 1.2-.5h.1c.5 0 .9.2 1.2.5.3.3.5.8.5 1.2 0 .5-.2.9-.5 1.2-.5.5-2.4 1-3.9 1.3.3-1.4.9-3.3 1.4-3.7zM5.2 2.7c0-.5.2-.9.5-1.2.3-.4.7-.6 1.2-.6s.9.1 1.2.5c.5.5 1.1 2.3 1.5 3.8-1.4-.4-3.4-.9-3.8-1.3-.4-.3-.6-.8-.6-1.2zM.9 8.4V6.6c0-.2.2-.4.4-.4H7v2.6H1.3c-.2 0-.4-.2-.4-.4zm1.3 14.3v-13H8v13.4H2.6c-.2 0-.4-.2-.4-.4zm6.7.4V9.7h2.7v13.4H8.9zm10.2-.4c0 .2-.2.4-.4.4h-6.3V9.7h6.7v13z" fill="#0063FA"/></g></symbol><symbol id="google" viewBox="0 0 135 40"><path d="M130 .8c2.3 0 4.2 1.9 4.2 4.2v30c0 2.3-1.9 4.2-4.2 4.2H5C2.7 39.2.8 37.3.8 35V5C.8 2.7 2.7.8 5 .8h125zm0-.8H5C2.3 0 0 2.3 0 5v30c0 2.8 2.3 5 5 5h125c2.8 0 5-2.3 5-5V5c0-2.7-2.2-5-5-5z" fill="#fff"/><path d="M68.1 21.8c-2.4 0-4.3 1.8-4.3 4.3 0 2.4 1.9 4.3 4.3 4.3s4.3-1.8 4.3-4.3c0-2.6-1.9-4.3-4.3-4.3zm0 6.8c-1.3 0-2.4-1.1-2.4-2.6s1.1-2.6 2.4-2.6c1.3 0 2.4 1 2.4 2.6 0 1.5-1.1 2.6-2.4 2.6zm-9.3-6.8c-2.4 0-4.3 1.8-4.3 4.3 0 2.4 1.9 4.3 4.3 4.3s4.3-1.8 4.3-4.3c0-2.6-1.9-4.3-4.3-4.3zm0 6.8c-1.3 0-2.4-1.1-2.4-2.6s1.1-2.6 2.4-2.6c1.3 0 2.4 1 2.4 2.6 0 1.5-1.1 2.6-2.4 2.6zm-11.1-5.5v1.8H52c-.1 1-.5 1.8-1 2.3-.6.6-1.6 1.3-3.3 1.3-2.7 0-4.7-2.1-4.7-4.8 0-2.7 2.1-4.8 4.7-4.8 1.4 0 2.5.6 3.3 1.3l1.3-1.3c-1.1-1-2.5-1.8-4.5-1.8-3.6 0-6.7 3-6.7 6.6 0 3.6 3.1 6.6 6.7 6.6 2 0 3.4-.6 4.6-1.9 1.2-1.2 1.6-2.9 1.6-4.2 0-.4 0-.8-.1-1.1h-6.2zm45.4 1.4c-.4-1-1.4-2.7-3.6-2.7s-4 1.7-4 4.3c0 2.4 1.8 4.3 4.2 4.3 1.9 0 3.1-1.2 3.5-1.9l-1.4-1c-.5.7-1.1 1.2-2.1 1.2s-1.6-.4-2.1-1.3l5.7-2.4-.2-.5zm-5.8 1.4c0-1.6 1.3-2.5 2.2-2.5.7 0 1.4.4 1.6.9l-3.8 1.6zM82.6 30h1.9V17.5h-1.9V30zm-3-7.3c-.5-.5-1.3-1-2.3-1-2.1 0-4.1 1.9-4.1 4.3s1.9 4.2 4.1 4.2c1 0 1.8-.5 2.2-1h.1v.6c0 1.6-.9 2.5-2.3 2.5-1.1 0-1.9-.8-2.1-1.5l-1.6.7c.5 1.1 1.7 2.5 3.8 2.5 2.2 0 4-1.3 4-4.4V22h-1.8v.7zm-2.2 5.9c-1.3 0-2.4-1.1-2.4-2.6s1.1-2.6 2.4-2.6c1.3 0 2.3 1.1 2.3 2.6s-1 2.6-2.3 2.6zm24.4-11.1h-4.5V30h1.9v-4.7h2.6c2.1 0 4.1-1.5 4.1-3.9s-2-3.9-4.1-3.9zm.1 6h-2.7v-4.3h2.7c1.4 0 2.2 1.2 2.2 2.1-.1 1.1-.9 2.2-2.2 2.2zm11.5-1.8c-1.4 0-2.8.6-3.3 1.9l1.7.7c.4-.7 1-.9 1.7-.9 1 0 1.9.6 2 1.6v.1c-.3-.2-1.1-.5-1.9-.5-1.8 0-3.6 1-3.6 2.8 0 1.7 1.5 2.8 3.1 2.8 1.3 0 1.9-.6 2.4-1.2h.1v1h1.8v-4.8c-.2-2.2-1.9-3.5-4-3.5zm-.2 6.9c-.6 0-1.5-.3-1.5-1.1 0-1 1.1-1.3 2-1.3.8 0 1.2.2 1.7.4-.2 1.2-1.2 2-2.2 2zm10.5-6.6l-2.1 5.4h-.1l-2.2-5.4h-2l3.3 7.6-1.9 4.2h1.9l5.1-11.8h-2zm-16.8 8h1.9V17.5h-1.9V30z" fill="#fff"/><path d="M10.4 7.5c-.3.3-.4.8-.4 1.4V31c0 .6.2 1.1.5 1.4l.1.1L23 20.1v-.2L10.4 7.5z" stroke="#fff" stroke-miterlimit="10"/><path d="M27 24.3l-4.1-4.1V19.9l4.1-4.1.1.1 4.9 2.8c1.4.8 1.4 2.1 0 2.9l-5 2.7z" stroke="#fff" stroke-miterlimit="10"/><path d="M27.1 24.2L22.9 20 10.4 32.5c.5.5 1.2.5 2.1.1l14.6-8.4zM27.1 15.8L12.5 7.5c-.9-.5-1.6-.4-2.1.1L22.9 20l4.2-4.2z" stroke="#fff" stroke-miterlimit="10"/><path opacity=".12" d="M32 21.3l-5 2.8.1.1 4.9-2.8c.7-.4 1-.9 1-1.4 0 .5-.4.9-1 1.3z" fill="#000" stroke="#fff" stroke-miterlimit="10"/><path d="M42.1 14.3h-.7v-2h.6c.5-.4.8-1.2.8-2.3V7h4v5.3h.7v2h-.7V13h-4.6v1.3h-.1zm1.4-4.3c0 .9-.2 1.7-.6 2.3h3V7.7h-2.5V10h.1zM53.4 12.2c-.6.6-1.3.9-2.2.9-.9 0-1.6-.3-2.2-.9-.6-.6-.9-1.3-.9-2.2 0-.9.3-1.6.9-2.2.6-.6 1.3-.9 2.2-.9.9 0 1.6.3 2.2.9.6.6.9 1.3.9 2.2 0 .9-.3 1.6-.9 2.2zm-3.8-.5c.4.4 1 .7 1.6.7.6 0 1.2-.2 1.6-.7.4-.4.7-1 .7-1.7s-.2-1.3-.7-1.7c-.4-.4-1-.7-1.6-.7-.6 0-1.2.2-1.6.7-.4.4-.7 1-.7 1.7s.2 1.3.7 1.7zM58.2 13.1c-.9 0-1.6-.3-2.2-.9-.6-.6-.9-1.3-.9-2.2 0-.9.3-1.6.9-2.2.6-.6 1.3-.9 2.2-.9.9 0 1.6.3 2.2 1l-.5.5c-.4-.5-1-.8-1.7-.8s-1.2.2-1.7.7c-.5.4-.7 1-.7 1.7s.2 1.3.7 1.7c.4.4 1 .7 1.7.7s1.3-.3 1.8-.9l.5.5c-.3.3-.6.6-1 .8-.4.2-.8.3-1.3.3zM63.7 13h-.8V7.7h-1.7V7h4.1v.7h-1.7V13h.1zM70.6 7l-2.3 5.1c-.3.7-.8 1.1-1.4 1.1-.2 0-.4 0-.6-.1l.2-.7c.1.1.3.1.4.1.2 0 .3 0 .4-.1.1-.1.2-.2.3-.4l.2-.5-2-4.4h.9l1.5 3.4L69.7 7h.9zM71.5 13V7h4.3v6H75V7.7h-2.8V13h-.7zM77.2 13V7h.8v2.6h3V7h.8v6H81v-2.7h-3V13h-.8zM88.1 12.2c-.6.6-1.3.9-2.2.9-.9 0-1.6-.3-2.2-.9-.6-.6-.9-1.3-.9-2.2 0-.9.3-1.6.9-2.2.6-.6 1.3-.9 2.2-.9.9 0 1.6.3 2.2.9.6.6.9 1.3.9 2.2-.1.9-.4 1.6-.9 2.2zm-3.9-.5c.4.4 1 .7 1.6.7.6 0 1.2-.2 1.6-.7.4-.4.7-1 .7-1.7s-.2-1.3-.7-1.7c-.4-.4-1-.7-1.6-.7-.6 0-1.2.2-1.6.7a2.413 2.413 0 0 0 0 3.4zM92.1 13V7h2.2c.5 0 .9.2 1.2.5.3.3.5.7.5 1.1 0 .3-.1.5-.2.8-.1.2-.3.4-.6.5.3.1.5.3.7.5.2.2.3.5.3.9 0 .5-.2.9-.5 1.2-.4.3-.8.5-1.3.5h-2.3zm.8-3.4h1.4c.3 0 .5-.1.7-.3.2-.2.3-.4.3-.6 0-.2-.2-.5-.3-.7-.2-.2-.4-.3-.7-.3h-1.4v1.9zm0 2.7h1.6c.3 0 .5-.1.7-.3.2-.2.3-.4.3-.7 0-.2-.1-.5-.3-.7-.2-.2-.4-.3-.7-.3H93v2h-.1z" fill="#fff"/></symbol><symbol id="gsm" viewBox="0 0 31 30"><path d="M9.233 25.31v-3.887m0 3.888h7.125c.543 0 1.018-.454 1.018-.972V13.323c0-.519-.475-.972-1.018-.972h-3.054M9.233 25.31H6.179c-.543 0-1.018-.454-1.018-.972V13.323c0-.519.475-.972 1.018-.972h3.054m0 12.96v.064m4.071-.194v-2.592c0-.648-.543-1.166-1.221-1.166h-2.85m0 0v-.065m0 .065H5.365m7.94-9.072v3.24m0-3.24H9.232m4.071 0v-.13m0 3.37H9.233m4.071 0h4.072m-4.072 0v.13m-4.071-.13v-3.24m0 3.24H5.365m3.868 0v.13m0-3.37v-.13M17.036.687h3.8l8.482 8.035c.204.195.272.454.272.713v17.69c0 .777-.679 1.49-1.56 1.49M18.325 5.353L13.44.687H2.65c-.882 0-1.56.713-1.56 1.49V27.19c0 .777.746 1.425 1.56 1.425h17.915c.882 0 1.56-.712 1.56-1.49V9.435c0-.26-.135-.518-.27-.713l-3.597-3.37" stroke="#181818"/></symbol><symbol id="home-icon" viewBox="0 0 27 24"><g clip-path="url(#a)" fill="inherit"><path d="M25.168 23.601H1.83h23.337zm-5.416-10.764H7.246h12.505zm-7.407 7.336h-1.116 1.116zm-.24 3.428v-7.415H8.681v7.415H5.256a.545.545 0 0 1-.558-.558V12.518v.32H.955L13.46.557l12.504 12.28H22.3v-.32 10.525a.545.545 0 0 1-.557.558h-9.637zm3.346-7.415v3.987h2.867v-3.987H15.45z" stroke="inherit"/><path d="M15.451 16.186h2.867v3.987h-2.867v-3.987z"/></g></symbol><symbol id="icon1" viewBox="0 0 30 27"><path d="M20.213 25.83c-.183 0-.274-.09-.366-.27L15.548 13.5H13.72L9.42 25.65c-.091.18-.274.27-.457.18-.183-.09-.274-.27-.183-.45l4.39-12.42c.092-.18.183-.27.366-.27h2.378c.183 0 .275.09.366.27l4.39 12.42c.092.18 0 .36-.183.45h-.274z"/><path d="M16.646 16.11h-4.024c-.183 0-.366-.18-.366-.36s.183-.36.366-.36h4.024c.183 0 .366.18.366.36s-.183.36-.366.36zM17.378 18.54h-5.58c-.182 0-.365-.18-.365-.36s.183-.36.366-.36h5.579c.183 0 .366.18.366.36s-.092.36-.366.36zM18.476 20.97h-7.683c-.183 0-.366-.18-.366-.36s.183-.36.366-.36h7.683c.183 0 .365.18.365.36s-.183.36-.366.36zM19.299 23.4h-9.238c-.183 0-.366-.18-.366-.36s.183-.36.366-.36h9.33c.182 0 .365.18.365.36-.091.27-.274.36-.457.36zM20.305 27H9.147c-.732 0-1.28-.45-1.28-.9 0-.54.548-.9 1.28-.9h11.158c.732 0 1.28.45 1.28.9s-.548.9-1.28.9zM9.147 25.83c-.366 0-.55.18-.55.27 0 .09.184.27.55.27h11.158c.366 0 .549-.18.549-.27 0-.09-.183-.27-.549-.27H9.147zM9.787 11.97c-.092 0-.183 0-.274-.09L2.104 4.5c-.183-.18-.183-.36 0-.54.183-.18.366-.18.549 0l7.408 7.29c.183.18.183.36 0 .54-.091.09-.183.18-.274.18zM15.915 11.97c-.092 0-.183 0-.275-.09L8.232 4.5c-.092-.09-.092-.36 0-.45.183-.18.366-.18.548 0l7.409 7.29c.183.18.183.36 0 .54-.091 0-.183.09-.274.09zM22.043 11.97c-.091 0-.183 0-.274-.09L14.452 4.5c-.183-.18-.183-.36 0-.54.183-.18.366-.18.548 0l7.409 7.29c.183.18.183.36 0 .54-.183.09-.274.18-.366.18zM28.628 11.97c-.092 0-.183 0-.275-.09L20.945 4.5c-.183-.18-.183-.36 0-.54.183-.18.366-.18.549 0l7.408 7.29c.183.18.183.36 0 .54-.091.09-.183.18-.274.18zM4.756 26.73H2.012c-.183 0-.366-.18-.366-.36V11.79c0-.18.183-.36.366-.36s.366.18.366.36v14.22H4.39V11.7c0-.18.183-.36.366-.36s.366.18.366.36v14.58c0 .27-.183.45-.366.45z"/><path d="M2.012 4.59c-.183 0-.366-.18-.366-.36V.36c0-.18.183-.36.366-.36h2.653c.183 0 .366.18.366.36v3.87c.091.18-.092.27-.275.27-.183 0-.366-.09-.366-.27V.72H2.378v3.51c0 .18-.091.36-.366.36zM27.714 26.73H25.06c-.183 0-.366-.18-.366-.36V11.79c0-.18.183-.36.366-.36s.366.18.366.36v14.22h2.012V11.79c0-.18.183-.36.366-.36s.366.18.366.36v14.58c-.091.18-.274.36-.457.36zM25.061 4.59c-.183 0-.366-.18-.366-.36V.36c0-.18.183-.36.366-.36h2.653c.183 0 .366.18.366.36v3.87c0 .18-.183.36-.366.36s-.366-.18-.366-.36V.72h-2.012v3.51c.091.18-.092.36-.275.36z"/><path d="M29.634 11.97H.366c-.183 0-.366-.18-.366-.36V4.32c0-.18.183-.36.366-.36h29.268c.183 0 .366.18.366.36v7.29c0 .18-.183.36-.366.36zM.732 11.25h28.536V4.68H.732v6.57z"/></symbol><symbol id="icon2" viewBox="0 0 29 29"><path d="M14.5 0c-.2 0-.3.2-.3.3V3c0 .2.2.3.3.3 2.8 0 5.7 1.1 7.9 3.3 2.2 2.2 3.3 5 3.3 7.9 0 .2.2.3.3.3h2.7c.2 0 .3-.2.3-.3 0-3.7-1.4-7.4-4.2-10.3C21.9 1.4 18.2 0 14.5 0zm.3.7c3.4.1 6.8 1.4 9.4 4 2.6 2.6 4 6 4 9.4h-2c-.1-2.9-1.2-5.8-3.5-8-2.2-2.2-5.1-3.4-8-3.5l.1-1.9z" fill="#8C94A8"/><path d="M14.5 5.4c-.2 0-.3.2-.3.3v2.7c0 .2.2.3.3.3 1.5 0 2.9.6 4.1 1.7 1.1 1.1 1.7 2.6 1.7 4.1 0 .2.2.3.3.3h2.6c.1 0 .2 0 .3-.1.1-.1.1-.2.1-.3 0-2.3-.9-4.6-2.7-6.4-1.7-1.7-4.1-2.6-6.4-2.6zm.3.7c2.1.1 4.1.9 5.6 2.5 1.6 1.6 2.4 3.6 2.5 5.6h-2c-.1-1.5-.7-3-1.9-4.2-1.2-1.2-2.7-1.8-4.2-1.9v-2zM4.5 4.1c-.1 0-.2 0-.2.1-5.7 5.7-5.7 14.8 0 20.5 5.7 5.7 14.8 5.7 20.5 0 .1-.1.1-.3 0-.5L17.4 17c1.3-1.5 1.2-3.7-.2-5.2-1.4-1.4-3.7-1.5-5.2-.2L4.7 4.2s-.1-.1-.2-.1zm0 .9l7.3 7.3c.1.1.3.1.5 0 1.2-1.2 3.2-1.2 4.5 0 1.2 1.2 1.2 3.2 0 4.5-.1.1-.1.3 0 .5l7.3 7.3c-5.4 5.2-14 5.1-19.3-.2C-.6 19-.7 10.4 4.5 5z" fill="#8C94A8"/></symbol><symbol id="icon_cctv2" viewBox="0 0 45 45"><g clip-path="url(#a)"><path d="M36.3 24.1c-.1.3-.4.3-.6.1l1.3-3.1.5.2-1.2 2.8zm-16.8-1.4c2.7 1.2 5.3 2.3 7.8 3.4 1.7.8 3.8 1 5.3-.2l1.9.8.6-1.4c.5.2.8.3 1.3.1.4-.1.7-.4.9-.8l1.2-2.7.9.4 5.3-4.1L2.5 0C1 3.5-1.6 8 2 11.1L.5 14.5l6.9 3-1.6 3.8c.8.4 1.6.8 1.3 1.9-.9 2.1-.1 4.5 1.7 5.7v4.8H4v-4.4H0v14.2h4v-4.4h4.7v3.1c0 3.5 5.2 3.5 5.2 0V29c.8-.6 1.5-1.4 1.8-2.3.6-.7 1.3-.4 2.1-.1l1.7-3.9zm-18.3 8h1.7V35h5.9v3H2.9v4.4H1.2V30.7zM8.4 18l10 4.3-1.2 2.8c-.4-.1-.8 0-1.1.1 0-1.9-1.1-3.7-2.9-4.4-1.8-.8-3.9-.4-5.2 1-.2-.4-.4-.7-.8-.9L8.4 18zm4.4 11.6v12.8c0 1.9-2.9 1.9-2.9 0V29.6c1 .3 2 .3 2.9 0zm-2.7-7.8c3-1.2 5.7 1.9 4.5 4.7-.8 1.8-2.9 2.6-4.6 1.8-2.9-1.2-2.8-5.3.1-6.5zM2 14l.9-2.1c.8.5 1.6.9 2.4 1.2 4.9 2.2 10 4.2 15 6.4 2.2-1.8 3.8-4 6.9-2.5 1.4.6 3.8 1.7 7.1 3l-2.1 4.8c-1.4 1.2-2.9.8-4.5.2-8.5-3.7-17.1-7.3-25.7-11zm25.6 1.9c-3.6-1.5-5 .2-7.5 2.2-4.9-2.1-9.8-4.1-14.7-6.3C-.3 9.2 1.2 6.1 3.2 1.6l39.2 16.8-3.1 2.4c-3.9-1.6-7.8-3.3-11.7-4.9zm8.3 4.8c-.6 1.5-1.3 3-1.9 4.5l-.6-.2 1.9-4.5.6.2z" fill="#0E334F"/></g></symbol><symbol id="icon_channels 1" viewBox="0 0 24 22"><g clip-path="url(#a)" fill="#0063FA"><path d="M19.3 17.1H4.7c-1.3 0-2.6-.6-3.5-1.6-.9-1-1.3-2.4-1.1-3.7l1.4-8C1.8 1.6 3.7 0 6 0h12c2.3 0 4.2 1.6 4.6 3.9l1.4 8c.2 1.4-.2 2.7-1.1 3.7-.9 1-2.2 1.5-3.6 1.5zM6 1.5c-1.6 0-2.9 1.1-3.1 2.6l-1.4 8c-.1.9.2 1.8.8 2.5.6.7 1.5 1.1 2.4 1.1h14.7c.9 0 1.8-.4 2.4-1.1.6-.7.9-1.6.8-2.5l-1.4-8c-.3-1.5-1.6-2.6-3.1-2.6H6z"/><path d="M19.3 22H4.7C2.1 22 0 20 0 17.4v-4.9c0-.4.3-.7.7-.7.4 0 .7.3.7.7v4.9c0 1.8 1.4 3.2 3.2 3.2h14.7c1.8 0 3.2-1.4 3.2-3.2v-4.9c0-.4.3-.7.7-.7.4 0 .7.3.7.7v4.9c.1 2.6-2 4.6-4.6 4.6z"/><path d="M8.6 12.2c-.4 0-.7-.3-.7-.7V5.6c0-.4.3-.7.7-.7.4 0 .7.3.7.7v5.9c0 .4-.3.7-.7.7z"/><path d="M10.5 6.4H6.6c-.4 0-.7-.4-.7-.8s.3-.7.7-.7h3.9c.4 0 .7.3.7.7.1.4-.3.8-.7.8zM14.9 12.2c-.3 0-.6-.2-.7-.5l-2.4-5.9c-.2-.4 0-.8.4-1 .4-.2.8 0 1 .4L15 9.4l1.8-4.2c.2-.4.6-.6 1-.4.4.2.6.6.4 1l-2.4 5.9c-.3.4-.6.5-.9.5z"/></g></symbol><symbol id="icon_internet" viewBox="0 0 56 39"><g clip-path="url(#a)" fill="#0E334F"><path d="M52.181 39H3.79c-2.1 0-3.82-1.698-3.82-3.777V32.5c0-.586.496-1.084 1.08-1.084h19.21c.292 0 .583.118.787.323l1.4 1.463h10.552c.613 0 1.08.498 1.08 1.084 0 .585-.496 1.083-1.08 1.083H22.01c-.291 0-.583-.117-.787-.322l-1.399-1.464H2.157v1.67c0 .877.729 1.61 1.662 1.61H52.21c.904 0 1.662-.703 1.662-1.61v-1.67H35.74A1.079 1.079 0 0 1 34.66 32.5c0-.586.496-1.084 1.079-1.084h19.21c.613 0 1.08.498 1.08 1.084v2.752C56 37.331 54.31 39 52.18 39z"/><path d="M52.385 33.583a1.078 1.078 0 0 1-1.078-1.083V3.894c0-.937-.788-1.727-1.72-1.727H6.413c-.933 0-1.72.79-1.72 1.727v25.473c0 .586-.495 1.084-1.078 1.084a1.098 1.098 0 0 1-1.079-1.084V3.894C2.536 1.757 4.286 0 6.413 0h43.174c2.128 0 3.877 1.757 3.877 3.894V32.5a1.06 1.06 0 0 1-1.079 1.083z"/><path d="M49.004 6.207H3.614a1.098 1.098 0 0 1-1.078-1.083c0-.586.496-1.083 1.079-1.083h45.389c.612 0 1.078.497 1.078 1.083.03.585-.466 1.083-1.078 1.083zM22.243 23.834a.923.923 0 0 1-.583-.235c-.321-.322-.321-.849 0-1.142l11.252-11.301c.32-.322.845-.322 1.137 0 .32.322.32.849 0 1.141L22.826 23.6a.924.924 0 0 1-.583.235zM27.257 24.594a.924.924 0 0 1-.583-.234c-.321-.322-.321-.849 0-1.142l6.996-6.997c.32-.322.845-.322 1.137 0 .32.322.32.849 0 1.141L27.81 24.36c-.116.147-.35.234-.553.234z"/></g></symbol><symbol id="icon_products1" viewBox="0 0 24 26"><g clip-path="url(#a)"><path d="M11.9 0L0 4.5v16.3L11.9 26l11.9-5.2V4.5L11.9 0zm-.7 24.2l-9.8-4.3V6l9.8 3.7v14.5zM2.7 4.9l9.2-3.5 9.2 3.5-9.2 3.5-9.2-3.5zm19.7 15l-9.8 4.3V9.6L22.4 6v13.9z" fill="#0063FA"/></g></symbol><symbol id="icon_tel" viewBox="0 0 28 47"><g clip-path="url(#a)" fill="#0E334F"><path d="M13.8 44c-1.4 0-2.5-1.1-2.5-2.5s1.1-2.6 2.5-2.6c.5 0 .9.4.9.9s-.4.9-.9.9c-.4 0-.7.3-.7.7 0 .4.3.7.7.7.4 0 .7-.3.7-.7 0-.5.4-.9.9-.9s.9.4.9.9c0 1.4-1.1 2.6-2.5 2.6z"/><path d="M23.9 47H3.6c-2 0-3.6-1.7-3.6-3.7V3.7C0 1.7 1.6 0 3.6 0h20.3c2.1 0 3.7 1.6 3.7 3.7v17.4c0 .5-.4.9-.9.9s-.9-.4-.9-.9V3.7c0-1-.8-1.9-1.9-1.9H3.6c-1 0-1.8.8-1.8 1.9v39.6c0 1 .8 1.9 1.8 1.9h20.3c1 0 1.9-.9 1.9-1.9V24.5c0-.5.4-.9.9-.9s.9.4.9.9v18.8c0 2-1.7 3.7-3.7 3.7z"/><path d="M17.6 4.8H10c-.5 0-.9-.4-.9-.9s.4-.9.9-.9h7.5c.5 0 .9.4.9.9.1.5-.3.9-.8.9zM23.8 37.7h-20c-.5 0-.9-.4-.9-.9V6.9c0-.5.4-.9.9-.9h20c.5 0 .9.4.9.9v29.9c0 .5-.4.9-.9.9zM4.7 35.9h18.2V7.8H4.7v28.1z"/><path d="M9.5 24.2c-.1 0-.3-.1-.4-.2-.2-.2-.2-.6 0-.8l7.5-7.5c.2-.2.6-.2.8 0 .2.2.2.6 0 .8L9.9 24c-.1.2-.2.2-.4.2zM12.9 24.8c-.1 0-.3-.1-.4-.2-.2-.2-.2-.6 0-.8l4.7-4.7c.2-.2.6-.2.8 0 .2.2.2.6 0 .8l-4.7 4.7c-.1.1-.3.2-.4.2z"/></g></symbol><symbol id="icon_tv" viewBox="0 0 52 40"><g clip-path="url(#a)" fill="#0E334F"><path d="M51 34.9H1c-.6 0-1-.4-1-1V1c0-.6.4-1 1-1h50c.6 0 1 .4 1 1v16.9c0 .6-.4 1-1 1s-1-.4-1-1V2H2v30.9h48V21.6c0-.6.4-1 1-1s1 .4 1 1v12.3c0 .6-.4 1-1 1z"/><path d="M5.8 39.3c-.2 0-.3 0-.5-.1-.5-.3-.7-.9-.4-1.3l2.2-4.3c.3-.6.9-.8 1.4-.6.5.3.7.9.4 1.3l-2.2 4.3c-.1.5-.5.7-.9.7zM46.2 39.3c-.4 0-.7-.2-.9-.6l-2.2-4.3c-.3-.5-.1-1.1.4-1.3.5-.3 1.1-.1 1.3.4l2.2 4.3c.3.5.1 1.1-.4 1.3-.1.1-.3.2-.4.2zM51 30.8H4.1c-.6 0-1-.4-1-1s.4-1 1-1H51c.6 0 1 .4 1 1s-.4 1-1 1zM18.6 22.8c-.3 0-.5-.1-.7-.3-.4-.4-.4-1 0-1.4L31.8 7.3c.4-.4 1-.4 1.4 0 .4.4.4 1 0 1.4L19.3 22.5c-.2.2-.5.3-.7.3zM24.8 23.8c-.3 0-.5-.1-.7-.3-.4-.4-.4-1 0-1.4l8.6-8.6c.4-.4 1-.4 1.4 0 .4.4.4 1 0 1.4l-8.6 8.6c-.2.2-.5.3-.7.3z"/></g></symbol><symbol id="left" viewBox="0 0 10 18"><path d="M11.2 16.93L10.036 18 .4 9.176 10.036.353 11.2 1.417l-8.466 7.76L11.2 16.93z" fill="#0063FA"/></symbol><symbol id="lk" viewBox="0 0 24 22"><g clip-path="url(#a)" fill="#0968FA"><path d="M12.048 14.824a.518.518 0 0 0-.287.472c0 .189.096.378.191.472a.735.735 0 0 0 .478.19.527.527 0 0 0 .478-.284l4.494-4.438c.287-.283.287-.66 0-.85L12.908 5.95c-.095-.095-.287-.19-.478-.284a.735.735 0 0 0-.478.19.717.717 0 0 0-.191.471c0 .19.096.378.287.472l3.346 3.4H.67a.65.65 0 0 0-.669.66.65.65 0 0 0 .67.661h14.724l-3.346 3.305z"/><path d="M23.713 2.077c-.191-.377-.382-.755-.765-1.133A3.442 3.442 0 0 0 21.801.19C21.418.094 21.036 0 20.558 0h-10.9c-.479 0-.861.094-1.34.283-.382.19-.764.378-1.051.756-.383.283-.574.66-.765 1.038-.191.472-.287.85-.287 1.322v3.116a.65.65 0 0 0 .67.661.65.65 0 0 0 .669-.661V3.399c0-.566.191-1.038.573-1.416.383-.378.957-.567 1.435-.567h10.9c.574 0 1.052.19 1.434.567.383.378.574.944.574 1.416v15.107c0 .567-.191 1.04-.574 1.417-.382.377-.956.566-1.434.566H9.657c-.573 0-1.051-.189-1.434-.566-.382-.378-.574-.944-.574-1.417v-3.304a.65.65 0 0 0-.669-.661.65.65 0 0 0-.67.66v3.305c0 .473.096.85.288 1.322.19.378.382.756.764 1.133.287.284.67.567 1.148.756.382.189.86.283 1.339.283h10.9c.478 0 .86-.094 1.339-.283.382-.19.764-.378 1.147-.756.287-.283.574-.66.765-1.133.191-.377.287-.85.287-1.322V3.4c-.287-.472-.383-.85-.574-1.322z"/></g></symbol><symbol id="logo" viewBox="0 0 143 26"><path d="M17.065 15.127v7.942a7.634 7.634 0 0 1-2.002 1.418c-.668.379-1.43.662-2.288.946a9.67 9.67 0 0 1-2.956.473 9.665 9.665 0 0 1-3.718-.757c-1.144-.473-2.192-1.229-3.146-2.08-.953-.85-1.62-1.89-2.192-3.12-.572-1.229-.858-2.458-.858-3.782 0-1.229.286-2.458.762-3.687.668-1.135 1.335-2.08 2.193-3.025.858-.946 1.907-1.608 3.146-2.175 1.24-.567 2.479-.85 3.813-.85 1.526 0 2.956.283 4.1.85 1.239.567 2.192 1.418 3.146 2.364 0 0-.096.094-.382.283-.286.19-.572.379-.858.662-.381.284-.762.567-1.239.851-.572-.567-1.24-1.04-2.097-1.324-.858-.283-1.716-.472-2.67-.472-.762 0-1.62.189-2.383.472-.763.379-1.43.851-2.097 1.418-.572.662-1.144 1.419-1.526 2.175-.381.757-.572 1.607-.572 2.553 0 .85.191 1.607.477 2.363.381.757.858 1.513 1.43 2.08a8.465 8.465 0 0 0 2.097 1.513c.763.378 1.621.567 2.574.567.763 0 1.43-.094 2.193-.283a6.91 6.91 0 0 0 1.907-.851v-3.215H9.915v-3.309h7.15zM74.074 6.43h3.337V26L64.255 13.898V26h-3.337V6.43l13.156 12.1V6.43zM95.429 22.69V26H82.273V6.43h3.336v16.26h9.82zM103.627 6.524h-3.241V26h3.241V6.524zM121.645 6.43h3.337V26l-13.156-12.102V26h-3.241V6.43l13.06 12.1V6.43zM129.844 6.524H143v3.214h-13.156V6.524zm11.726 11.345h-11.631v-3.214h11.631v3.214zm-11.726 4.822H143v3.215h-13.156V22.69z" fill="#0064FA"/><path d="M58.535 15.6L43.186 0l-3.337 21.556 3.814-1.229v-.094c.858-1.608 2.574-3.12 4.862-3.782 2.288-.757 4.576-.567 6.196.284l3.814-1.135zm-11.059-2.27c-1.144.38-2.193.852-3.146 1.514l1.049-7.942 5.529 5.862c-1.049 0-2.288.189-3.432.567z" fill="#2EFFBB"/><path d="M32.985 17.964c2.288-.851 3.909-3.026 3.909-5.578 0-3.31-2.67-5.957-6.006-5.957h-8.961v3.215h8.866c1.525 0 2.764 1.229 2.764 2.742 0 1.512-1.239 2.741-2.764 2.741h-8.866V26h3.241v-7.564h4.195L33.557 26h3.718l-4.29-8.036z" fill="#0064FA"/><path d="M44.33 14.844c-2.574 1.702-4.195 4.16-4.48 6.712l3.717-1.134v-.095l.763-5.483zM54.817 16.83l3.718-1.135c-1.716-1.891-4.481-2.931-7.532-2.837l3.814 3.971c-.096-.095 0 0 0 0z" fill="#00FF64"/></symbol><symbol id="mail_" viewBox="0 0 17 13"><path d="M14.296 0C15.764 0 17 1.216 17 2.66v7.68c0 1.444-1.16 2.66-2.627 2.66H2.705C1.159 12.924 0 11.708 0 10.263V2.661C0 1.216 1.236 0 2.705 0h11.59zm-4.019 7.222l-.231.152c-.85.837-2.164.913-3.091.076L6.8 7.298l-4.636 4.258c.154.076.231.076.386.076h11.745c.155 0 .387 0 .541-.076l-4.559-4.334zm-8.886-5.17c-.077.153-.155.38-.155.609v7.678c0 .152 0 .228.078.304l4.559-4.257L1.39 2.053zm14.14 0l-4.404 4.334 4.482 4.257c0-.076 0-.152.077-.228v-7.83c0-.152-.077-.38-.154-.532zm-1.236-.836H2.474l5.254 5.322c.387.38.928.38 1.314.076l.077-.076 5.332-5.246s-.077-.076-.154-.076z" fill="#0063FA"/></symbol><symbol id="module-icon" viewBox="0 0 24 23"><g clip-path="url(#a)" fill="inherit"><path d="M2.511 20.434c.465.458.465 1.191 0 1.741-.465.459-1.209.459-1.767 0-.465-.458-.465-1.283 0-1.74.558-.459 1.302-.459 1.767 0zm18.977 0c.465-.458 1.21-.458 1.768 0 .465.458.465 1.191 0 1.741-.466.459-1.21.459-1.768 0a1.114 1.114 0 0 1 0-1.74zM2.511 2.566c-.465.458-1.209.458-1.767 0-.558-.458-.465-1.192 0-1.741.465-.55 1.21-.458 1.767 0 .558.458.558 1.19 0 1.74zm18.977 0c-.465-.458-.465-1.192 0-1.741.465-.55 1.21-.458 1.768 0 .465.458.465 1.283 0 1.74-.559.367-1.303.367-1.768 0zM5.674 17.41l-3.07 3.024 3.07-3.024zm12.651 0l3.07 3.024-3.07-3.024zM5.675 5.59L2.51 2.566 5.674 5.59zm12.65 0l3.07-3.024-3.07 3.024z" stroke="inherit"/><path d="M12.559 6.598h1.488c.28 0 .558 0 .837.091.28.092.466.092.745.275.186.183.465.367.558.55.186.275.279.55.279.825 0 .183.093.458.093.641 0 .275 0 .55.093.825v3.574c0 .274-.093.641-.186.916s-.28.641-.465.825c-.186.183-.372.275-.558.366-.28 0-.559.092-.838.092-.279 0-.465.091-.744.091H12.56c-.93 0-1.768 0-2.698-.091-.372 0-.65-.092-.93-.092-.186-.091-.465-.091-.651-.275a2.158 2.158 0 0 1-.651-.641l-.28-.825c.094-.092.094-.366.094-.55 0-.366-.093-.824-.093-1.191v-2.29c.093-.367.093-.55.093-.826 0-.274.093-.55.093-.824.093-.275.186-.458.372-.733a2.03 2.03 0 0 1 .744-.458c.279-.092.558-.184.837-.184.28 0 .465 0 .744-.091h2.326z"/></g></symbol><symbol id="phone" viewBox="0 0 20 30"><g clip-path="url(#a)" fill="#0063FA"><path d="M7.8 26.1c0-.2.1-.5.3-.6.2-.2.4-.3.6-.3h2.2c.3 0 .6.2.8.4.2.3.2.6 0 .9-.2.3-.4.4-.8.4H8.6c-.2 0-.5-.1-.6-.3-.1-.1-.2-.3-.2-.5z"/><path d="M18.8.7c-.4-.4-1-.7-1.7-.7H2.3C1.7 0 1.1.2.7.7c-.5.4-.7 1-.7 1.6v25.3c0 .6.2 1.2.7 1.7.4.4 1 .7 1.7.7h14.8c.6 0 1.2-.2 1.7-.7.4-.4.7-1 .7-1.7V2.3c-.1-.6-.3-1.2-.8-1.6zm-5.2 1.1l-.3.9H6.2l-.3-.9h7.7zm4.2 25.9c0 .3-.3.6-.6.6H2.3c-.3 0-.6-.3-.6-.6v-3.6h16v3.6h.1zm0-5.4h-16v-20c0-.3.2-.5.5-.5H4l.7 2.1c.1.1.2.2.3.4.2.1.3.2.5.2h8.4c.2 0 .4-.1.5-.2.2-.1.3-.3.3-.4l.7-2.1h1.7c.3 0 .6.3.6.6v19.9h.1z"/></g></symbol><symbol id="photo" viewBox="0 0 30 26"><path d="M16.965 9.831c0-.65.49-1.115 1.175-1.115.686 0 1.175.464 1.175 1.115s-.49 1.116-1.175 1.116c-.686 0-1.175-.465-1.175-1.116z" fill="#181818"/><path d="M10.696 13.086H9.325m1.37 3.905h-1.37m1.37-1.952h-2.84m4.995 1.673v2.697c0 .093-.195.372-.391.372h-2.84m4.896-6.788l-.49.65-1.077 1.489c-.098.093-.098.279.098.372l4.016 2.79c.098 0 .098.092.098.185v3.534m-2.84-5.58l3.33-4.09m0 0l-1.372-1.303h-2.644c-.098 0-.196 0-.196.093l-1.273 1.674m5.485-.465v2.325c0 .186.097.279.293.279h2.84M5.114 2.114c0-.372.588-1.023 1.078-1.023h18.216c.49 0 1.078.558 1.078 1.023M3.056 4.066c0-.465.49-1.023 1.077-1.023h22.428c.587 0 1.077.558 1.077 1.023M2.273 24.988c-.685 0-1.273-.465-1.273-1.023V6.205c0-.558.588-1.023 1.273-1.023h26.248c.685 0 .979.465.979 1.023v17.76c0 .558-.294 1.023-.98 1.023H2.274z" stroke="#181818"/></symbol><symbol id="setting-icon" viewBox="0 0 17 25"><g clip-path="url(#a)" fill="inherit"><path d="M6.815 21.857c0 .146.16 1.242 1.604 1.242 1.443 0 1.684-1.023 1.684-1.242m-2.005-11.33V3.435m0 7.09h6.335m-6.335 0H2.485m5.613 0v6.872m8.42-7.091c.24 3.801.481 14.254-8.019 14.254C0 24.634.24 14.181.48 10.307.801 5.482 2.645.365 8.5.365c5.853 0 7.777 5.337 8.018 9.942z" stroke="inherit"/><path d="M6.816 7.822c0 .657-.561 1.17-1.203 1.17-.722 0-1.283-.513-1.283-1.097v-.073c0-.658.561-1.097 1.283-1.097.642 0 1.123.512 1.203 1.097zm5.212 0c0 .657-.561 1.17-1.283 1.17-.721 0-1.283-.513-1.283-1.17 0-.658.562-1.17 1.283-1.17.722 0 1.283.585 1.283 1.17zM6.816 13.23c0 .658-.561 1.17-1.203 1.17-.722 0-1.283-.512-1.283-1.097v-.073c0-.658.561-1.097 1.283-1.097.642 0 1.123.512 1.203 1.097zm5.212 0c0 .658-.561 1.17-1.283 1.17-.721 0-1.283-.512-1.283-1.17 0-.658.562-1.17 1.283-1.17.722 0 1.283.512 1.283 1.17z"/></g></symbol><symbol id="start-icon" viewBox="0 0 25 24"><g clip-path="url(#a)" fill="inherit"><path d="M19.452 18.394c-2.182.252-3.928.252-4.302.315m-4.676-.063c-.436 0-1.808 0-3.553-.126l3.553.126zM3.43 12.409c0-.378 0-.944-.062-1.322a32.114 32.114 0 0 1 0-3.465c0-.378 0-.756.062-1.197 0-.504.063-.945.125-1.449 0-.567.062-1.07.25-1.637.124-.504.311-1.008.685-1.45.374-.503.873-.818 1.497-1.07A7.024 7.024 0 0 1 7.544.44C8.043.378 8.48.378 8.978.315c.436 0 .873-.063 1.31-.063.685 0 1.37-.063 2.119-.063h1.122c.561 0 1.06 0 1.621.063.436 0 .873.063 1.31.063.56.063 1.121.063 1.745.189.499.126.998.252 1.434.504.436.252.873.63 1.122 1.07.312.505.437 1.009.561 1.576l.187 1.322c.063.504.063 1.071.125 1.575.062 1.134.062 2.268.062 3.402v1.197c0 .503 0 1.07-.062 1.574L3.429 12.41z" stroke="inherit"/><path d="M10.475 9.953V9.07h3.927v.882h-3.927z"/><path d="M3.617 12.22c-1.87 0-3.304.945-3.304 1.575v7.37c0 2.016 1.807 2.457 3.304 2.457 1.62 0 3.242-.567 3.242-2.457v-7.37c0-.63-1.31-1.575-3.242-1.575z" stroke="inherit"/><path d="M1.933 19.968c-.187 0-.374-.189-.374-.44v-3.024c0-.252.187-.441.374-.441h3.242c.187 0 .374.189.374.44v3.025c0 .252-.187.44-.374.44H1.933zM23.942 23.244h-1.06c-.437 0-.81-.315-.81-.693v-9.008c0-.44.373-.63.81-.63h1.06c.436 0 .81.19.81.63v9.008c-.062.378-.436.693-.81.693zm-2.681 0H20.2c-.436 0-.81-.315-.81-.693v-9.008c0-.44.374-.63.81-.63h1.06c.436 0 .81.19.81.63v9.008c0 .378-.374.693-.81.693zM14.901 17.89c.063 1.197.125 4.41-2.244 4.41-2.37 0-2.307-3.213-2.245-4.41.063-1.512.624-3.087 2.245-3.087 1.62 0 2.182 1.638 2.244 3.087z" stroke="inherit"/><path d="M12.657 15.748v2.205h1.371-1.371v-2.205zm-1.31 2.205h1.372v2.142-2.142h-1.371z" stroke="inherit"/></g></symbol><symbol id="street-icon" viewBox="0 0 24 22"><g clip-path="url(#a)" fill="inherit"><path d="M23.37 21.64H.35h23.02zm-11.755-5.032h-1.75l6.018-6.04 6.018 6.04h-1.75v5.032h-8.536v-5.032z" stroke="inherit"/><path d="M14.834 18.261h2.03v3.092h-2.03V18.26z"/><path d="M5.598 21.497v-6.83M5.597 14.667c2.899 0 5.248-2.415 5.248-5.393 0-2.978-2.35-5.392-5.248-5.392S.35 6.296.35 9.274c0 2.979 2.35 5.393 5.247 5.393zM22.04 3.235c0-.719-.349-1.15-.909-1.366-.56-.287-1.12-.143-1.54.288-.559-.935-1.189-1.798-2.588-1.798h-.35c-1.26.144-2.309 1.223-2.519 2.517-.77.144-1.33.934-1.33 1.725v.072c0 1.079.77 1.798 1.68 1.798h7.557c.91 0 1.61-.791 1.61-1.726 0-.935-.7-1.51-1.61-1.51z" stroke="inherit"/></g></symbol><symbol id="tel_icon" viewBox="0 0 14 20"><g clip-path="url(#a)" fill="#0063FA"><path d="M5.2 17.4c0-.1.1-.3.2-.4.1-.1.3-.2.4-.2h1.5c.2 0 .4.1.5.3.1.2.1.4 0 .6-.1.2-.3.3-.5.3H5.7c-.1 0-.3-.1-.4-.2 0-.1-.1-.3-.1-.4z"/><path d="M12.5.5c-.2-.3-.6-.5-1.1-.5H1.5C1.1 0 .7.1.5.5c-.4.2-.5.6-.5 1v16.9c0 .4.1.8.5 1.1.2.3.6.5 1.1.5h9.9c.4 0 .8-.1 1.1-.5.3-.3.5-.7.5-1.1V1.5c-.1-.4-.2-.8-.6-1zm-3.4.7l-.2.6H4.1l-.2-.6h5.2zm2.8 17.3c0 .2-.2.4-.4.4h-10c-.2 0-.4-.2-.4-.4v-2.4h10.7l.1 2.4zm0-3.6H1.2V1.5c0-.2.1-.3.3-.3h1.1l.5 1.4c.1.1.1.1.2.3.2 0 .2.1.4.1h5.6c.1 0 .3-.1.3-.1.1-.1.2-.2.2-.3l.5-1.4h1.1c.2 0 .4.2.4.4l.1 13.3z"/></g></symbol><symbol id="time" viewBox="0 0 24 24"><path d="M12 3.2c-4.9 0-8.8 3.9-8.8 8.8s3.9 8.8 8.8 8.8 8.8-3.9 8.8-8.8-3.9-8.8-8.8-8.8zm0 1.6c4 0 7.2 3.2 7.2 7.2S16 19.2 12 19.2 4.8 16 4.8 12 8 4.8 12 4.8z" fill="#0063FA"/><path d="M11.2 7.2V12c0 .4.4.8.8.8h4.8c.4 0 .8-.4.8-.8s-.4-.8-.8-.8h-4v-4c0-.4-.4-.8-.8-.8s-.8.4-.8.8zM24 12c0 .4-.4.8-.8.8s-.8-.4-.8-.8.4-.8.8-.8.8.4.8.8zM23.6 15.1c-.1.4-.6.7-1 .6-.4-.1-.7-.6-.6-1 .1-.4.6-.7 1-.6.5.1.7.6.6 1zM22.4 18c-.2.4-.7.5-1.1.3-.4-.2-.5-.7-.3-1.1.2-.4.7-.5 1.1-.3.4.2.5.7.3 1.1zM20.5 20.5c-.3.3-.8.3-1.1 0-.3-.3-.3-.8 0-1.1.3-.3.8-.3 1.1 0 .3.3.3.8 0 1.1zM18 22.4c-.4.2-.9.1-1.1-.3-.2-.4-.1-.9.3-1.1.4-.2.9-.1 1.1.3.2.4.1.9-.3 1.1zM15.1 23.6c-.4.1-.9-.1-1-.6-.1-.4.1-.9.6-1 .4-.1.9.1 1 .6.1.4-.2.9-.6 1zM12 24c-.4 0-.8-.4-.8-.8s.4-.8.8-.8.8.4.8.8-.4.8-.8.8zM8.9 23.6c-.4-.1-.7-.6-.6-1 .1-.4.6-.7 1-.6.4.1.7.6.6 1-.1.5-.6.7-1 .6zM21 6.8c-.2-.4-.1-.9.3-1.1.4-.2.9-.1 1.1.3.2.4.1.9-.3 1.1-.4.2-.9.1-1.1-.3zM22 9.3c-.1-.4.1-.9.6-1 .4-.1.9.1 1 .6.1.4-.1.9-.6 1-.4.1-.8-.2-1-.6z" fill="#0063FA"/><path d="M9.3 22c-4.4-1.2-7.7-5.2-7.7-10C1.6 6.3 6.3 1.6 12 1.6c2.9 0 5.5 1.2 7.4 3.1.3.3.6.3.9.2.3-.1.5-.4.5-.7V.8c0-.4-.4-.8-.8-.8s-.8.4-.8.8v1.6C17.2.9 14.7 0 12 0 5.4 0 0 5.4 0 12c0 5.5 3.8 10.2 8.9 11.6.4.1.9-.1 1-.6.1-.4-.2-.8-.6-1z" fill="#0063FA"/></symbol><symbol id="topsale" viewBox="0 0 35 35"><path d="M24.2 14.8c.1-5.7-8.5-4.9-6.3-14.8 0 0-5.8 2.3-4.8 9.3.3 2.4-.5 4.2-.5 4.2-.9.2-2.2-1.5-1.7-4.1 0 0-3 2.3-3 5.2 0 2.9 1.4 6 1.4 6-3.5-.8-3.2-5.5-3.2-5.5s-2.2 3-2.2 8.6C3.9 28 8.8 35 16.8 35c7.9 0 14.3-6.2 14.3-11.6 0-2.4-.8-5.5-2.6-7.2 0 0 .2 4.8-2.1 4.6 0 0 2-6.2-.1-9.1 0-.1-1 3-2.1 3.1z" fill="url(#a)"/><path d="M24.3 10.5c2.3-4.3-3.4-4.8-3.4-7.5 0 0-1 2.7 1.4 4.5 1.9 1.6 2 3 2 3z" fill="url(#b)"/><path d="M12.1 2.4c-.9.9.3 4.4-2.4 5.8 0 0-.9-3.9 2.4-5.8z" fill="url(#c)"/><path opacity=".5" d="M5.7 16.5c-.8 1.3-1.8 3.7-1.8 7.2 0 3.8 4.9 10.9 12.9 10.9 7.8 0 13.8-6 13.8-11.2 0-1.9-.5-4.2-1.7-5.9-.1 1.1-.3 2.5-1.1 3.3-.4.4-.9.6-1.5.5l-.6-.1.2-.5c0-.1 1.5-4.9.4-7.8-.4 1.1-1.2 2.4-2.1 2.5h-.5v-.5c0-2.1-1.3-3.3-2.8-4.6-2.2-1.9-4.6-4-3.7-9.4-1.5.9-4.4 3.3-3.7 8.4.4 2.5-.5 4.4-.5 4.5v.1h-.2c-.4.1-.9-.1-1.3-.5-.6-.5-1.1-1.6-1.1-3-.8.9-2 2.4-2 4.1 0 2.8 1.4 5.8 1.4 5.8l.4.8-1-.1c-2.4-.5-3.3-2.7-3.5-4.5z" fill="url(#d)"/><path d="M20.8 3.1c-.2 1.6.4 3.8 1.4 4.5.9.7 1.9 1.9 2 2.9 1.5-3-.6-4.1-1.9-4.6-.5-.2-1.4-1.2-1.5-2.8z" fill="url(#e)"/><path d="M16.1 2.6c-3.4 5.4 1 11-1.3 14.4-2.3 3.4-4.6.3-4.8-1.9 0 0 0 6.9 3.4 9.6 3.4 2.7-6.5 2.1-7.9-1.2 0 0 0 11 11.2 11s13-10.2 13-10.2-4.1 3.5-6.8.8c0 0 2-3.6 2.5-7.2 0 0-1.4.9-3.6.5 0 0 1.2-5.1-1.2-6.8-3-2.1-5.6-7.3-4.5-9z" fill="url(#f)"/><path d="M16.9 8.9c-1.8 2.4 1.7 8.4-2 10.8-2 1.3-3.2-.3-3.2-.3s.5 2.5 2.7 4.6c2.2 2.2-3.3 5.1-7.7 1.3 0 0 1.5 9.2 11.8 7.6 11.5-1.6 10.7-10 10.7-10s-3.1 4.9-7.5 2.5c0 0 2.8-3.9 2.8-6.1 0 0-1.9 1.1-4 0 0 0 1-5.1-.2-5.9-2.9-1.8-3.4-4.5-3.4-4.5z" fill="url(#g)"/><path opacity=".5" d="M24.2 14.8c.1-5.7-8.5-4.9-6.3-14.8 0 0-5.8 2.3-4.8 9.3.3 2.4-.5 4.2-.5 4.2-.9.2-2.2-1.5-1.7-4.1 0 0-3 2.3-3 5.2 0 2.9 1.4 6 1.4 6-3.5-.8-3.2-5.5-3.2-5.5s-2.2 3-2.2 8.6C3.9 28 8.8 35 16.8 35c7.9 0 14.3-6.2 14.3-11.6 0-2.4-.8-5.5-2.6-7.2 0 0 .2 4.8-2.1 4.6 0 0 2-6.2-.1-9.1 0-.1-1 3-2.1 3.1z" fill="url(#h)"/><path opacity=".5" d="M24.2 14.8c.1-5.7-8.5-4.9-6.3-14.8 0 0-5.8 2.3-4.8 9.3.3 2.4-.5 4.2-.5 4.2-.9.2-2.2-1.5-1.7-4.1 0 0-3 2.3-3 5.2 0 2.9 1.4 6 1.4 6-3.5-.8-3.2-5.5-3.2-5.5s-2.2 3-2.2 8.6C3.9 28 8.8 35 16.8 35c7.9 0 14.3-6.2 14.3-11.6 0-2.4-.8-5.5-2.6-7.2 0 0 .2 4.8-2.1 4.6 0 0 2-6.2-.1-9.1 0-.1-1 3-2.1 3.1z" fill="url(#i)"/><path d="M4.6 21.3c.2 5.8 5 12.8 12.5 12.8s11.2-7.9 11.5-12.5c0 0-1.4 2.7-4.6 3.3-3.2.5.2-5.4-2-9 0 0-2 6.2-4.7 6.4-2.8.2-5.1-4.1-5.1-6.4 0 0-1.7 4.2-1.3 7.5.6 5-6.3-2.1-6.3-2.1z" fill="url(#j)"/><path opacity=".5" d="M24.2 14.8c.1-5.7-8.5-4.9-6.3-14.8 0 0-5.8 2.3-4.8 9.3.3 2.4-.5 4.2-.5 4.2-.9.2-2.2-1.5-1.7-4.1 0 0-3 2.3-3 5.2 0 2.9 1.4 6 1.4 6-3.5-.8-3.2-5.5-3.2-5.5s-2.2 3-2.2 8.6C3.9 28 8.8 35 16.8 35c7.9 0 14.3-6.2 14.3-11.6 0-2.4-.8-5.5-2.6-7.2 0 0 .2 4.8-2.1 4.6 0 0 2-6.2-.1-9.1 0-.1-1 3-2.1 3.1z" fill="url(#k)"/><path opacity=".5" d="M24.3 10.5c2.3-4.3-3.4-4.8-3.4-7.5 0 0-1 2.7 1.4 4.5 1.9 1.6 2 3 2 3z" fill="url(#l)"/><path d="M12.1 2.4c-.8.9-.3 3.6-2.4 5.8 0 0-.9-3.9 2.4-5.8z" fill="url(#m)"/><path opacity=".5" d="M12.1 2.4c-.9.9.3 4.4-2.4 5.8 0 0-.9-3.9 2.4-5.8z" fill="url(#n)"/><path opacity=".5" d="M24.2 14.8c.1-5.7-8.5-4.9-6.3-14.8 0 0-5.8 2.3-4.8 9.3.3 2.4-.5 4.2-.5 4.2-.9.2-2.2-1.5-1.7-4.1 0 0-3 2.3-3 5.2 0 2.9 1.4 6 1.4 6-3.5-.8-3.2-5.5-3.2-5.5s-2.2 3-2.2 8.6C3.9 28 8.8 35 16.8 35c7.9 0 14.3-6.2 14.3-11.6 0-2.4-.8-5.5-2.6-7.2 0 0 .2 4.8-2.1 4.6 0 0 2-6.2-.1-9.1 0-.1-1 3-2.1 3.1z" fill="url(#o)"/><path opacity=".25" d="M24.2 14.8c.1-5.7-8.5-4.9-6.3-14.8 0 0-5.8 2.3-4.8 9.3.3 2.4-.5 4.2-.5 4.2-.9.2-2.2-1.5-1.7-4.1 0 0-3 2.3-3 5.2 0 2.9 1.4 6 1.4 6-3.5-.8-3.2-5.5-3.2-5.5s-2.2 3-2.2 8.6C3.9 28 8.8 35 16.8 35c7.9 0 14.3-6.2 14.3-11.6 0-2.4-.8-5.5-2.6-7.2 0 0 .2 4.8-2.1 4.6 0 0 2-6.2-.1-9.1 0-.1-1 3-2.1 3.1z" fill="url(#p)"/><path opacity=".25" d="M24.2 14.8c.1-5.7-8.5-4.9-6.3-14.8 0 0-5.8 2.3-4.8 9.3.3 2.4-.5 4.2-.5 4.2-.9.2-2.2-1.5-1.7-4.1 0 0-3 2.3-3 5.2 0 2.9 1.4 6 1.4 6-3.5-.8-3.2-5.5-3.2-5.5s-2.2 3-2.2 8.6C3.9 28 8.8 35 16.8 35c7.9 0 14.3-6.2 14.3-11.6 0-2.4-.8-5.5-2.6-7.2 0 0 .2 4.8-2.1 4.6 0 0 2-6.2-.1-9.1 0-.1-1 3-2.1 3.1z" fill="url(#q)"/><path opacity=".25" d="M24.2 14.8c.1-5.7-8.5-4.9-6.3-14.8 0 0-5.8 2.3-4.8 9.3.3 2.4-.5 4.2-.5 4.2-.9.2-2.2-1.5-1.7-4.1 0 0-3 2.3-3 5.2 0 2.9 1.4 6 1.4 6-3.5-.8-3.2-5.5-3.2-5.5s-2.2 3-2.2 8.6C3.9 28 8.8 35 16.8 35c7.9 0 14.3-6.2 14.3-11.6 0-2.4-.8-5.5-2.6-7.2 0 0 .2 4.8-2.1 4.6 0 0 2-6.2-.1-9.1 0-.1-1 3-2.1 3.1z" fill="url(#r)"/></symbol><symbol id="video" viewBox="0 0 38 37"><path d="M17.304 6.356c0 .387.339.58.746.58h1.968c.407 0 .678-.193.678-.58m3.19 22.227l.407.773c.407.645 0 1.482-.814 1.482h-9.297c-.746 0-1.221-.837-.882-1.482l.475-.773h10.11zM7.125 16.6c0-6.25 5.293-11.275 11.875-11.275S30.875 10.351 30.875 16.6c0 6.25-5.293 11.275-11.875 11.275S7.125 22.849 7.125 16.6zm6.446.064c0 2.706 2.308 4.897 5.158 4.897 2.85 0 5.157-2.19 5.157-4.897 0-2.706-2.307-4.896-5.157-4.896s-5.158 2.19-5.158 4.896z" stroke="#181818"/><path d="M16.285 16.664c0-1.288 1.086-2.319 2.443-2.319s2.443 1.03 2.443 2.32c0 1.288-1.086 2.319-2.443 2.319s-2.443-.967-2.443-2.32z" fill="#181818"/></symbol><symbol id="vk" viewBox="0 0 27 16"><path d="M13.144 15.2h1.6s.5 0 .7-.3c.2-.3.1-.7.1-.7s0-2.2.9-2.4c.9-.3 2.3 2.2 3.7 3 .9.7 1.8.5 1.8.5h3.7s1.8-.1.9-1.6c0-.1-.5-1.1-2.6-3.1-2.3-2.2-1.9-1.8.8-5.4 1.6-2.2 2.3-3.5 2.2-4.1-.1-.6-1.5-.3-1.5-.3h-4.1s-.3 0-.5.1c-.1.1-.3.5-.3.5s-.7 1.6-1.5 3.1c-1.8 3.1-2.4 3.2-2.7 3-.7-.5-.5-1.8-.5-2.7 0-3 .5-4.2-.8-4.6-.5-.1-.8-.1-1.9-.1-1.5 0-2.6 0-3.2.3-.7.3-.9.8-.8.8.3 0 .8.1 1.1.7.3.5.3 1.8.3 1.8s.3 3.4-.5 3.9c-.5.3-1.1-.3-2.7-3.1-.8-1.5-1.5-3-1.5-3s-.4-.4-.6-.7c-.1-.1-.6-.1-.6-.1h-3.8s-.7 0-.8.3c-.1.1 0 .7 0 .7s3 7 6.4 10.6c3 3 6.7 2.9 6.7 2.9z" fill="#fff"/></symbol><symbol id="water-icon" viewBox="0 0 16 24"><g clip-path="url(#a)" fill="inherit"><path d="M5.459 22.906h5.308c.3 0 .524.219.524.51 0 .292-.225.511-.524.511H5.46a.505.505 0 0 1-.523-.51c0-.22.224-.511.523-.511z"/><path d="M3.065 13.641c0 2.48 2.243 4.523 4.934 4.523M.373 13.641C.373 8.097 7.999.511 7.999.511s7.626 7.66 7.626 13.13c0 3.94-3.439 7.076-7.626 7.076S.373 17.581.373 13.641z" stroke="inherit"/></g></symbol><symbol id="wifi" viewBox="0 0 38 37"><path d="M7.941 18.748c6.107-5.832 16.015-5.832 22.19 0m-27.483-4.99c9.025-8.617 23.683-8.617 32.708 0m-22.868 9.397c3.596-3.435 9.432-3.435 13.028 0" stroke="#181818"/><path d="M21.577 26.848c-1.425-1.36-3.8-1.36-5.225 0l2.578 2.463 2.647-2.463z" fill="#181818"/></symbol><symbol id="&#x41C;&#x43D;&#x43E;&#x433;&#x43E;&#x443;&#x433;&#x43E;&#x43B;&#x44C;&#x43D;&#x438;&#x43A; 1" viewBox="0 0 8 7"><path fill-rule="evenodd" clip-rule="evenodd" d="M3.507 6.003l-3.495-6h6.99l-3.495 6z" fill="#747983"/><path fill-rule="evenodd" clip-rule="evenodd" d="M3.507 6.003l-3.495-6h6.99l-3.495 6z" fill="#0968FA"/></symbol><symbol id="&#x41C;&#x43D;&#x43E;&#x433;&#x43E;&#x443;&#x433;&#x43E;&#x43B;&#x44C;&#x43D;&#x438;&#x43A; 2" viewBox="0 0 8 7"><path fill-rule="evenodd" clip-rule="evenodd" d="M4.493.997l3.495 6H.998l3.495-6z" fill="#0063FA"/></symbol></svg>