<svg width="15" height="20" viewBox="0 0 15 20" fill="none" xmlns="http://www.w3.org/2000/svg">
<path d="M7.4 0C3.3 0 0 3.3 0 7.4C0 8.9 0.4 9.9 1.1 11L7 19.8C7.1 19.9 7.3 20 7.4 20C7.6 20 7.7 19.9 7.8 19.8L13.7 11.1C14.5 10 14.8 8.9 14.8 7.5C14.9 3.3 11.5 0 7.4 0ZM7.4 1C10.9 1 13.8 3.9 13.8 7.4C13.8 8.7 13.5 9.4 12.9 10.4L7.4 18.5L2 10.5C1.3 9.5 1 8.7 1 7.4C1 3.9 3.9 1 7.4 1ZM7.4 3.6C5.4 3.6 3.8 5.2 3.8 7.2C3.8 9.2 5.4 10.8 7.4 10.8C9.4 10.8 11 9.2 11 7.2C11 5.2 9.4 3.6 7.4 3.6ZM7.4 4.6C8.8 4.6 10 5.7 10 7.2C10 8.7 8.9 9.7 7.4 9.7C5.9 9.7 4.9 8.6 4.9 7.2C4.9 5.8 6 4.6 7.4 4.6Z" fill="#0063FA"/>
</svg>
