<svg width="30" height="20" viewBox="0 0 30 20" fill="none" xmlns="http://www.w3.org/2000/svg">
<path d="M24.5941 5.75C25.8634 8.27344 25.8634 11.2422 24.5941 13.7656M27.2821 4.04297C29.0741 7.67969 29.0741 11.9102 27.2821 15.5469M5.40476 13.7656C4.13543 11.2422 4.13543 8.27344 5.40476 5.75M2.71676 15.4727C0.924763 11.9102 0.924764 7.67969 2.6421 4.04297M10.4074 15.9922H7.7941V15.3242L9.5861 13.543V8.79297C9.5861 6.04688 11.2288 3.89453 13.8421 3.30078V2.70703C13.8421 2.03906 14.4394 1.37109 15.1861 1.37109C15.9328 1.37109 16.5301 1.96484 16.5301 2.70703V3.30078C18.2474 3.67187 19.5168 4.78516 20.2634 6.19531C20.6368 7.01172 20.8608 7.90234 20.8608 8.79297V13.543L22.6528 15.3242V15.9922H10.4074Z" stroke="inherit" fill="inherit"/>
<mask id="mask0_1503_848" style="mask-type:alpha" maskUnits="userSpaceOnUse" x="13" y="17" width="5" height="3">
<path d="M13.127 17.7727H17.5323V19.9993H13.127V17.7727Z" fill="inherit"/>
</mask>
<g mask="url(#mask0_1503_848)" fill="inherit">
<path d="M13.127 18.0696C13.127 19.2571 14.0976 20.0735 15.367 20.0735C16.5616 20.0735 17.5323 19.2571 17.5323 18.0696V17.8469H13.127V18.0696Z" fill="inherit"/>
</g>
</svg>
