<svg width="28" height="28" viewBox="0 0 28 28" fill="none" xmlns="http://www.w3.org/2000/svg">
    <path d="M10.78 23.03L11.2 22.26C11.41 21.98 11.69 21.77 12.04 21.77H16.38C16.73 21.77 17.08 21.98 17.22 22.26L17.64 23.03M14.21 1.47V0M14.21 28V26.53M26.53 13.72H28M0 13.72H1.47M25.2 3.78L26.46 2.52M3.5 3.78L2.24 2.52M26.46 25.27L25.2 24.01M3.5 24.01L2.24 25.27" stroke="inherit"/>
    <path d="M14.4192 14C14.4192 14.28 14.2092 14.49 13.9292 14.49C13.6492 14.49 13.4392 14.28 13.4392 14C13.4392 14 13.4392 14 13.4392 13.93C13.4392 13.65 13.6492 13.44 13.9292 13.44C14.2092 13.51 14.4192 13.72 14.4192 14ZM17.4292 14C17.4292 14.28 17.2192 14.49 16.9392 14.49C16.6592 14.49 16.4492 14.28 16.4492 14C16.4492 14 16.4492 14 16.4492 13.93C16.4492 13.65 16.6592 13.44 16.9392 13.44C17.2192 13.51 17.4292 13.72 17.4292 14ZM11.4092 14C11.4092 14.28 11.1992 14.49 10.9192 14.49C10.6392 14.49 10.4992 14.28 10.4992 14C10.4992 14 10.4992 14 10.4992 13.93C10.4992 13.65 10.7092 13.44 10.9892 13.44C11.1992 13.51 11.4092 13.72 11.4092 14ZM20.4392 14C20.4392 14.28 20.2292 14.49 19.9492 14.49C19.6692 14.49 19.4592 14.28 19.4592 14C19.4592 13.72 19.6692 13.51 19.9492 13.51C20.2292 13.51 20.4392 13.72 20.4392 14ZM8.46922 14C8.46922 14.28 8.25922 14.49 7.97922 14.49C7.69922 14.49 7.48922 14.28 7.48922 14C7.48922 13.72 7.69922 13.51 7.97922 13.51C8.25922 13.51 8.46922 13.72 8.46922 14ZM15.9592 11.97C15.9592 12.25 15.7492 12.46 15.4692 12.46C15.1892 12.46 14.9792 12.25 14.9792 11.97C14.9792 11.97 14.9792 11.97 14.9792 11.9C14.9792 11.62 15.1892 11.41 15.4692 11.41C15.7492 11.55 15.9592 11.76 15.9592 11.97ZM18.9692 11.97C18.9692 12.25 18.7592 12.46 18.4792 12.46C18.1992 12.46 17.9892 12.25 17.9892 11.97C17.9892 11.69 18.1992 11.48 18.4792 11.48C18.7592 11.48 18.9692 11.69 18.9692 11.97ZM21.9092 11.97C21.9092 12.25 21.6992 12.46 21.4192 12.46C21.1392 12.46 20.9292 12.25 20.9292 11.97C20.9292 11.97 20.9292 11.97 20.9292 11.9C20.9292 11.62 21.1392 11.41 21.4192 11.41C21.6992 11.55 21.9092 11.76 21.9092 11.97ZM12.9492 11.97C12.9492 12.25 12.7392 12.46 12.4592 12.46C12.1792 12.46 11.9692 12.25 11.9692 11.97C11.9692 11.97 11.9692 11.97 11.9692 11.9C11.9692 11.62 12.1792 11.41 12.4592 11.41C12.7392 11.55 12.9492 11.76 12.9492 11.97ZM9.93922 11.97C9.93922 12.25 9.72922 12.46 9.44922 12.46C9.16922 12.46 8.95922 12.25 8.95922 11.97C8.95922 11.69 9.16922 11.48 9.44922 11.48C9.72922 11.48 9.93922 11.69 9.93922 11.97ZM6.92922 11.97C6.92922 12.25 6.71922 12.46 6.43922 12.46C6.15922 12.46 5.94922 12.25 5.94922 11.97C5.94922 11.97 5.94922 11.97 5.94922 11.9C5.94922 11.62 6.15922 11.41 6.43922 11.41C6.71922 11.55 6.92922 11.76 6.92922 11.97ZM17.4292 10.01C17.4292 10.29 17.2192 10.5 16.9392 10.5C16.6592 10.5 16.4492 10.29 16.4492 10.01C16.4492 10.01 16.4492 10.01 16.4492 9.94004C16.4492 9.66004 16.6592 9.45004 16.9392 9.45004C17.2192 9.52004 17.4292 9.73004 17.4292 10.01ZM20.4392 10.01C20.4392 10.29 20.2292 10.5 19.9492 10.5C19.6692 10.5 19.4592 10.29 19.4592 10.01C19.4592 9.73004 19.6692 9.52004 19.9492 9.52004C20.2292 9.52004 20.4392 9.73004 20.4392 10.01ZM14.4192 10.01C14.4192 10.29 14.2092 10.5 13.9292 10.5C13.6492 10.5 13.4392 10.29 13.4392 10.01C13.4392 10.01 13.4392 10.01 13.4392 9.94004C13.4392 9.66004 13.6492 9.45004 13.9292 9.45004C14.2092 9.52004 14.4192 9.73004 14.4192 10.01ZM11.4092 10.01C11.4092 10.29 11.1992 10.5 10.9192 10.5C10.6392 10.5 10.4292 10.29 10.4292 10.01C10.4292 10.01 10.4292 10.01 10.4292 9.94004C10.4292 9.66004 10.6392 9.45004 10.9192 9.45004C11.1992 9.52004 11.4092 9.73004 11.4092 10.01ZM8.46922 10.01C8.46922 10.29 8.25922 10.5 7.97922 10.5C7.69922 10.5 7.48922 10.29 7.48922 10.01C7.48922 9.73004 7.69922 9.52004 7.97922 9.52004C8.25922 9.52004 8.46922 9.73004 8.46922 10.01ZM15.9592 7.98004C15.9592 8.26004 15.7492 8.47004 15.4692 8.47004C15.1892 8.47004 14.9792 8.26004 14.9792 7.98004C14.9792 7.98004 14.9792 7.98004 14.9792 7.91004C14.9792 7.63004 15.1892 7.42004 15.4692 7.42004C15.7492 7.56004 15.9592 7.70004 15.9592 7.98004ZM18.9692 7.98004C18.9692 8.26004 18.7592 8.47004 18.4792 8.47004C18.1992 8.47004 17.9892 8.26004 17.9892 7.98004C17.9892 7.70004 18.1992 7.49004 18.4792 7.49004C18.7592 7.49004 18.9692 7.70004 18.9692 7.98004ZM12.9492 7.98004C12.9492 8.26004 12.7392 8.47004 12.4592 8.47004C12.1792 8.47004 11.9692 8.26004 11.9692 7.98004C11.9692 7.98004 11.9692 7.98004 11.9692 7.91004C11.9692 7.63004 12.1792 7.42004 12.4592 7.42004C12.7392 7.56004 12.9492 7.70004 12.9492 7.98004ZM9.93922 7.98004C9.93922 8.26004 9.72922 8.47004 9.44922 8.47004C9.16922 8.47004 8.95922 8.26004 8.95922 7.98004C8.95922 7.70004 9.16922 7.49004 9.44922 7.49004C9.72922 7.49004 9.93922 7.70004 9.93922 7.98004ZM15.9592 15.96C15.9592 16.24 15.7492 16.45 15.4692 16.45C15.1892 16.45 14.9792 16.24 14.9792 15.96C14.9792 15.96 14.9792 15.96 14.9792 15.89C14.9792 15.61 15.1892 15.4 15.4692 15.4C15.7492 15.54 15.9592 15.75 15.9592 15.96ZM18.9692 15.96C18.9692 16.24 18.7592 16.45 18.4792 16.45C18.1992 16.45 17.9892 16.24 17.9892 15.96C17.9892 15.68 18.1992 15.47 18.4792 15.47C18.7592 15.47 18.9692 15.75 18.9692 15.96ZM21.9092 15.96C21.9092 16.24 21.6992 16.45 21.4192 16.45C21.1392 16.45 20.9992 16.24 20.9992 15.96C20.9992 15.68 21.2092 15.47 21.4892 15.47L21.9092 15.96ZM12.9492 15.96C12.9492 16.24 12.7392 16.45 12.4592 16.45C12.1792 16.45 11.9692 16.24 11.9692 15.96C11.9692 15.96 11.9692 15.96 11.9692 15.89C11.9692 15.61 12.1792 15.4 12.4592 15.4C12.7392 15.54 12.9492 15.75 12.9492 15.96ZM9.93922 15.96C9.93922 16.24 9.72922 16.45 9.44922 16.45C9.16922 16.45 8.95922 16.24 8.95922 15.96C8.95922 15.68 9.16922 15.47 9.44922 15.47C9.72922 15.47 9.93922 15.75 9.93922 15.96ZM6.92922 15.96C6.92922 16.24 6.71922 16.45 6.43922 16.45C6.15922 16.45 5.94922 16.24 5.94922 15.96C5.94922 15.96 5.94922 15.96 5.94922 15.89C5.94922 15.61 6.15922 15.4 6.43922 15.4C6.71922 15.54 6.92922 15.75 6.92922 15.96ZM17.4292 17.99C17.4292 18.27 17.2192 18.48 16.9392 18.48C16.6592 18.48 16.4492 18.27 16.4492 17.99C16.4492 17.99 16.4492 17.99 16.4492 17.92C16.4492 17.64 16.6592 17.43 16.9392 17.43C17.2192 17.5 17.4292 17.71 17.4292 17.99ZM20.4392 17.99C20.4392 18.27 20.2292 18.48 19.9492 18.48C19.6692 18.48 19.4592 18.27 19.4592 17.99C19.4592 17.71 19.6692 17.5 19.9492 17.5C20.2292 17.5 20.4392 17.71 20.4392 17.99ZM14.4192 17.99C14.4192 18.27 14.2092 18.48 13.9292 18.48C13.6492 18.48 13.4392 18.27 13.4392 17.99C13.4392 17.99 13.4392 17.99 13.4392 17.92C13.4392 17.64 13.6492 17.43 13.9292 17.43C14.2092 17.5 14.4192 17.71 14.4192 17.99ZM11.4092 17.99C11.4092 18.27 11.1992 18.48 10.9192 18.48C10.6392 18.48 10.4992 18.27 10.4992 17.99C10.4992 17.99 10.4992 17.99 10.4992 17.92C10.4992 17.64 10.7092 17.43 10.9892 17.43C11.1992 17.5 11.4092 17.71 11.4092 17.99ZM8.46922 17.99C8.46922 18.27 8.25922 18.48 7.97922 18.48C7.69922 18.48 7.48922 18.27 7.48922 17.99C7.48922 17.71 7.69922 17.5 7.97922 17.5C8.25922 17.5 8.46922 17.71 8.46922 17.99ZM18.9692 19.95C18.9692 20.23 18.7592 20.44 18.4792 20.44C18.1992 20.44 17.9892 20.23 17.9892 19.95C17.9892 19.67 18.1992 19.46 18.4792 19.46C18.7592 19.53 18.9692 19.74 18.9692 19.95ZM9.93922 19.95C9.93922 20.23 9.72922 20.44 9.44922 20.44C9.16922 20.44 8.95922 20.23 8.95922 19.95C8.95922 19.67 9.16922 19.46 9.44922 19.46C9.72922 19.46 9.93922 19.74 9.93922 19.95Z" fill="inherit"/>
    <path d="M23.8702 10.0801C23.8702 9.66006 23.8702 9.59006 23.8002 9.17006C23.7302 8.47006 23.6602 7.84006 23.4502 7.14006C23.2402 6.44006 22.8902 5.81006 22.4002 5.32006C22.0502 5.04006 21.6302 4.76006 21.2102 4.62006C20.7202 4.41006 20.1602 4.34006 19.6002 4.27006H19.3902C19.0402 4.20006 18.6902 4.20006 18.3402 4.20006C17.8502 4.20006 17.3602 4.13006 16.9402 4.13006C16.3802 4.13006 15.7502 4.06006 15.1902 4.06006C14.7702 4.06006 14.3502 4.06006 13.9302 4.06006C13.1602 4.06006 12.3902 4.06006 11.6202 4.13006C11.1302 4.13006 10.6402 4.20006 10.1502 4.20006C9.59023 4.13006 9.10023 4.20006 8.54023 4.20006C7.98023 4.27006 7.35023 4.41006 6.79023 4.55006C6.16023 4.83006 5.60023 5.18006 5.18023 5.74006C4.83023 6.23006 4.62023 6.72006 4.41023 7.28006C4.27023 7.91006 4.20023 8.47006 4.20023 9.10006C4.13023 9.66006 4.13023 10.1501 4.06023 10.7101C3.99023 11.5501 3.99023 12.4601 3.99023 13.3001C3.99023 14.1401 3.99023 14.9101 3.99023 15.7501C3.99023 16.1701 3.99023 16.5201 4.06023 16.9401C4.06023 17.4301 4.13023 17.9201 4.13023 18.4101C4.13023 18.9001 4.20023 19.3901 4.27023 19.8801C4.34023 20.5101 4.55023 21.0701 4.83023 21.6301C5.11023 22.2601 5.60023 22.7501 6.23023 23.1001C6.65023 23.3101 7.14023 23.5201 7.63023 23.5901C8.33023 23.7301 9.03023 23.8001 9.73023 23.8701C10.2202 23.8701 10.7102 23.9401 11.2002 23.9401C11.7602 23.9401 12.3202 24.0101 12.8802 24.0101C13.7202 24.0101 14.5602 24.0101 15.4702 24.0101C15.8902 24.0101 16.3102 24.0101 16.8002 23.9401C17.2202 23.9401 17.7102 23.8701 18.1302 23.8701C18.6902 23.8701 19.1802 23.8001 19.7402 23.7301C20.3002 23.6601 20.8602 23.5201 21.3502 23.3801C21.7702 23.2401 22.1902 22.9601 22.5402 22.6801C23.1002 22.1901 23.3802 21.5601 23.5902 20.8601C23.8002 20.2301 23.8702 19.5301 23.9402 18.8301C23.9402 18.4101 24.0102 17.9901 24.0102 17.5701C24.0102 17.0101 24.0802 16.5201 24.0802 15.9601C24.0802 15.5401 24.0802 15.1201 24.0802 14.7001C24.0102 13.1601 23.9402 11.6201 23.8702 10.0801Z" stroke="inherit" fill="inherit"/>
</svg>
