<svg width="135" height="40" viewBox="0 0 135 40" fill="none" xmlns="http://www.w3.org/2000/svg">
<g clip-path="url(#clip0_202_27)">
<path d="M130.2 0H4.7C2.1 0 0 2.1 0 4.7V35.2C0 37.9 2.1 40 4.7 40H130.2C132.8 40 134.9 37.9 134.9 35.3V4.7C134.9 2.1 132.8 0 130.2 0ZM130.2 39.1H4.7C2.6 39.1 0.9 37.4 0.9 35.3V4.7C0.9 2.6 2.6 0.9 4.7 0.9H130.2C132.3 0.9 134 2.6 134 4.7V35.2C134 37.4 132.3 39.1 130.2 39.1Z" fill="white"/>
<path d="M30.1 19.8C30.1 16.6 32.7 15 32.9 14.9C31.4 12.7 29 12.4 28.2 12.4C26.2 12.2 24.3 13.6 23.3 13.6C22.3 13.6 20.7 12.4 19.1 12.5C17 12.5 15 13.8 13.9 15.7C11.6 19.6 13.3 25.4 15.5 28.6C16.6 30.2 17.9 31.9 19.5 31.8C21.1 31.7 21.7 30.8 23.7 30.8C25.6 30.8 26.2 31.8 27.9 31.8C29.6 31.8 30.7 30.2001 31.8 28.7001C33.1 26.9001 33.6 25.2 33.6 25.1C33.5 24.9 30.2 23.6 30.1 19.8Z" stroke="white" stroke-miterlimit="10"/>
<path d="M26.9 10.3C27.8 9.19995 28.4 7.69995 28.2 6.19995C26.9 6.29995 25.4 7.09995 24.4 8.09995C23.6 8.99995 22.9 10.6 23.1 12C24.6 12.2 26 11.4 26.9 10.3Z" stroke="white" stroke-miterlimit="10"/>
<path d="M53.7 31.5H51.4L50.2 27.6H45.9L44.7 31.5H42.5L46.8 18.2H49.4L53.7 31.5ZM49.8 26L48.7 22.5C48.6 22.1 48.4 21.3 48 20C47.9 20.6 47.7 21.4 47.4 22.5L46.2 26H49.8Z" fill="white"/>
<path d="M64.7 26.6C64.7 28.2 64.3 29.5 63.4 30.5C62.6 31.3 61.6 31.7999 60.4 31.7999C59.1 31.7999 58.2 31.2999 57.7 30.4V35.4H55.6V25.1C55.6 24.1 55.6 23 55.5 21.9H57.4L57.5 23.4C58.2 22.3 59.3 21.7 60.7 21.7C61.8 21.7 62.8 22.1 63.5 23C64.3 23.9 64.7 25.1 64.7 26.6ZM62.5 26.7C62.5 25.8 62.3 24.9999 61.9 24.4C61.4 23.8 60.8 23.5 60 23.5C59.5 23.5 59 23.7 58.6 24C58.2 24.4 57.9 24.8 57.8 25.4C57.7 25.6999 57.7 25.9 57.7 26V27.6C57.7 28.3 57.9 28.9 58.3 29.4C58.7 29.9 59.3 30.1 60 30.1C60.8 30.1 61.4 29.8 61.9 29.2C62.3 28.5 62.5 27.7 62.5 26.7Z" fill="white"/>
<path d="M75.7 26.6C75.7 28.2 75.3 29.5 74.4 30.5C73.6 31.3 72.6 31.7999 71.4 31.7999C70.1 31.7999 69.2 31.2999 68.7 30.4V35.4H66.6V25.1C66.6 24.1 66.6 23 66.5 21.9H68.4L68.5 23.4C69.2 22.3 70.3 21.7 71.7 21.7C72.8 21.7 73.8 22.1 74.5 23C75.3 23.9 75.7 25.1 75.7 26.6ZM73.5 26.7C73.5 25.8 73.3 24.9999 72.9 24.4C72.4 23.8 71.8 23.5 71 23.5C70.5 23.5 70 23.7 69.6 24C69.2 24.4 68.9 24.8 68.8 25.4C68.7 25.6999 68.7 25.9 68.7 26V27.6C68.7 28.3 68.9 28.9 69.3 29.4C69.7 29.9 70.3 30.1 71 30.1C71.8 30.1 72.4 29.8 72.9 29.2C73.3 28.5 73.5 27.7 73.5 26.7Z" fill="white"/>
<path d="M88 27.8C88 28.9 87.6 29.9 86.8 30.6C85.9 31.4 84.7 31.8 83.2 31.8C81.8 31.8 80.6 31.5 79.8 31L80.3 29.2C81.2 29.8 82.3 30 83.4 30C84.2 30 84.8 29.8 85.3 29.5C85.7 29.1 86 28.7 86 28C86 27.5 85.8 27 85.4 26.6C85 26.2 84.4 25.9 83.6 25.6C81.3 24.7 80.1 23.5 80.1 21.8C80.1 20.7 80.5 19.8 81.3 19.1C82.1 18.4 83.2 18.1 84.6 18.1C85.8 18.1 86.8 18.3 87.6 18.7L87 20.4C86.2 20 85.4 19.8 84.4 19.8C83.6 19.8 83.1 20 82.6 20.4C82.2 20.7 82.1 21.1 82.1 21.6C82.1 22.1 82.3 22.6 82.7 22.9C83.1 23.2 83.7 23.6 84.6 23.9C85.7 24.4 86.6 24.9 87.1 25.5C87.8 26.1 88 26.9 88 27.8Z" fill="white"/>
<path d="M95.1 23.5H92.8V28.2C92.8 29.4 93.2 30 94 30C94.4 30 94.7 30 94.9 29.9L95 31.5C94.6 31.7 94 31.7 93.3 31.7C92.5 31.7 91.8 31.4 91.3 30.9C90.8 30.4 90.6 29.5 90.6 28.3V23.5H89.2V21.9H90.6V20.1L92.7 19.5V21.9H95L95.1 23.5Z" fill="white"/>
<path d="M105.7 26.6C105.7 28.1 105.3 29.3 104.4 30.2C103.5 31.2 102.3 31.7 100.9 31.7C99.5 31.7 98.4 31.1999 97.5 30.2999C96.7 29.3999 96.2 28.1999 96.2 26.7999C96.2 25.2999 96.6 24.1 97.5 23.1C98.4 22.2 99.5 21.7 101 21.7C102.4 21.7 103.5 22.2 104.4 23.1C105.3 24 105.7 25.2 105.7 26.6ZM103.5 26.7C103.5 25.8 103.3 25.1 102.9 24.4C102.5 23.6 101.8 23.2999 101 23.2999C100.1 23.2999 99.5 23.6999 99 24.4C98.6 24.9999 98.4 25.8 98.4 26.7C98.4 27.6 98.6 28.3 99 29C99.5 29.8 100.1 30.1 100.9 30.1C101.7 30.1 102.4 29.7 102.8 28.9C103.3 28.3 103.5 27.6 103.5 26.7Z" fill="white"/>
<path d="M112.6 23.7999C112.4 23.7999 112.2 23.7 111.9 23.7C111.1 23.7 110.6 24 110.2 24.6C109.8 25.1 109.7 25.7 109.7 26.5V31.5H107.6V24.9C107.6 23.8 107.6 22.8 107.5 21.9H109.4L109.5 23.7H109.6C109.8 23.1 110.2 22.6 110.7 22.2C111.2 21.9 111.7 21.7 112.2 21.7C112.4 21.7 112.6 21.7 112.7 21.7L112.6 23.7999Z" fill="white"/>
<path d="M122.2 26.3C122.2 26.7 122.2 27 122.1 27.3H115.7C115.7 28.2 116 29 116.6 29.5C117.1 29.9 117.8 30.2 118.7 30.2C119.6 30.2 120.5 30.1 121.3 29.7L121.6 31.2C120.7 31.6 119.6 31.8 118.4 31.8C116.9 31.8 115.7 31.4 114.9 30.5C114.1 29.6 113.6 28.4 113.6 27C113.6 25.6 114 24.3 114.8 23.4C115.6 22.4 116.7 21.9 118.2 21.9C119.6 21.9 120.6 22.4 121.3 23.4C121.9 24 122.2 25.1 122.2 26.3ZM120.1 25.7C120.1 25.1 120 24.5 119.7 24.1C119.3 23.5 118.8 23.2 118 23.2C117.3 23.2 116.7 23.5 116.3 24.1C115.9 24.6 115.7 25.1 115.7 25.8L120.1 25.7Z" fill="white"/>
<path d="M43.4 7.30005C43.8 7.00005 44.5 6.80005 45.3 6.80005C46.6 6.80005 47.4 7.50005 47.4 8.40005C47.4 9.20005 46.8 9.80005 46.1 10C47 10.1 47.7 10.7 47.7 11.6C47.7 13 46.4 13.5 45.2 13.5C44.6 13.5 43.9 13.4 43.3 13.1L43.6 12.2C43.9 12.4 44.6 12.6 45.1 12.6C45.9 12.6 46.4 12.2 46.4 11.6C46.4 10.8 45.6 10.6 44.8 10.6H44.3V9.60005H44.8C45.6 9.60005 46.1 9.20005 46.1 8.60005C46.1 8.10005 45.7 7.70005 45 7.70005C44.5 7.70005 44 7.90005 43.6 8.10005L43.4 7.30005Z" fill="white"/>
<path d="M52.9 12.3001C52.9 12.7001 52.9 13.1001 53 13.4001H51.9L51.8 12.9001C51.5 13.3001 51 13.5001 50.4 13.5001C49.4 13.5001 48.9 12.8001 48.9 12.1001C48.9 10.9001 50 10.3001 51.7 10.3001V10.2001C51.7 9.9001 51.6 9.4001 50.7 9.4001C50.2 9.4001 49.7 9.5001 49.4 9.8001L49.2 9.0001C49.5 8.8001 50.2 8.6001 50.9 8.6001C52.4 8.6001 52.9 9.6001 52.9 10.6001V12.3001ZM51.7 11.1001C50.9 11.1001 50 11.3001 50 12.0001C50 12.5001 50.3 12.7001 50.7 12.7001C51.2 12.7001 51.5 12.4001 51.6 12.1001C51.6 12.0001 51.6 11.9001 51.6 11.8001V11.1001H51.7Z" fill="white"/>
<path d="M57.8 8.70007V9.60007H55.9V13.4001H54.7V8.70007H57.8Z" fill="white"/>
<path d="M59.1 10.3001C59.1 9.7001 59.1 9.2001 59.1 8.7001H60.1L60.2 9.4001C60.5 8.9001 61.1 8.6001 61.8 8.6001C62.9 8.6001 63.8 9.5001 63.8 11.0001C63.8 12.7001 62.7 13.5001 61.6 13.5001C61 13.5001 60.5 13.2001 60.3 12.9001V15.3001H59.1V10.3001ZM60.3 11.5001C60.3 11.6001 60.3 11.7001 60.3 11.8001C60.4 12.3001 60.8 12.6001 61.4 12.6001C62.2 12.6001 62.6 12.0001 62.6 11.0001C62.6 10.2001 62.2 9.5001 61.4 9.5001C60.9 9.5001 60.4 9.9001 60.3 10.4001C60.3 10.5001 60.3 10.6001 60.3 10.7001V11.5001Z" fill="white"/>
<path d="M66.1 8.70007L66.9 11.2001C67 11.5001 67.1 11.8001 67.2 12.1001C67.3 11.8001 67.4 11.5001 67.5 11.2001L68.2 8.70007H69.5L68.3 11.9001C67.6 13.7001 67.2 14.5001 66.7 14.9001C66.2 15.3001 65.7 15.5001 65.4 15.5001L65.1 14.5001C65.3 14.5001 65.5 14.3001 65.8 14.2001C66 14.1001 66.3 13.8001 66.5 13.5001C66.5 13.4001 66.6 13.3001 66.6 13.3001C66.6 13.3001 66.6 13.2001 66.5 13.1001L64.8 8.80007L66.1 8.70007Z" fill="white"/>
<path d="M71.2 10.6H71.8C72.5 10.6 72.8 10.3 72.8 10C72.8 9.7 72.5 9.4 71.9 9.4C71.5 9.4 71.1 9.5 70.7 9.7L70.4 9C70.9 8.7 71.6 8.5 72.2 8.5C73 8.5 74 8.8 74 9.8C74 10.4 73.4 10.8 73 10.9C73.6 11 74.3 11.3 74.3 12C74.3 13.1 73.1 13.4 72.1 13.4C71.5 13.4 70.9 13.3 70.4 13L70.7 12.2C71 12.4 71.5 12.5 72 12.5C72.7 12.5 73 12.2 73 11.9C73 11.4 72.5 11.2 71.8 11.2H71.2V10.6Z" fill="white"/>
<path d="M76.9 8.70007V10.4001C76.9 11.1001 76.9 11.7001 76.8 12.3001C77.1 11.7001 77.2 11.4001 77.4 10.9001L78.6 8.70007H80V13.4001H79V11.7001C79 10.9001 79 10.6001 79.1 9.70007C78.9 10.3001 78.7 10.6001 78.5 11.1001C78.1 11.8001 77.7 12.7001 77.3 13.4001H75.9V8.70007H76.9Z" fill="white"/>
<path d="M85.4 8.70007V9.60007H84V13.4001H82.8V9.60007H81.4V8.70007H85.4Z" fill="white"/>
<path d="M87.5 11.4001C87.5 12.3001 88.2 12.6001 89 12.6001C89.6 12.6001 89.9 12.5001 90.3 12.4001L90.5 13.2001C90.1 13.4001 89.5 13.5001 88.8 13.5001C87.3 13.5001 86.4 12.6001 86.4 11.1001C86.4 9.8001 87.2 8.6001 88.7 8.6001C90.2 8.6001 90.7 9.9001 90.7 10.9001C90.7 11.1001 90.7 11.3001 90.7 11.4001H87.5ZM89.6 10.6001C89.6 10.2001 89.4 9.4001 88.6 9.4001C87.9 9.4001 87.5 10.1001 87.5 10.6001H89.6Z" fill="white"/>
<path d="M94.8 8.80007C95.2 8.70007 95.9 8.70007 96.5 8.70007C97.3 8.70007 98.7 8.80007 98.7 9.90007C98.7 10.5001 98.2 10.8001 97.7 10.9001C98.4 11.0001 98.9 11.4001 98.9 12.1001C98.9 13.4001 97.2 13.5001 96.3 13.5001C95.7 13.5001 95.1 13.5001 94.8 13.4001V8.80007ZM95.9 12.7001C96.1 12.7001 96.2 12.7001 96.5 12.7001C97 12.7001 97.7 12.6001 97.7 12.0001C97.7 11.5001 97.2 11.3001 96.4 11.3001H95.9V12.7001ZM96 10.6001H96.5C97.1 10.6001 97.6 10.4001 97.6 10.0001C97.6 9.60007 97.3 9.40007 96.6 9.40007C96.4 9.40007 96.2 9.40007 96 9.40007C96 9.50007 96 10.6001 96 10.6001Z" fill="white"/>
</g>
<defs>
<clipPath id="clip0_202_27">
<rect width="134.9" height="40" fill="white"/>
</clipPath>
</defs>
</svg>
