<svg width="23" height="23" viewBox="0 0 23 23" fill="none" xmlns="http://www.w3.org/2000/svg">
<g clip-path="url(#clip0_1503_888)">
<path d="M11.4218 23C9.54422 23 7.66667 22.7653 5.86735 22.3742C4.77211 22.0612 3.83333 21.6701 3.12925 21.1225C2.19048 20.4184 1.48639 19.4796 1.01701 18.2279C0.547619 17.0544 0.391156 15.8027 0.234694 14.7857C0.0782313 13.534 0 12.2041 0 10.8742C0.0782313 8.76192 0.312925 6.88437 0.860544 5.16328C1.2517 3.98981 1.79932 3.05104 2.58163 2.34696C3.20748 1.72111 3.91156 1.32995 4.85034 1.01702C5.94558 0.625868 7.04082 0.469406 7.97959 0.312943C9.46599 1.82148e-05 10.9524 -0.0782131 12.4388 1.82036e-05C14.3946 0.0782495 16.1156 0.391175 17.6803 0.860562C19.5578 1.40818 20.8878 2.50342 21.6701 4.06805C22.1395 5.00682 22.3741 5.9456 22.5306 6.80614C22.9218 8.68369 23.0782 10.5612 23 12.4388C22.9218 14.3946 22.6871 16.0374 22.2177 17.6021C21.8265 19.0102 21.1224 20.1055 20.1837 20.8878C19.4014 21.5136 18.5408 21.983 17.4456 22.2177C16.1939 22.5306 14.9422 22.7653 13.4558 22.8436C12.8299 22.9218 12.2041 22.9218 11.7347 22.9218C11.5782 23 11.5 23 11.4218 23ZM11.4218 0.782331C10.3265 0.782331 9.23129 0.860562 8.13605 1.01702C7.19728 1.17349 6.10204 1.32995 5.08503 1.72111C4.30272 2.03403 3.67687 2.42519 3.12925 2.89458C2.42517 3.52043 1.95578 4.38097 1.64286 5.39798C1.17347 7.04083 0.860544 8.84015 0.782313 10.8742C0.704082 12.1259 0.782313 13.3776 1.01701 14.6293C1.17347 15.6463 1.32993 16.8197 1.79932 17.915C2.19048 19.0102 2.81633 19.7925 3.59864 20.4184C4.30272 20.8878 5.08503 21.2789 6.10204 21.5136C7.90136 21.983 9.77891 22.1395 11.6565 22.1395C12.1258 22.1395 12.6735 22.1395 13.2993 22.0612C14.7075 21.983 15.9592 21.7483 17.1327 21.4354C18.1497 21.2007 18.932 20.8095 19.6361 20.2619C20.4966 19.5578 21.0442 18.6191 21.4354 17.3674C21.9048 15.881 22.1395 14.2381 22.2177 12.3606C22.2959 10.5612 22.1395 8.68369 21.8265 6.88437C21.6701 6.10206 21.4354 5.24151 21.0442 4.38097C20.3401 2.97281 19.2449 2.03403 17.602 1.56464C16.1156 1.09526 14.4728 0.860562 12.517 0.782331C12.1259 0.782331 11.7347 0.782331 11.4218 0.782331ZM11.5 21.0442C6.2585 21.0442 2.03401 16.8197 2.03401 11.5C2.03401 6.18029 6.2585 2.03403 11.5 2.03403C16.7415 2.03403 21.0442 6.33675 21.0442 11.5782C21.0442 16.8197 16.7415 21.0442 11.5 21.0442ZM11.5 2.81634C6.64966 2.81634 2.7381 6.72791 2.7381 11.5782C2.7381 16.4286 6.64966 20.3402 11.5 20.3402C16.3503 20.3402 20.2619 16.4286 20.2619 11.5782C20.2619 6.72791 16.3503 2.81634 11.5 2.81634ZM13.0646 19.5578H12.2823V19.0102C12.2823 18.6191 11.9694 18.2279 11.5 18.2279C11.1088 18.2279 10.7177 18.5408 10.7177 19.0102V19.5578H9.93537V19.0102C9.93537 18.1497 10.6395 17.4456 11.5 17.4456C12.3605 17.4456 13.0646 18.1497 13.0646 19.0102V19.5578ZM11.5 5.63267C10.6395 5.63267 9.93537 4.92859 9.93537 4.06805V3.59866H10.7177V4.14628C10.7177 4.53743 11.0306 4.92859 11.5 4.92859C11.8912 4.92859 12.2823 4.61566 12.2823 4.14628V3.59866H13.0646V4.14628C13.0646 4.92859 12.3605 5.63267 11.5 5.63267Z" fill="inherit"/>
<path d="M16.1157 12.9864C15.3334 12.9864 14.7075 12.3605 14.7075 11.5782C14.7075 10.7959 15.3334 10.17 16.1157 10.17C16.898 10.17 17.5239 10.7959 17.5239 11.5782C17.5239 12.2823 16.898 12.9864 16.1157 12.9864ZM7.1191 12.9864C6.33679 12.9864 5.71094 12.3605 5.71094 11.5782C5.71094 10.7959 6.33679 10.17 7.1191 10.17C7.90141 10.17 8.52726 10.7959 8.52726 11.5782C8.52726 12.2823 7.90141 12.9864 7.1191 12.9864Z" fill="inherit"/>
</g>
<defs>
<clipPath id="clip0_1503_888">
<rect width="23" height="23" fill="inherit"/>
</clipPath>
</defs>
</svg>
