<svg width="25" height="24" viewBox="0 0 25 24" fill="none" xmlns="http://www.w3.org/2000/svg">
<g clip-path="url(#clip0_1503_896)" fill="inherit">
<path d="M0 10.1894H4.00593H0ZM0 2.6947H4.00593H0ZM4.08012 12.4631H8.90208C10.3858 12.4631 12.0178 10.3579 12.0178 8.2526V4.71576C12.0178 2.61049 10.3858 0.421021 8.90208 0.421021H4.08012V12.4631Z" stroke="inherit"/>
<path d="M5.78711 6.56837H7.71589L6.45476 9.76837L10.0156 5.81048H8.08681L8.97702 3.19995L5.78711 6.56837Z" fill="inherit"/>
<path d="M12.0924 6.14734C20.4752 6.31576 24.6295 9.0105 24.6295 14.1473C24.6295 17.3473 22.2556 21.9789 11.6473 21.7263H9.27341M5.04492 20.0421H9.27341V23.5789H5.04492V20.0421Z" stroke="inherit"/>
<path d="M5.04367 22.4H2.37305V21.2211H5.04367" fill="inherit"/>
</g>
<defs>
<clipPath id="clip0_1503_896">
<rect width="25" height="24" fill="inherit"/>
</clipPath>
</defs>
</svg>
