<svg width="24" height="24" viewBox="0 0 24 24" fill="none" xmlns="http://www.w3.org/2000/svg">
<g clip-path="url(#clip0_1503_799)" fill="inherit">
<path d="M13.4054 0.326965C14.0594 0.326965 14.7787 0.39236 15.4327 0.39236C15.9558 0.39236 16.5444 0.457756 17.0675 0.457756C17.7869 0.523151 18.5716 0.588546 19.291 0.719336C19.9449 0.850126 20.5335 1.04631 21.122 1.37329C21.7106 1.70026 22.2337 2.15803 22.5607 2.74658C22.9531 3.33514 23.1493 4.05449 23.2801 4.77383C23.4109 5.36239 23.4763 5.88555 23.4763 6.4741C23.5416 7.12805 23.5416 7.78201 23.607 8.50135C23.6724 9.94004 23.6724 11.3787 23.6724 12.8174C23.6724 13.3406 23.6724 13.7984 23.6724 14.3215C23.6724 14.9755 23.607 15.564 23.607 16.218C23.607 16.6757 23.5416 17.1989 23.5416 17.6567C23.4763 18.4414 23.4109 19.2261 23.1493 20.0109C22.8877 20.7956 22.5607 21.515 21.9068 22.1035C21.5144 22.4959 21.0566 22.7575 20.5335 22.9537C19.9449 23.2152 19.291 23.346 18.637 23.4114C18.0485 23.4768 17.3945 23.5422 16.7406 23.6076C16.2174 23.6076 15.6942 23.673 15.1711 23.673C14.6479 23.673 14.1248 23.7384 13.667 23.7384C12.6861 23.7384 11.6397 23.7384 10.6588 23.7384C10.0049 23.7384 9.35091 23.7384 8.69696 23.673C8.10841 23.673 7.58525 23.6076 6.99669 23.6076C6.14655 23.5422 5.36181 23.4768 4.57707 23.2806C3.92312 23.0845 3.39996 22.8883 2.8768 22.6267C2.22285 22.2343 1.63429 21.6458 1.30732 20.9264C0.980341 20.2725 0.784156 19.6185 0.718761 18.8992C0.653366 18.3106 0.58797 17.7221 0.522575 17.1335C0.45718 16.5449 0.45718 15.9564 0.391785 15.3678C0.391785 14.9101 0.32639 14.4523 0.32639 13.9945C0.260995 12.5558 0.260995 11.0518 0.32639 9.61307C0.32639 9.08991 0.391785 8.63214 0.391785 8.10898C0.45718 7.52043 0.45718 6.86647 0.522575 6.27792C0.58797 5.55857 0.653365 4.90462 0.849551 4.25067C1.04574 3.59672 1.30732 3.00816 1.69969 2.41961C2.22285 1.76566 2.8768 1.37329 3.59614 1.11171C4.2501 0.850126 4.90405 0.784731 5.62339 0.653941C6.21195 0.588546 6.8659 0.523151 7.45445 0.523151C8.04301 0.523151 8.63157 0.457756 9.15473 0.457756C10.0703 0.39236 10.9204 0.39236 11.8359 0.39236C12.4245 0.326965 12.8822 0.326965 13.4054 0.326965Z" stroke="inherit"/>
<path d="M9.48242 12.4251V11.575H14.5178V12.4251H9.48242Z" fill="inherit"/>
</g>
<defs>
<clipPath id="clip0_1503_799">
<rect width="24" height="24" fill="inherit"/>
</clipPath>
</defs>
</svg>
