<svg width="38" height="37" viewBox="0 0 38 37" fill="none" xmlns="http://www.w3.org/2000/svg">
<path d="M20.022 25.5391H22.0577V21.3514V25.5391H24.0934V21.3514V25.5391H25.6541C26.4684 25.5391 26.8077 24.9592 26.8077 24.315V14.1356C26.8077 13.8779 26.6041 13.6846 26.3327 13.6846H23.822C23.6184 13.6846 23.4148 13.4914 23.4148 13.2981V10.721C23.4148 10.3345 23.0077 10.0123 22.5327 10.0123H15.4756C15.0006 10.0123 14.5934 10.3345 14.5934 10.721V13.2981C14.5934 13.4914 14.3898 13.6846 14.1863 13.6846H11.6756C11.4041 13.6846 11.2006 13.8779 11.2006 14.1356V24.315C11.2006 25.0237 11.8791 25.5391 12.6934 25.5391H13.9148V21.3514V25.5391H15.9506V21.3514V25.5391H17.9863V21.3514V25.5391H20.022ZM20.022 25.5391V21.3514V25.5391ZM29.9291 5.63135C31.2184 5.63135 32.2363 6.59774 32.2363 7.82184V28.5671C32.2363 29.7912 31.2184 30.7576 29.9291 30.7576H8.14699C6.8577 30.7576 5.83984 29.7912 5.83984 28.5671V7.82184C5.83984 6.59774 6.8577 5.63135 8.14699 5.63135H29.9291ZM20.022 25.5391V25.8612V25.5391ZM17.9863 25.5391V25.8612V25.5391ZM15.9506 25.5391V25.8612V25.5391ZM13.9148 25.5391V25.8612V25.5391ZM24.0934 25.5391V25.8612V25.5391ZM22.0577 25.5391V25.8612V25.5391Z" stroke="#181818"/>
</svg>
