<svg width="21" height="24" viewBox="0 0 21 24" fill="none" xmlns="http://www.w3.org/2000/svg">
<g clip-path="url(#clip0_324_519)">
<path d="M19.3 5.29999H13.8C14.4 5.09999 14.9 4.89999 15.4 4.49999C15.9 3.99999 16.2 3.39999 16.2 2.69999C16.2 1.99999 16 1.29999 15.5 0.799991C15 0.299991 14.3 -8.73208e-06 13.7 -8.73208e-06C13 -8.73208e-06 12.3 0.199991 11.8 0.699991C11.1 1.69999 10.6 2.79999 10.3 4.09999C10 2.79999 9.4 1.69999 8.7 0.699991C8 0.0999913 7.1 -0.200009 6.2 0.0999913C5.3 0.399991 4.6 1.09999 4.4 1.99999C4.2 2.89999 4.5 3.89999 5.2 4.49999C5.7 4.89999 6.2 5.09999 6.8 5.29999H1.3C1 5.29999 0.6 5.39999 0.4 5.69999C0.1 5.89999 0 6.19999 0 6.59999V8.39999C0 8.69999 0.1 9.09999 0.4 9.29999C0.6 9.59999 1 9.69999 1.3 9.69999V22.7C1.3 23 1.4 23.4 1.7 23.6C1.9 23.9 2.3 24 2.6 24H18.7C19 24 19.4 23.9 19.6 23.6C19.8 23.4 20 23 20 22.7V9.49999C20.4 9.29999 20.6 8.89999 20.6 8.39999V6.59999C20.6 6.29999 20.5 5.89999 20.2 5.69999C20 5.39999 19.7 5.29999 19.3 5.29999ZM12.3 6.19999V8.79999H7.9V6.19999H12.3ZM19.7 6.59999V8.39999C19.7 8.59999 19.5 8.79999 19.3 8.79999H13.2V6.19999H19.3C19.5 6.19999 19.7 6.39999 19.7 6.59999ZM12.4 1.39999C12.7 1.09999 13.1 0.899991 13.6 0.899991C13.6 0.899991 13.6 0.899991 13.7 0.899991C14.2 0.899991 14.6 1.09999 14.9 1.39999C15.2 1.69999 15.4 2.19999 15.4 2.59999C15.4 3.09999 15.2 3.49999 14.9 3.79999C14.4 4.29999 12.5 4.79999 11 5.09999C11.3 3.69999 11.9 1.79999 12.4 1.39999ZM5.2 2.69999C5.2 2.19999 5.4 1.79999 5.7 1.49999C6 1.09999 6.4 0.899991 6.9 0.899991C7.4 0.899991 7.8 0.999991 8.1 1.39999C8.6 1.89999 9.2 3.69999 9.6 5.19999C8.2 4.79999 6.2 4.29999 5.8 3.89999C5.4 3.59999 5.2 3.09999 5.2 2.69999ZM0.9 8.39999V6.59999C0.9 6.39999 1.1 6.19999 1.3 6.19999H7V8.79999H1.3C1.1 8.79999 0.9 8.59999 0.9 8.39999ZM2.2 22.7V9.69999H8V23.1H2.6C2.4 23.1 2.2 22.9 2.2 22.7ZM8.9 23.1V9.69999H11.6V23.1H8.9ZM19.1 22.7C19.1 22.9 18.9 23.1 18.7 23.1H12.4V9.69999H19.1V22.7Z" fill="#0063FA"/>
</g>
<defs>
<clipPath id="clip0_324_519">
<rect width="20.6" height="24" fill="white"/>
</clipPath>
</defs>
</svg>
