<svg width="135" height="40" viewBox="0 0 135 40" fill="none" xmlns="http://www.w3.org/2000/svg">
<path d="M130 0.8C132.3 0.8 134.2 2.7 134.2 5V35C134.2 37.3 132.3 39.2 130 39.2H5C2.7 39.2 0.8 37.3 0.8 35V5C0.8 2.7 2.7 0.8 5 0.8H130ZM130 0H5C2.3 0 0 2.3 0 5V35C0 37.8 2.3 40 5 40H130C132.8 40 135 37.7 135 35V5C135 2.3 132.8 0 130 0Z" fill="white"/>
<path d="M68.1 21.8C65.7 21.8 63.8 23.6 63.8 26.1C63.8 28.5 65.7 30.4 68.1 30.4C70.5 30.4 72.4 28.6 72.4 26.1C72.4 23.5 70.5 21.8 68.1 21.8ZM68.1 28.6C66.8 28.6 65.7 27.5 65.7 26C65.7 24.5 66.8 23.4 68.1 23.4C69.4 23.4 70.5 24.4 70.5 26C70.5 27.5 69.4 28.6 68.1 28.6ZM58.8 21.8C56.4 21.8 54.5 23.6 54.5 26.1C54.5 28.5 56.4 30.4 58.8 30.4C61.2 30.4 63.1 28.6 63.1 26.1C63.1 23.5 61.2 21.8 58.8 21.8ZM58.8 28.6C57.5 28.6 56.4 27.5 56.4 26C56.4 24.5 57.5 23.4 58.8 23.4C60.1 23.4 61.2 24.4 61.2 26C61.2 27.5 60.1 28.6 58.8 28.6ZM47.7 23.1V24.9H52C51.9 25.9 51.5 26.7 51 27.2C50.4 27.8 49.4 28.5 47.7 28.5C45 28.5 43 26.4 43 23.7C43 21 45.1 18.9 47.7 18.9C49.1 18.9 50.2 19.5 51 20.2L52.3 18.9C51.2 17.9 49.8 17.1 47.8 17.1C44.2 17.1 41.1 20.1 41.1 23.7C41.1 27.3 44.2 30.3 47.8 30.3C49.8 30.3 51.2 29.7 52.4 28.4C53.6 27.2 54 25.5 54 24.2C54 23.8 54 23.4 53.9 23.1H47.7ZM93.1 24.5C92.7 23.5 91.7 21.8 89.5 21.8C87.3 21.8 85.5 23.5 85.5 26.1C85.5 28.5 87.3 30.4 89.7 30.4C91.6 30.4 92.8 29.2 93.2 28.5L91.8 27.5C91.3 28.2 90.7 28.7 89.7 28.7C88.7 28.7 88.1 28.3 87.6 27.4L93.3 25L93.1 24.5ZM87.3 25.9C87.3 24.3 88.6 23.4 89.5 23.4C90.2 23.4 90.9 23.8 91.1 24.3L87.3 25.9ZM82.6 30H84.5V17.5H82.6V30ZM79.6 22.7C79.1 22.2 78.3 21.7 77.3 21.7C75.2 21.7 73.2 23.6 73.2 26C73.2 28.4 75.1 30.2 77.3 30.2C78.3 30.2 79.1 29.7 79.5 29.2H79.6V29.8C79.6 31.4 78.7 32.3 77.3 32.3C76.2 32.3 75.4 31.5 75.2 30.8L73.6 31.5C74.1 32.6 75.3 34 77.4 34C79.6 34 81.4 32.7 81.4 29.6V22H79.6V22.7ZM77.4 28.6C76.1 28.6 75 27.5 75 26C75 24.5 76.1 23.4 77.4 23.4C78.7 23.4 79.7 24.5 79.7 26C79.7 27.5 78.7 28.6 77.4 28.6ZM101.8 17.5H97.3V30H99.2V25.3H101.8C103.9 25.3 105.9 23.8 105.9 21.4C105.9 19 103.9 17.5 101.8 17.5ZM101.9 23.5H99.2V19.2H101.9C103.3 19.2 104.1 20.4 104.1 21.3C104 22.4 103.2 23.5 101.9 23.5ZM113.4 21.7C112 21.7 110.6 22.3 110.1 23.6L111.8 24.3C112.2 23.6 112.8 23.4 113.5 23.4C114.5 23.4 115.4 24 115.5 25V25.1C115.2 24.9 114.4 24.6 113.6 24.6C111.8 24.6 110 25.6 110 27.4C110 29.1 111.5 30.2 113.1 30.2C114.4 30.2 115 29.6 115.5 29H115.6V30H117.4V25.2C117.2 23 115.5 21.7 113.4 21.7ZM113.2 28.6C112.6 28.6 111.7 28.3 111.7 27.5C111.7 26.5 112.8 26.2 113.7 26.2C114.5 26.2 114.9 26.4 115.4 26.6C115.2 27.8 114.2 28.6 113.2 28.6ZM123.7 22L121.6 27.4H121.5L119.3 22H117.3L120.6 29.6L118.7 33.8H120.6L125.7 22H123.7ZM106.9 30H108.8V17.5H106.9V30Z" fill="white"/>
<path d="M10.4 7.5C10.1 7.8 10 8.3 10 8.9V31C10 31.6 10.2 32.1 10.5 32.4L10.6 32.5L23 20.1V20V19.9L10.4 7.5Z" stroke="white" stroke-miterlimit="10"/>
<path d="M27 24.3L22.9 20.2V20V19.9L27 15.8L27.1 15.9L32 18.7C33.4 19.5 33.4 20.8 32 21.6L27 24.3Z" stroke="white" stroke-miterlimit="10"/>
<path d="M27.1 24.2L22.9 20L10.4 32.5C10.9 33 11.6 33 12.5 32.6L27.1 24.2Z" stroke="white" stroke-miterlimit="10"/>
<path d="M27.1 15.8L12.5 7.49999C11.6 6.99999 10.9 7.09999 10.4 7.59999L22.9 20L27.1 15.8Z" stroke="white" stroke-miterlimit="10"/>
<path opacity="0.12" d="M32 21.3L27 24.1L27.1 24.2L32 21.4C32.7 21 33 20.5 33 20C33 20.5 32.6 20.9 32 21.3Z" fill="black" stroke="white" stroke-miterlimit="10"/>
<path d="M42.1 14.3H41.4V12.3H42C42.5 11.9 42.8 11.1 42.8 10V7H46.8V12.3H47.5V14.3H46.8V13H42.2V14.3H42.1ZM43.5 10C43.5 10.9 43.3 11.7 42.9 12.3H45.9V7.7H43.4V10H43.5Z" fill="white"/>
<path d="M53.4 12.2C52.8 12.8 52.1 13.1 51.2 13.1C50.3 13.1 49.6 12.8 49 12.2C48.4 11.6 48.1 10.9 48.1 10C48.1 9.10002 48.4 8.40002 49 7.80002C49.6 7.20002 50.3 6.90002 51.2 6.90002C52.1 6.90002 52.8 7.20002 53.4 7.80002C54 8.40002 54.3 9.10002 54.3 10C54.3 10.9 54 11.6 53.4 12.2ZM49.6 11.7C50 12.1 50.6 12.4 51.2 12.4C51.8 12.4 52.4 12.2 52.8 11.7C53.2 11.3 53.5 10.7 53.5 10C53.5 9.30002 53.3 8.70002 52.8 8.30002C52.4 7.90002 51.8 7.60002 51.2 7.60002C50.6 7.60002 50 7.80002 49.6 8.30002C49.2 8.70002 48.9 9.30002 48.9 10C48.9 10.7 49.1 11.3 49.6 11.7Z" fill="white"/>
<path d="M58.2 13.1C57.3 13.1 56.6 12.8 56 12.2C55.4 11.6 55.1 10.9 55.1 10C55.1 9.10002 55.4 8.40002 56 7.80002C56.6 7.20002 57.3 6.90002 58.2 6.90002C59.1 6.90002 59.8 7.20002 60.4 7.90002L59.9 8.40002C59.5 7.90002 58.9 7.60002 58.2 7.60002C57.5 7.60002 57 7.80002 56.5 8.30002C56 8.70002 55.8 9.30002 55.8 10C55.8 10.7 56 11.3 56.5 11.7C56.9 12.1 57.5 12.4 58.2 12.4C58.9 12.4 59.5 12.1 60 11.5L60.5 12C60.2 12.3 59.9 12.6 59.5 12.8C59.1 13 58.7 13.1 58.2 13.1Z" fill="white"/>
<path d="M63.7 13H62.9V7.7H61.2V7H65.3V7.7H63.6V13H63.7Z" fill="white"/>
<path d="M70.6 7L68.3 12.1C68 12.8 67.5 13.2 66.9 13.2C66.7 13.2 66.5 13.2 66.3 13.1L66.5 12.4C66.6 12.5 66.8 12.5 66.9 12.5C67.1 12.5 67.2 12.5 67.3 12.4C67.4 12.3 67.5 12.2 67.6 12L67.8 11.5L65.8 7.1H66.7L68.2 10.5L69.7 7H70.6Z" fill="white"/>
<path d="M71.5 13V7H75.8V13H75V7.7H72.2V13H71.5Z" fill="white"/>
<path d="M77.2 13V7H78V9.6H81V7H81.8V13H81V10.3H78V13H77.2Z" fill="white"/>
<path d="M88.1 12.2C87.5 12.8 86.8 13.1 85.9 13.1C85 13.1 84.3 12.8 83.7 12.2C83.1 11.6 82.8 10.9 82.8 10C82.8 9.10002 83.1 8.40002 83.7 7.80002C84.3 7.20002 85 6.90002 85.9 6.90002C86.8 6.90002 87.5 7.20002 88.1 7.80002C88.7 8.40002 89 9.10002 89 10C88.9 10.9 88.6 11.6 88.1 12.2ZM84.2 11.7C84.6 12.1 85.2 12.4 85.8 12.4C86.4 12.4 87 12.2 87.4 11.7C87.8 11.3 88.1 10.7 88.1 10C88.1 9.30002 87.9 8.70002 87.4 8.30002C87 7.90002 86.4 7.60002 85.8 7.60002C85.2 7.60002 84.6 7.80002 84.2 8.30002C83.8 8.70002 83.5 9.30002 83.5 10C83.5 10.7 83.8 11.3 84.2 11.7Z" fill="white"/>
<path d="M92.1 13V7H94.3C94.8 7 95.2 7.2 95.5 7.5C95.8 7.8 96 8.2 96 8.6C96 8.9 95.9 9.1 95.8 9.4C95.7 9.6 95.5 9.8 95.2 9.9C95.5 10 95.7 10.2 95.9 10.4C96.1 10.6 96.2 10.9 96.2 11.3C96.2 11.8 96 12.2 95.7 12.5C95.3 12.8 94.9 13 94.4 13H92.1ZM92.9 9.6H94.3C94.6 9.6 94.8 9.5 95 9.3C95.2 9.1 95.3 8.9 95.3 8.7C95.3 8.5 95.1 8.2 95 8C94.8 7.8 94.6 7.7 94.3 7.7H92.9V9.6ZM92.9 12.3H94.5C94.8 12.3 95 12.2 95.2 12C95.4 11.8 95.5 11.6 95.5 11.3C95.5 11.1 95.4 10.8 95.2 10.6C95 10.4 94.8 10.3 94.5 10.3H93V12.3H92.9Z" fill="white"/>
</svg>
