<svg width="30" height="27" viewBox="0 0 30 27" fill="none" xmlns="http://www.w3.org/2000/svg">
<path d="M20.2129 25.83C20.03 25.83 19.9386 25.74 19.8471 25.56L15.5483 13.5H13.719L9.42027 25.65C9.3288 25.83 9.14588 25.92 8.96295 25.83C8.78002 25.74 8.68856 25.56 8.78002 25.38L13.1703 12.96C13.2617 12.78 13.3532 12.69 13.5361 12.69H15.9142C16.0971 12.69 16.1886 12.78 16.28 12.96L20.6703 25.38C20.7617 25.56 20.6703 25.74 20.4873 25.83C20.3044 25.83 20.2129 25.83 20.2129 25.83Z"/>
<path d="M16.6461 16.11H12.6217C12.4388 16.11 12.2559 15.93 12.2559 15.75C12.2559 15.57 12.4388 15.39 12.6217 15.39H16.6461C16.829 15.39 17.012 15.57 17.012 15.75C17.012 15.93 16.829 16.11 16.6461 16.11Z"/>
<path d="M17.3777 18.54H11.7985C11.6155 18.54 11.4326 18.36 11.4326 18.18C11.4326 18 11.6155 17.82 11.7985 17.82H17.3777C17.5607 17.82 17.7436 18 17.7436 18.18C17.7436 18.36 17.6521 18.54 17.3777 18.54Z"/>
<path d="M18.4755 20.97H10.7926C10.6097 20.97 10.4268 20.79 10.4268 20.61C10.4268 20.43 10.6097 20.25 10.7926 20.25H18.4755C18.6585 20.25 18.8414 20.43 18.8414 20.61C18.8414 20.79 18.6585 20.97 18.4755 20.97Z"/>
<path d="M19.299 23.4H10.0612C9.87824 23.4 9.69531 23.22 9.69531 23.04C9.69531 22.86 9.87824 22.68 10.0612 22.68H19.3904C19.5734 22.68 19.7563 22.86 19.7563 23.04C19.6648 23.31 19.4819 23.4 19.299 23.4Z"/>
<path d="M20.3052 27H9.1467C8.41499 27 7.86621 26.55 7.86621 26.1C7.86621 25.56 8.41499 25.2 9.1467 25.2H20.3052C21.0369 25.2 21.5857 25.65 21.5857 26.1C21.5857 26.55 21.0369 27 20.3052 27ZM9.1467 25.83C8.78084 25.83 8.59792 26.01 8.59792 26.1C8.59792 26.19 8.78084 26.37 9.1467 26.37H20.3052C20.6711 26.37 20.854 26.19 20.854 26.1C20.854 26.01 20.6711 25.83 20.3052 25.83H9.1467Z"/>
<path d="M9.78692 11.97C9.69546 11.97 9.60399 11.97 9.51253 11.88L2.10399 4.50001C1.92107 4.32001 1.92107 4.14001 2.10399 3.96001C2.28692 3.78001 2.46985 3.78001 2.65277 3.96001L10.0613 11.25C10.2442 11.43 10.2442 11.61 10.0613 11.79C9.96985 11.88 9.87838 11.97 9.78692 11.97Z"/>
<path d="M15.9146 11.97C15.8231 11.97 15.7317 11.97 15.6402 11.88L8.23168 4.49998C8.14022 4.40998 8.14022 4.13998 8.23168 4.04998C8.41461 3.86998 8.59754 3.86998 8.78046 4.04998L16.189 11.34C16.3719 11.52 16.3719 11.7 16.189 11.88C16.0975 11.88 16.0061 11.97 15.9146 11.97Z"/>
<path d="M22.0431 11.97C21.9516 11.97 21.8602 11.97 21.7687 11.88L14.4516 4.50001C14.2687 4.32001 14.2687 4.14001 14.4516 3.96001C14.6346 3.78001 14.8175 3.78001 15.0004 3.96001L22.409 11.25C22.5919 11.43 22.5919 11.61 22.409 11.79C22.226 11.88 22.1346 11.97 22.0431 11.97Z"/>
<path d="M28.6277 11.97C28.5363 11.97 28.4448 11.97 28.3534 11.88L20.9448 4.50001C20.7619 4.32001 20.7619 4.14001 20.9448 3.96001C21.1277 3.78001 21.3107 3.78001 21.4936 3.96001L28.9021 11.25C29.0851 11.43 29.0851 11.61 28.9021 11.79C28.8107 11.88 28.7192 11.97 28.6277 11.97Z"/>
<path d="M4.75624 26.73H2.01234C1.82941 26.73 1.64648 26.55 1.64648 26.37V11.79C1.64648 11.61 1.82941 11.43 2.01234 11.43C2.19526 11.43 2.37819 11.61 2.37819 11.79V26.01H4.39039V11.7C4.39039 11.52 4.57331 11.34 4.75624 11.34C4.93917 11.34 5.12209 11.52 5.12209 11.7V26.28C5.12209 26.55 4.93917 26.73 4.75624 26.73Z"/>
<path d="M2.01234 4.59C1.82941 4.59 1.64648 4.41 1.64648 4.23V0.36C1.64648 0.18 1.82941 0 2.01234 0H4.66478C4.8477 0 5.03063 0.18 5.03063 0.36V4.23C5.12209 4.41 4.93917 4.5 4.75624 4.5C4.57331 4.5 4.39039 4.41 4.39039 4.23V0.72H2.37819V4.23C2.37819 4.41 2.28673 4.59 2.01234 4.59Z"/>
<path d="M27.7136 26.73H25.0612C24.8782 26.73 24.6953 26.55 24.6953 26.37V11.79C24.6953 11.61 24.8782 11.43 25.0612 11.43C25.2441 11.43 25.427 11.61 25.427 11.79V26.01H27.4392V11.79C27.4392 11.61 27.6221 11.43 27.8051 11.43C27.988 11.43 28.1709 11.61 28.1709 11.79V26.37C28.0795 26.55 27.8965 26.73 27.7136 26.73Z"/>
<path d="M25.0612 4.59C24.8782 4.59 24.6953 4.41 24.6953 4.23V0.36C24.6953 0.18 24.8782 0 25.0612 0H27.7136C27.8965 0 28.0795 0.18 28.0795 0.36V4.23C28.0795 4.41 27.8965 4.59 27.7136 4.59C27.5307 4.59 27.3478 4.41 27.3478 4.23V0.72H25.3356V4.23C25.427 4.41 25.2441 4.59 25.0612 4.59Z"/>
<path d="M29.6341 11.97H0.365854C0.182927 11.97 0 11.79 0 11.61V4.32002C0 4.14002 0.182927 3.96002 0.365854 3.96002H29.6341C29.8171 3.96002 30 4.14002 30 4.32002V11.61C30 11.79 29.8171 11.97 29.6341 11.97ZM0.731707 11.25H29.2683V4.68002H0.731707V11.25Z"/>
</svg>
