<svg width="24" height="22" viewBox="0 0 24 22" fill="none" xmlns="http://www.w3.org/2000/svg">
<g clip-path="url(#clip0_324_331)">
<path d="M12.0478 14.8241C11.8566 14.9185 11.761 15.1073 11.761 15.2962C11.761 15.485 11.8566 15.6739 11.9522 15.7683C12.0478 15.8627 12.239 15.9571 12.4303 15.9571C12.6215 15.9571 12.8127 15.8627 12.9084 15.6739L17.4024 11.2361C17.6892 10.9528 17.6892 10.5752 17.4024 10.3863L12.9084 5.94855C12.8127 5.85412 12.6215 5.7597 12.4303 5.66528C12.239 5.66528 12.0478 5.7597 11.9522 5.85412C11.8566 5.94854 11.761 6.13739 11.761 6.32623C11.761 6.51507 11.8566 6.70391 12.0478 6.79833L15.3944 10.1975H0.669323C0.286853 10.1975 0 10.4807 0 10.8584C0 11.2361 0.286853 11.5194 0.669323 11.5194H15.3944L12.0478 14.8241Z" fill="#0968FA"/>
<path d="M23.7131 2.07725C23.5219 1.69957 23.3306 1.32189 22.9482 0.944206C22.6613 0.660944 22.2788 0.377682 21.8007 0.188841C21.4183 0.0944206 21.0358 0 20.5577 0H9.65732C9.17923 0 8.79676 0.0944206 8.31867 0.283262C7.9362 0.472103 7.55373 0.660944 7.26688 1.03863C6.88441 1.32189 6.69318 1.69957 6.50194 2.07725C6.31071 2.54936 6.21509 2.92704 6.21509 3.39914V6.51502C6.21509 6.8927 6.50194 7.17597 6.88441 7.17597C7.26688 7.17597 7.55373 6.8927 7.55373 6.51502V3.39914C7.55373 2.83262 7.74497 2.36052 8.12744 1.98283C8.50991 1.60515 9.08361 1.41631 9.5617 1.41631H20.4621C21.0358 1.41631 21.5139 1.60515 21.8964 1.98283C22.2788 2.36052 22.4701 2.92704 22.4701 3.39914V18.5064C22.4701 19.073 22.2788 19.5451 21.8964 19.9227C21.5139 20.3004 20.9402 20.4893 20.4621 20.4893H9.65732C9.08361 20.4893 8.60553 20.3004 8.22306 19.9227C7.84059 19.5451 7.64935 18.9785 7.64935 18.5064V15.2017C7.64935 14.824 7.3625 14.5408 6.98003 14.5408C6.59756 14.5408 6.31071 14.824 6.31071 15.2017V18.5064C6.31071 18.9785 6.40632 19.3562 6.59756 19.8283C6.78879 20.206 6.98003 20.5837 7.3625 20.9614C7.64935 21.2446 8.03182 21.5279 8.50991 21.7167C8.89238 21.9056 9.37047 22 9.84855 22H20.749C21.227 22 21.6095 21.9056 22.0876 21.7167C22.4701 21.5279 22.8525 21.3391 23.235 20.9614C23.5219 20.6781 23.8087 20.3004 23.9999 19.8283C24.1912 19.4506 24.2868 18.9785 24.2868 18.5064V3.39914C23.9999 2.92704 23.9043 2.54936 23.7131 2.07725Z" fill="#0968FA"/>
</g>
<defs>
<clipPath id="clip0_324_331">
<rect width="24" height="22" fill="white"/>
</clipPath>
</defs>
</svg>
