<svg width="143" height="26" viewBox="0 0 143 26" fill="none" xmlns="http://www.w3.org/2000/svg">
<path d="M17.0647 15.1273V23.0691C16.4927 23.6364 15.8253 24.1091 15.0627 24.4873C14.3953 24.8655 13.6327 25.1491 12.7747 25.4327C11.9167 25.7164 10.868 25.9055 9.81933 25.9055C8.48466 25.9055 7.24533 25.6218 6.10133 25.1491C4.95733 24.6764 3.90866 23.92 2.95533 23.0691C2.002 22.2182 1.33466 21.1782 0.762663 19.9491C0.190663 18.72 -0.0953369 17.4909 -0.0953369 16.1673C-0.0953369 14.9382 0.190663 13.7091 0.66733 12.48C1.33466 11.3455 2.002 10.4 2.86 9.45454C3.718 8.50909 4.76666 7.84727 6.006 7.28C7.24533 6.71273 8.48466 6.42909 9.81933 6.42909C11.3447 6.42909 12.7747 6.71273 13.9187 7.28C15.158 7.84727 16.1113 8.69818 17.0647 9.64364C17.0647 9.64364 16.9693 9.73818 16.6833 9.92727C16.3973 10.1164 16.1113 10.3055 15.8253 10.5891C15.444 10.8727 15.0627 11.1564 14.586 11.44C14.014 10.8727 13.3467 10.4 12.4887 10.1164C11.6307 9.83273 10.7727 9.64364 9.81933 9.64364C9.05666 9.64364 8.19866 9.83273 7.436 10.1164C6.67333 10.4945 6.006 10.9673 5.33866 11.5345C4.76666 12.1964 4.19466 12.9527 3.81333 13.7091C3.432 14.4655 3.24133 15.3164 3.24133 16.2618C3.24133 17.1127 3.432 17.8691 3.718 18.6255C4.09933 19.3818 4.576 20.1382 5.148 20.7055C5.72 21.2727 6.48266 21.84 7.24533 22.2182C8.008 22.5964 8.866 22.7855 9.81933 22.7855C10.582 22.7855 11.2493 22.6909 12.012 22.5018C12.6793 22.3127 13.3467 22.0291 13.9187 21.6509V18.4364H9.91466V15.1273H17.0647Z" fill="#0064FA"/>
<path d="M74.074 6.42909H77.4107V26L64.2547 13.8982V26H60.918V6.42909L74.074 18.5309V6.42909Z" fill="#0064FA"/>
<path d="M95.4286 22.6909V26H82.2726V6.42909H85.6093V22.6909H95.4286Z" fill="#0064FA"/>
<path d="M103.627 6.52364H100.386V26H103.627V6.52364Z" fill="#0064FA"/>
<path d="M121.645 6.42909H124.982V26L111.826 13.8982V26H108.585V6.42909L121.645 18.5309V6.42909Z" fill="#0064FA"/>
<path d="M129.844 6.52364H143V9.73818H129.844V6.52364ZM141.57 17.8691H129.939V14.6545H141.57V17.8691ZM129.844 22.6909H143V25.9055H129.844V22.6909Z" fill="#0064FA"/>
<path d="M58.5347 15.6L43.186 0L39.8493 21.5564L43.6627 20.3273V20.2327C44.5207 18.6255 46.2367 17.1127 48.5247 16.4509C50.8127 15.6945 53.1007 15.8836 54.7213 16.7345L58.5347 15.6ZM47.476 13.3309C46.332 13.7091 45.2833 14.1818 44.33 14.8436L45.3787 6.90182L50.908 12.7636C49.8593 12.7636 48.62 12.9527 47.476 13.3309Z" fill="#2EFFBB"/>
<path d="M32.9853 17.9636C35.2733 17.1127 36.894 14.9382 36.894 12.3855C36.894 9.07636 34.2247 6.42909 30.888 6.42909H21.9267V9.64364H25.168H26.1213H30.7927C32.318 9.64364 33.5573 10.8727 33.5573 12.3855C33.5573 13.8982 32.318 15.1273 30.7927 15.1273H26.1213H25.168H21.9267V18.2473V18.4364V26H25.168V18.4364H29.3627L33.5573 26H37.2753L32.9853 17.9636Z" fill="#0064FA"/>
<path d="M44.33 14.8436C41.756 16.5455 40.1353 19.0036 39.8493 21.5564L43.5673 20.4218C43.5673 20.4218 43.5673 20.4218 43.5673 20.3273L44.33 14.8436Z" fill="#00FF64"/>
<path d="M54.8167 16.8291L58.5347 15.6945C56.8187 13.8036 54.054 12.7636 51.0033 12.8582L54.8167 16.8291C54.7213 16.7345 54.8167 16.8291 54.8167 16.8291Z" fill="#00FF64"/>
</svg>
