<svg width="30" height="26" viewBox="0 0 30 26" fill="none" xmlns="http://www.w3.org/2000/svg">
<path d="M16.9648 9.83138C16.9648 9.18048 17.4545 8.71555 18.1401 8.71555C18.8257 8.71555 19.3154 9.18048 19.3154 9.83138C19.3154 10.4823 18.8257 10.9472 18.1401 10.9472C17.4545 10.9472 16.9648 10.4823 16.9648 9.83138Z" fill="#181818"/>
<path d="M10.6959 13.0859H9.32474M10.6959 16.9914H9.32474M10.6959 15.0387H7.85567M12.8505 16.7124V19.409C12.8505 19.502 12.6546 19.781 12.4588 19.781H9.61856M14.5155 12.993L14.0258 13.6439L12.9485 15.1316C12.8505 15.2246 12.8505 15.4106 13.0464 15.5036L17.0619 18.2932C17.1598 18.2932 17.1598 18.3862 17.1598 18.4792V22.0126M14.3196 16.4335L17.6495 12.3421M17.6495 12.3421L16.2784 11.0402H13.634C13.5361 11.0402 13.4381 11.0402 13.4381 11.1332L12.1649 12.807M17.6495 12.3421V14.6667C17.6495 14.8527 17.7474 14.9457 17.9433 14.9457H20.7835M5.1134 2.11355C5.1134 1.7416 5.70103 1.0907 6.19072 1.0907H24.4072C24.8969 1.0907 25.4845 1.64862 25.4845 2.11355M3.0567 4.06626C3.0567 3.60133 3.54639 3.04341 4.13402 3.04341H26.5619C27.1495 3.04341 27.6392 3.60133 27.6392 4.06626M2.2732 24.9882C1.58763 24.9882 1 24.5233 1 23.9654V6.20495C1 5.64703 1.58763 5.1821 2.2732 5.1821H28.5206C29.2062 5.1821 29.5 5.64703 29.5 6.20495V23.9654C29.5 24.5233 29.2062 24.9882 28.5206 24.9882H2.2732Z" stroke="#181818"/>
</svg>
