<svg width="24" height="22" viewBox="0 0 24 22" fill="none" xmlns="http://www.w3.org/2000/svg">
<g clip-path="url(#clip0_1503_807)" fill="inherit">
<path d="M23.37 21.6405H0.349609H23.37ZM11.6149 16.6078H9.86565L15.8831 10.5686L21.9006 16.6078H20.1514V21.6405H11.6149V16.6078Z" stroke="inherit"/>
<path d="M14.834 18.2614H16.8631V21.3529H14.834V18.2614Z" fill="inherit"/>
<path d="M5.59766 21.4968V14.6667" stroke="inherit"/>
<path d="M5.59742 14.6666C8.49571 14.6666 10.8452 12.2525 10.8452 9.27448C10.8452 6.29647 8.49571 3.88232 5.59742 3.88232C2.69914 3.88232 0.349609 6.29647 0.349609 9.27448C0.349609 12.2525 2.69914 14.6666 5.59742 14.6666Z" stroke="inherit"/>
<path d="M22.0408 3.23531C22.0408 2.51636 21.691 2.08499 21.1312 1.8693C20.5715 1.58172 20.0117 1.72551 19.5919 2.15688C19.0321 1.22224 18.4024 0.359497 17.0029 0.359497C16.933 0.359497 16.793 0.359497 16.6531 0.359497C15.3936 0.503288 14.344 1.58172 14.1341 2.87584C13.3645 3.01963 12.8047 3.81048 12.8047 4.60133V4.67322C12.8047 5.75165 13.5744 6.47061 14.484 6.47061H22.0408C22.9505 6.47061 23.6502 5.67976 23.6502 4.74512C23.6502 3.81048 22.9505 3.23531 22.0408 3.23531Z" stroke="inherit"/>
</g>
<defs>
<clipPath id="clip0_1503_807">
<rect width="24" height="22" fill="inherit"/>
</clipPath>
</defs>
</svg>
