<svg width="38" height="37" viewBox="0 0 38 37" fill="none" xmlns="http://www.w3.org/2000/svg">
<path d="M17.3036 6.35617C17.3036 6.74273 17.6429 6.93601 18.05 6.93601H20.0179C20.425 6.93601 20.6964 6.74273 20.6964 6.35617M23.8857 28.5832L24.2929 29.3564C24.7 30.0006 24.2929 30.8382 23.4786 30.8382H14.1821C13.4357 30.8382 12.9607 30.0006 13.3 29.3564L13.775 28.5832H23.8857ZM7.125 16.6C7.125 10.3506 12.4179 5.32535 19 5.32535C25.5821 5.32535 30.875 10.3506 30.875 16.6C30.875 22.8493 25.5821 27.8746 19 27.8746C12.4179 27.8746 7.125 22.8493 7.125 16.6ZM13.5714 16.6644C13.5714 19.3703 15.8786 21.5608 18.7286 21.5608C21.5786 21.5608 23.8857 19.3703 23.8857 16.6644C23.8857 13.9585 21.5786 11.768 18.7286 11.768C15.8786 11.768 13.5714 13.9585 13.5714 16.6644Z" stroke="#181818"/>
<path d="M16.2852 16.6644C16.2852 15.3759 17.3709 14.345 18.728 14.345C20.0852 14.345 21.1709 15.3759 21.1709 16.6644C21.1709 17.9529 20.0852 18.9837 18.728 18.9837C17.3709 18.9837 16.2852 18.0173 16.2852 16.6644Z" fill="#181818"/>
</svg>
