<svg width="16" height="24" viewBox="0 0 16 24" fill="none" xmlns="http://www.w3.org/2000/svg">
<g clip-path="url(#clip0_1503_828)" fill="inherit">
<path d="M5.45891 22.9058H10.7673C11.0664 22.9058 11.2907 23.1246 11.2907 23.4164C11.2907 23.7082 11.0664 23.927 10.7673 23.927H5.45891C5.15985 23.927 4.93555 23.7082 4.93555 23.4164C4.93555 23.1976 5.15985 22.9058 5.45891 22.9058Z" fill="inherit"/>
<path d="M3.06464 13.6413C3.06464 16.1216 5.30763 18.1641 7.99922 18.1641M0.373047 13.6413C0.373047 8.09725 7.99922 0.51062 7.99922 0.51062C7.99922 0.51062 15.6254 8.17019 15.6254 13.6413C15.6254 17.5805 12.1861 20.7173 7.99922 20.7173C3.8123 20.7173 0.373047 17.5805 0.373047 13.6413Z" stroke="inherit"/>
</g>
<defs>
<clipPath id="clip0_1503_828">
<rect width="16" height="24" fill="inherit"/>
</clipPath>
</defs>
</svg>
